M48
; DRILL file {KiCad 5.1.6} date Fri Oct 16 15:45:15 2020
; FORMAT={-:-/ absolute / inch / decimal}
; #@! TF.CreationDate,2020-10-16T15:45:15+02:00
; #@! TF.GenerationSoftware,Kicad,Pcbnew,5.1.6
; #@! TF.FileFunction,Plated,1,2,PTH
FMAT,2
INCH
T1C0.0157
T2C0.0315
T3C0.0320
T4C0.0354
T5C0.0394
T6C0.0866
%
G90
G05
T1
X5.7809Y-4.8434
X5.8746Y-4.9059
X6.098Y-4.7231
X6.6558Y-2.9998
X8.055Y-3.9927
X8.305Y-3.8677
X8.4995Y-3.6873
X8.562Y-3.781
X8.5932Y-3.531
X8.8127Y-4.5615
X8.8193Y-4.7111
X8.914Y-3.4769
X9.0907Y-5.2809
X9.1097Y-5.235
X9.1097Y-5.3269
X9.1557Y-5.216
X9.1557Y-5.3459
X9.2016Y-5.235
X9.2016Y-5.3269
X9.2206Y-5.2809
X5.7472Y-3.4998
X5.7662Y-3.4538
X5.7662Y-3.5457
X5.8121Y-3.4348
X5.8121Y-3.5647
X5.8581Y-3.4538
X5.8581Y-3.5457
X5.8771Y-3.4998
X9.1845Y-2.4998
X9.2035Y-2.4539
X9.2035Y-2.5458
X9.2494Y-2.4349
X9.2494Y-2.5648
X9.2954Y-2.4539
X9.2954Y-2.5458
X9.3144Y-2.4998
T2
X5.3122Y-3.436
X5.3122Y-3.5148
X5.3122Y-3.5935
T3
X5.2619Y-3.965
X5.2619Y-4.565
X5.309Y-4.0161
X5.309Y-4.6161
X5.3619Y-3.965
X5.3619Y-4.565
X5.409Y-4.0161
X5.409Y-4.6161
X5.4619Y-3.965
X5.4619Y-4.565
X5.509Y-4.0161
X5.509Y-4.6161
X5.5619Y-3.965
X5.5619Y-4.565
X5.609Y-4.0161
X5.609Y-4.6161
X5.6619Y-3.965
X5.6619Y-4.565
X5.709Y-4.0161
X5.709Y-4.6161
X5.7619Y-3.965
X5.7619Y-4.565
X5.809Y-4.0161
X5.809Y-4.6161
X5.8619Y-3.965
X5.8619Y-4.565
X5.909Y-4.0161
X5.909Y-4.6161
X5.9619Y-3.965
X5.9619Y-4.565
X6.009Y-4.0161
X6.009Y-4.6161
X6.0619Y-3.965
X6.0619Y-4.565
X6.109Y-4.0161
X6.109Y-4.6161
X6.1619Y-3.965
X6.1619Y-4.565
X6.209Y-4.0161
X6.209Y-4.6161
X6.2619Y-3.965
X6.2619Y-4.565
X6.309Y-4.0161
X6.309Y-4.6161
X6.3619Y-3.965
X6.3619Y-4.565
X6.409Y-4.0161
X6.409Y-4.6161
T5
X9.1557Y-3.6373
X9.1557Y-3.7373
X9.1557Y-3.8373
X9.1557Y-3.9373
T6
X5.8121Y-3.4998
X9.2494Y-2.4998
X9.1557Y-5.2809
T2
G00X8.4783Y-2.9291
M15
G01X8.494Y-2.9291
M16
G05
G00X8.5291Y-2.6756
M15
G01X8.5448Y-2.6756
M16
G05
G00X8.5791Y-2.5756
M15
G01X8.5948Y-2.5756
M16
G05
G00X8.6791Y-3.0079
M15
G01X8.6948Y-3.0079
M16
G05
G00X8.7791Y-2.5756
M15
G01X8.7948Y-2.5756
M16
G05
G00X8.8291Y-2.6756
M15
G01X8.8448Y-2.6756
M16
G05
G00X8.8799Y-2.9291
M15
G01X8.8956Y-2.9291
M16
G05
G00X9.3438Y-4.9302
M15
G01X9.3574Y-4.9381
M16
G05
G00X9.4783Y-5.0988
M15
G01X9.4919Y-5.1067
M16
G05
G00X9.5145Y-4.736
M15
G01X9.5282Y-4.7439
M16
G05
G00X9.6078Y-4.6744
M15
G01X9.6215Y-4.6823
M16
G05
G00X9.6916Y-5.131
M15
G01X9.7052Y-5.1389
M16
G05
G00X9.7744Y-4.886
M15
G01X9.788Y-4.8939
M16
G05
G00X9.7811Y-4.7744
M15
G01X9.7947Y-4.7823
M16
G05
G00X6.2284Y-3.4213
M15
G01X6.2442Y-3.4213
M16
G05
G00X6.2792Y-3.1677
M15
G01X6.295Y-3.1677
M16
G05
G00X6.3292Y-3.0677
M15
G01X6.345Y-3.0677
M16
G05
G00X6.4292Y-3.5
M15
G01X6.445Y-3.5
M16
G05
G00X6.5292Y-3.0677
M15
G01X6.545Y-3.0677
M16
G05
G00X6.5792Y-3.1677
M15
G01X6.595Y-3.1677
M16
G05
G00X6.63Y-3.4213
M15
G01X6.6458Y-3.4213
M16
G05
G00X6.9784Y-2.9488
M15
G01X6.9941Y-2.9488
M16
G05
G00X7.0292Y-2.6953
M15
G01X7.0449Y-2.6953
M16
G05
G00X7.0792Y-2.5953
M15
G01X7.0949Y-2.5953
M16
G05
G00X7.1792Y-3.0276
M15
G01X7.1949Y-3.0276
M16
G05
G00X7.2792Y-2.5953
M15
G01X7.2949Y-2.5953
M16
G05
G00X7.3292Y-2.6953
M15
G01X7.3449Y-2.6953
M16
G05
G00X7.38Y-2.9488
M15
G01X7.3957Y-2.9488
M16
G05
G00X7.7283Y-2.7126
M15
G01X7.7441Y-2.7126
M16
G05
G00X7.7791Y-2.4591
M15
G01X7.7949Y-2.4591
M16
G05
G00X7.8291Y-2.3591
M15
G01X7.8449Y-2.3591
M16
G05
G00X7.9291Y-2.7913
M15
G01X7.9449Y-2.7913
M16
G05
G00X8.0291Y-2.3591
M15
G01X8.0449Y-2.3591
M16
G05
G00X8.0791Y-2.4591
M15
G01X8.0949Y-2.4591
M16
G05
G00X8.1299Y-2.7126
M15
G01X8.1457Y-2.7126
M16
G05
T4
G00X9.4907Y-2.6936
M15
G01X9.4714Y-2.7072
M16
G05
G00X9.6301Y-2.8171
M15
G01X9.6107Y-2.8307
M16
G05
G00X9.6985Y-2.9903
M15
G01X9.6791Y-3.0039
M16
G05
G00X9.7591Y-2.7268
M15
G01X9.7397Y-2.7404
M16
G05
G00X9.8558Y-2.6591
M15
G01X9.8365Y-2.6726
M16
G05
T0
M30
