%TF.GenerationSoftware,KiCad,Pcbnew,5.1.6*%
%TF.CreationDate,2020-10-16T15:45:10+02:00*%
%TF.ProjectId,prominny_kicad,70726f6d-696e-46e7-995f-6b696361642e,rev?*%
%TF.SameCoordinates,Original*%
%TF.FileFunction,Copper,L1,Top*%
%TF.FilePolarity,Positive*%
%FSLAX46Y46*%
G04 Gerber Fmt 4.6, Leading zero omitted, Abs format (unit mm)*
G04 Created by KiCad (PCBNEW 5.1.6) date 2020-10-16 15:45:10*
%MOMM*%
%LPD*%
G01*
G04 APERTURE LIST*
%TA.AperFunction,ComponentPad*%
%ADD10C,0.700000*%
%TD*%
%TA.AperFunction,ComponentPad*%
%ADD11C,4.400000*%
%TD*%
%TA.AperFunction,ComponentPad*%
%ADD12O,2.000000X1.600000*%
%TD*%
%TA.AperFunction,ComponentPad*%
%ADD13O,1.350000X1.350000*%
%TD*%
%TA.AperFunction,ComponentPad*%
%ADD14R,1.350000X1.350000*%
%TD*%
%TA.AperFunction,WasherPad*%
%ADD15C,2.100000*%
%TD*%
%TA.AperFunction,WasherPad*%
%ADD16C,1.900000*%
%TD*%
%TA.AperFunction,ComponentPad*%
%ADD17O,2.500000X2.000000*%
%TD*%
%TA.AperFunction,SMDPad,CuDef*%
%ADD18R,1.700000X1.000000*%
%TD*%
%TA.AperFunction,ComponentPad*%
%ADD19C,1.524000*%
%TD*%
%TA.AperFunction,SMDPad,CuDef*%
%ADD20R,1.000000X1.500000*%
%TD*%
%TA.AperFunction,ViaPad*%
%ADD21C,0.800000*%
%TD*%
%TA.AperFunction,Conductor*%
%ADD22C,0.254000*%
%TD*%
%TA.AperFunction,Conductor*%
%ADD23C,0.381000*%
%TD*%
G04 APERTURE END LIST*
D10*
%TO.P, ,1*%
%TO.N,N/C*%
X233720826Y-132968574D03*
X232554100Y-132485300D03*
X231387374Y-132968574D03*
X230904100Y-134135300D03*
X231387374Y-135302026D03*
X232554100Y-135785300D03*
X233720826Y-135302026D03*
X234204100Y-134135300D03*
D11*
X232554100Y-134135300D03*
%TD*%
%TO.P, ,1*%
%TO.N,N/C*%
X234935200Y-63496000D03*
D10*
X236585200Y-63496000D03*
X236101926Y-64662726D03*
X234935200Y-65146000D03*
X233768474Y-64662726D03*
X233285200Y-63496000D03*
X233768474Y-62329274D03*
X234935200Y-61846000D03*
X236101926Y-62329274D03*
%TD*%
%TO.P, ,1*%
%TO.N,N/C*%
X148794926Y-87727674D03*
X147628200Y-87244400D03*
X146461474Y-87727674D03*
X145978200Y-88894400D03*
X146461474Y-90061126D03*
X147628200Y-90544400D03*
X148794926Y-90061126D03*
X149278200Y-88894400D03*
D11*
X147628200Y-88894400D03*
%TD*%
D12*
%TO.P,Brd1,2*%
%TO.N,Net-(Brd1-Pad2)*%
X232554100Y-97466200D03*
%TO.P,Brd1,1*%
%TO.N,Net-(Brd1-Pad1)*%
X232554100Y-100006200D03*
%TO.P,Brd1,3*%
%TO.N,Net-(Brd1-Pad3)*%
X232554100Y-94926200D03*
%TO.P,Brd1,4*%
%TO.N,Net-(Brd1-Pad4)*%
X232554100Y-92386200D03*
%TD*%
D13*
%TO.P,J1,3*%
%TO.N,ground*%
X134929000Y-87275500D03*
%TO.P,J1,2*%
%TO.N,power*%
X134929000Y-89275500D03*
D14*
%TO.P,J1,1*%
%TO.N,leds*%
X134929000Y-91275500D03*
%TD*%
%TO.P,SW7,1*%
%TO.N,col4*%
%TA.AperFunction,ComponentPad*%
G36*
G01*
X245256398Y-129802499D02*
X245256399Y-129802499D01*
G75*
G02*
X246622424Y-129436474I866025J-500000D01*
G01*
X247055436Y-129686474D01*
G75*
G02*
X247421461Y-131052499I-500000J-866025D01*
G01*
X247421461Y-131052499D01*
G75*
G02*
X246055436Y-131418524I-866025J500000D01*
G01*
X245622424Y-131168524D01*
G75*
G02*
X245256399Y-129802499I500000J866025D01*
G01*
G37*
%TD.AperFunction*%
%TO.P,SW7,2*%
%TO.N,row0*%
%TA.AperFunction,ComponentPad*%
G36*
G01*
X239839668Y-128984550D02*
X239839669Y-128984550D01*
G75*
G02*
X241205694Y-128618525I866025J-500000D01*
G01*
X241638706Y-128868525D01*
G75*
G02*
X242004731Y-130234550I-500000J-866025D01*
G01*
X242004731Y-130234550D01*
G75*
G02*
X240638706Y-130600575I-866025J500000D01*
G01*
X240205694Y-130350575D01*
G75*
G02*
X239839669Y-128984550I500000J866025D01*
G01*
G37*
%TD.AperFunction*%
%TO.P,SW7,1*%
%TO.N,col4*%
%TA.AperFunction,ComponentPad*%
G36*
G01*
X247359225Y-123580295D02*
X247359226Y-123580295D01*
G75*
G02*
X248725251Y-123214270I866025J-500000D01*
G01*
X249158263Y-123464270D01*
G75*
G02*
X249524288Y-124830295I-500000J-866025D01*
G01*
X249524288Y-124830295D01*
G75*
G02*
X248158263Y-125196320I-866025J500000D01*
G01*
X247725251Y-124946320D01*
G75*
G02*
X247359226Y-123580295I500000J866025D01*
G01*
G37*
%TD.AperFunction*%
%TO.P,SW7,2*%
%TO.N,row0*%
%TA.AperFunction,ComponentPad*%
G36*
G01*
X243129963Y-118205591D02*
X243129964Y-118205591D01*
G75*
G02*
X244495989Y-117839566I866025J-500000D01*
G01*
X244929001Y-118089566D01*
G75*
G02*
X245295026Y-119455591I-500000J-866025D01*
G01*
X245295026Y-119455591D01*
G75*
G02*
X243929001Y-119821616I-866025J500000D01*
G01*
X243495989Y-119571616D01*
G75*
G02*
X243129964Y-118205591I500000J866025D01*
G01*
G37*
%TD.AperFunction*%
%TO.P,SW7,1*%
%TO.N,col4*%
%TA.AperFunction,ComponentPad*%
G36*
G01*
X236422938Y-124702499D02*
X236422939Y-124702499D01*
G75*
G02*
X237788964Y-124336474I866025J-500000D01*
G01*
X238221976Y-124586474D01*
G75*
G02*
X238588001Y-125952499I-500000J-866025D01*
G01*
X238588001Y-125952499D01*
G75*
G02*
X237221976Y-126318524I-866025J500000D01*
G01*
X236788964Y-126068524D01*
G75*
G02*
X236422939Y-124702499I500000J866025D01*
G01*
G37*
%TD.AperFunction*%
D15*
%TO.P,SW7,*%
%TO.N,*%
X239109060Y-121750000D03*
X248635340Y-127250000D03*
%TO.P,SW7,2*%
%TO.N,row0*%
%TA.AperFunction,ComponentPad*%
G36*
G01*
X247529373Y-120745591D02*
X247529374Y-120745591D01*
G75*
G02*
X248895399Y-120379566I866025J-500000D01*
G01*
X249328411Y-120629566D01*
G75*
G02*
X249694436Y-121995591I-500000J-866025D01*
G01*
X249694436Y-121995591D01*
G75*
G02*
X248328411Y-122361616I-866025J500000D01*
G01*
X247895399Y-122111616D01*
G75*
G02*
X247529374Y-120745591I500000J866025D01*
G01*
G37*
%TD.AperFunction*%
%TO.P,SW7,1*%
%TO.N,col4*%
%TA.AperFunction,ComponentPad*%
G36*
G01*
X240760111Y-119770295D02*
X240760112Y-119770295D01*
G75*
G02*
X242126137Y-119404270I866025J-500000D01*
G01*
X242559149Y-119654270D01*
G75*
G02*
X242925174Y-121020295I-500000J-866025D01*
G01*
X242925174Y-121020295D01*
G75*
G02*
X241559149Y-121386320I-866025J500000D01*
G01*
X241126137Y-121136320D01*
G75*
G02*
X240760112Y-119770295I500000J866025D01*
G01*
G37*
%TD.AperFunction*%
D16*
%TO.P,SW7,*%
%TO.N,*%
X248271609Y-127040000D03*
X239472791Y-121960000D03*
%TD*%
D17*
%TO.P,SW5,1*%
%TO.N,col2*%
X206699800Y-68900000D03*
%TO.P,SW5,2*%
%TO.N,row0*%
X201599800Y-70900000D03*
%TO.P,SW5,1*%
%TO.N,col2*%
X205409800Y-62460000D03*
%TO.P,SW5,2*%
%TO.N,row0*%
X199059800Y-59920000D03*
%TO.P,SW5,1*%
%TO.N,col2*%
X196499800Y-68900000D03*
D15*
%TO.P,SW5,*%
%TO.N,*%
X196099800Y-65000000D03*
X207099800Y-65000000D03*
D17*
%TO.P,SW5,2*%
%TO.N,row0*%
X204139800Y-59920000D03*
%TO.P,SW5,1*%
%TO.N,col2*%
X197789800Y-62460000D03*
D16*
%TO.P,SW5,*%
%TO.N,*%
X206679800Y-65000000D03*
X196519800Y-65000000D03*
%TD*%
D17*
%TO.P,SW4,1*%
%TO.N,col1*%
X187651000Y-74900000D03*
%TO.P,SW4,2*%
%TO.N,row0*%
X182551000Y-76900000D03*
%TO.P,SW4,1*%
%TO.N,col1*%
X186361000Y-68460000D03*
%TO.P,SW4,2*%
%TO.N,row0*%
X180011000Y-65920000D03*
%TO.P,SW4,1*%
%TO.N,col1*%
X177451000Y-74900000D03*
D15*
%TO.P,SW4,*%
%TO.N,*%
X177051000Y-71000000D03*
X188051000Y-71000000D03*
D17*
%TO.P,SW4,2*%
%TO.N,row0*%
X185091000Y-65920000D03*
%TO.P,SW4,1*%
%TO.N,col1*%
X178741000Y-68460000D03*
D16*
%TO.P,SW4,*%
%TO.N,*%
X187631000Y-71000000D03*
X177471000Y-71000000D03*
%TD*%
D17*
%TO.P,SW3,1*%
%TO.N,col0*%
X168602200Y-86900000D03*
%TO.P,SW3,2*%
%TO.N,row0*%
X163502200Y-88900000D03*
%TO.P,SW3,1*%
%TO.N,col0*%
X167312200Y-80460000D03*
%TO.P,SW3,2*%
%TO.N,row0*%
X160962200Y-77920000D03*
%TO.P,SW3,1*%
%TO.N,col0*%
X158402200Y-86900000D03*
D15*
%TO.P,SW3,*%
%TO.N,*%
X158002200Y-83000000D03*
X169002200Y-83000000D03*
D17*
%TO.P,SW3,2*%
%TO.N,row0*%
X166042200Y-77920000D03*
%TO.P,SW3,1*%
%TO.N,col0*%
X159692200Y-80460000D03*
D16*
%TO.P,SW3,*%
%TO.N,*%
X168582200Y-83000000D03*
X158422200Y-83000000D03*
%TD*%
D17*
%TO.P,SW6,1*%
%TO.N,col3*%
X225748600Y-74400000D03*
%TO.P,SW6,2*%
%TO.N,row0*%
X220648600Y-76400000D03*
%TO.P,SW6,1*%
%TO.N,col3*%
X224458600Y-67960000D03*
%TO.P,SW6,2*%
%TO.N,row0*%
X218108600Y-65420000D03*
%TO.P,SW6,1*%
%TO.N,col3*%
X215548600Y-74400000D03*
D15*
%TO.P,SW6,*%
%TO.N,*%
X215148600Y-70500000D03*
X226148600Y-70500000D03*
D17*
%TO.P,SW6,2*%
%TO.N,row0*%
X223188600Y-65420000D03*
%TO.P,SW6,1*%
%TO.N,col3*%
X216838600Y-67960000D03*
D16*
%TO.P,SW6,*%
%TO.N,*%
X225728600Y-70500000D03*
X215568600Y-70500000D03*
%TD*%
D18*
%TO.P,SW1,1*%
%TO.N,reset*%
X220673400Y-115861300D03*
X226973400Y-115861300D03*
%TO.P,SW1,2*%
%TO.N,ground*%
X220673400Y-119661300D03*
X226973400Y-119661300D03*
%TD*%
D19*
%TO.P,U2,22*%
%TO.N,reset*%
X139927645Y-102009415D03*
%TO.P,U2,10*%
%TO.N,col3*%
X157707645Y-117249415D03*
%TO.P,U2,18*%
%TO.N,A1*%
X150087645Y-102009415D03*
%TO.P,U2,6*%
%TO.N,scl*%
X147547645Y-117249415D03*
%TO.P,U2,4*%
%TO.N,ground*%
X142467645Y-117249415D03*
%TO.P,U2,14*%
%TO.N,pin16*%
X160247645Y-102009415D03*
%TO.P,U2,3*%
%TO.N,ground*%
X139927645Y-117249415D03*
%TO.P,U2,1*%
%TO.N,leds*%
X134847645Y-117249415D03*
%TO.P,U2,16*%
%TO.N,pin15*%
X155167645Y-102009415D03*
%TO.P,U2,12*%
%TO.N,row0*%
X162787645Y-117249415D03*
%TO.P,U2,19*%
%TO.N,A2*%
X147547645Y-102009415D03*
%TO.P,U2,23*%
%TO.N,ground*%
X137387645Y-102009415D03*
%TO.P,U2,21*%
%TO.N,power*%
X142467645Y-102009415D03*
%TO.P,U2,20*%
%TO.N,A3*%
X145007645Y-102009415D03*
%TO.P,U2,15*%
%TO.N,pin14*%
X157707645Y-102009415D03*
%TO.P,U2,17*%
%TO.N,A0*%
X152627645Y-102009415D03*
%TO.P,U2,9*%
%TO.N,col2*%
X155167645Y-117249415D03*
%TO.P,U2,8*%
%TO.N,col1*%
X152627645Y-117249415D03*
%TO.P,U2,13*%
%TO.N,pin10*%
X162787645Y-102009415D03*
%TO.P,U2,11*%
%TO.N,col4*%
X160247645Y-117249415D03*
%TO.P,U2,2*%
%TO.N,connection*%
X137387645Y-117249415D03*
%TO.P,U2,24*%
%TO.N,Net-(U2-Pad24)*%
X134847645Y-102009415D03*
%TO.P,U2,7*%
%TO.N,col0*%
X150087645Y-117249415D03*
%TO.P,U2,5*%
%TO.N,sda*%
X145007645Y-117249415D03*
%TO.P,U2,1*%
%TO.N,leds*%
X133651900Y-100710600D03*
%TO.P,U2,2*%
%TO.N,connection*%
X136191900Y-100710600D03*
%TO.P,U2,3*%
%TO.N,ground*%
X138731900Y-100710600D03*
%TO.P,U2,4*%
X141271900Y-100710600D03*
%TO.P,U2,5*%
%TO.N,sda*%
X143811900Y-100710600D03*
%TO.P,U2,6*%
%TO.N,scl*%
X146351900Y-100710600D03*
%TO.P,U2,7*%
%TO.N,col0*%
X148891900Y-100710600D03*
%TO.P,U2,8*%
%TO.N,col1*%
X151431900Y-100710600D03*
%TO.P,U2,9*%
%TO.N,col2*%
X153971900Y-100710600D03*
%TO.P,U2,10*%
%TO.N,col3*%
X156511900Y-100710600D03*
%TO.P,U2,11*%
%TO.N,col4*%
X159051900Y-100710600D03*
%TO.P,U2,12*%
%TO.N,row0*%
X161591900Y-100710600D03*
%TO.P,U2,13*%
%TO.N,pin10*%
X161591900Y-115950600D03*
%TO.P,U2,14*%
%TO.N,pin16*%
X159051900Y-115950600D03*
%TO.P,U2,15*%
%TO.N,pin14*%
X156511900Y-115950600D03*
%TO.P,U2,16*%
%TO.N,pin15*%
X153971900Y-115950600D03*
%TO.P,U2,17*%
%TO.N,A0*%
X151431900Y-115950600D03*
%TO.P,U2,18*%
%TO.N,A1*%
X148891900Y-115950600D03*
%TO.P,U2,19*%
%TO.N,A2*%
X146351900Y-115950600D03*
%TO.P,U2,20*%
%TO.N,A3*%
X143811900Y-115950600D03*
%TO.P,U2,21*%
%TO.N,power*%
X141271900Y-115950600D03*
%TO.P,U2,22*%
%TO.N,reset*%
X138731900Y-115950600D03*
%TO.P,U2,23*%
%TO.N,ground*%
X136191900Y-115950600D03*
%TO.P,U2,24*%
%TO.N,Net-(U2-Pad24)*%
X133651900Y-115950600D03*
%TD*%
%TO.P,U1,3*%
%TO.N,ground*%
%TA.AperFunction,ComponentPad*%
G36*
G01*
X246929793Y-68950025D02*
X247421285Y-68605879D01*
G75*
G02*
X248535468Y-68802340I458861J-655322D01*
G01*
X248535468Y-68802340D01*
G75*
G02*
X248339007Y-69916523I-655322J-458861D01*
G01*
X247847515Y-70260669D01*
G75*
G02*
X246733332Y-70064208I-458861J655322D01*
G01*
X246733332Y-70064208D01*
G75*
G02*
X246929793Y-68950025I655322J458861D01*
G01*
G37*
%TD.AperFunction*%
%TO.P,U1,4*%
%TO.N,connection*%
%TA.AperFunction,ComponentPad*%
G36*
G01*
X249387249Y-67229296D02*
X249878741Y-66885150D01*
G75*
G02*
X250992924Y-67081611I458861J-655322D01*
G01*
X250992924Y-67081611D01*
G75*
G02*
X250796463Y-68195794I-655322J-458861D01*
G01*
X250304971Y-68539940D01*
G75*
G02*
X249190788Y-68343479I-458861J655322D01*
G01*
X249190788Y-68343479D01*
G75*
G02*
X249387249Y-67229296I655322J458861D01*
G01*
G37*
%TD.AperFunction*%
%TO.P,U1,2*%
%TO.N,power*%
%TA.AperFunction,ComponentPad*%
G36*
G01*
X243653185Y-71244331D02*
X244144677Y-70900185D01*
G75*
G02*
X245258860Y-71096646I458861J-655322D01*
G01*
X245258860Y-71096646D01*
G75*
G02*
X245062399Y-72210829I-655322J-458861D01*
G01*
X244570907Y-72554975D01*
G75*
G02*
X243456724Y-72358514I-458861J655322D01*
G01*
X243456724Y-72358514D01*
G75*
G02*
X243653185Y-71244331I655322J458861D01*
G01*
G37*
%TD.AperFunction*%
%TO.P,U1,1*%
%TO.N,Net-(U1-Pad1)*%
%TA.AperFunction,ComponentPad*%
G36*
G01*
X240113666Y-68107165D02*
X240605158Y-67763019D01*
G75*
G02*
X241719341Y-67959480I458861J-655322D01*
G01*
X241719341Y-67959480D01*
G75*
G02*
X241522880Y-69073663I-655322J-458861D01*
G01*
X241031388Y-69417809D01*
G75*
G02*
X239917205Y-69221348I-458861J655322D01*
G01*
X239917205Y-69221348D01*
G75*
G02*
X240113666Y-68107165I655322J458861D01*
G01*
G37*
%TD.AperFunction*%
%TA.AperFunction,ComponentPad*%
G36*
G01*
X245390570Y-75643364D02*
X245882062Y-75299218D01*
G75*
G02*
X246996245Y-75495679I458861J-655322D01*
G01*
X246996245Y-75495679D01*
G75*
G02*
X246799784Y-76609862I-655322J-458861D01*
G01*
X246308292Y-76954008D01*
G75*
G02*
X245194109Y-76757547I-458861J655322D01*
G01*
X245194109Y-76757547D01*
G75*
G02*
X245390570Y-75643364I655322J458861D01*
G01*
G37*
%TD.AperFunction*%
%TD*%
D20*
%TO.P,JP4,1*%
%TO.N,ground*%
X223173400Y-101381100D03*
%TO.P,JP4,2*%
%TO.N,Net-(Brd1-Pad1)*%
X224473400Y-101381100D03*
%TD*%
%TO.P,JP3,1*%
%TO.N,power*%
X223173400Y-97918800D03*
%TO.P,JP3,2*%
%TO.N,Net-(Brd1-Pad2)*%
X224473400Y-97918800D03*
%TD*%
%TO.P,JP2,1*%
%TO.N,scl*%
X223173400Y-94744000D03*
%TO.P,JP2,2*%
%TO.N,Net-(Brd1-Pad3)*%
X224473400Y-94744000D03*
%TD*%
%TO.P,JP1,1*%
%TO.N,sda*%
X223173400Y-91569200D03*
%TO.P,JP1,2*%
%TO.N,Net-(Brd1-Pad4)*%
X224473400Y-91569200D03*
%TD*%
D21*
%TO.N,power*%
X169058100Y-76195200D03*
X226416668Y-88312868D03*
X218267500Y-89688100D03*
X217473800Y-96037700D03*
%TO.N,ground*%
X224010800Y-119661300D03*
X215886400Y-93656600D03*
X146834500Y-123023500D03*
%TO.N,sda*%
X149215600Y-124610900D03*
X204596450Y-101415450D03*
%TO.N,scl*%
X154888717Y-119965917D03*
X210946050Y-98240650D03*
%TO.N,reset*%
X223842300Y-115861300D03*
%TD*%
D22*
%TO.N,Net-(Brd1-Pad2)*%
X232101500Y-97918800D02*
X232554100Y-97466200D01*
X224473400Y-97918800D02*
X232101500Y-97918800D01*
%TO.N,Net-(Brd1-Pad1)*%
X231179200Y-101381100D02*
X232554100Y-100006200D01*
X224473400Y-101381100D02*
X231179200Y-101381100D01*
%TO.N,Net-(Brd1-Pad3)*%
X232371900Y-94744000D02*
X232554100Y-94926200D01*
X224473400Y-94744000D02*
X232371900Y-94744000D01*
%TO.N,Net-(Brd1-Pad4)*%
X231737100Y-91569200D02*
X232554100Y-92386200D01*
X224473400Y-91569200D02*
X231737100Y-91569200D01*
D23*
%TO.N,power*%
X182551000Y-89688100D02*
X169058100Y-76195200D01*
X208743100Y-89688100D02*
X208743100Y-89688100D01*
X208743100Y-89688100D02*
X182551000Y-89688100D01*
X208743100Y-89688100D02*
X218267500Y-89688100D01*
X219642732Y-88312868D02*
X218267500Y-89688100D01*
X226416668Y-88312868D02*
X219642732Y-88312868D01*
X223173400Y-97918800D02*
X219354900Y-97918800D01*
X219354900Y-97918800D02*
X217473800Y-96037700D01*
%TO.N,ground*%
X137387645Y-114754855D02*
X136191900Y-115950600D01*
X139927645Y-117249415D02*
X142467645Y-117249415D01*
X141271900Y-100710600D02*
X138731900Y-100710600D01*
X138686460Y-100710600D02*
X137387645Y-102009415D01*
X138731900Y-100710600D02*
X138686460Y-100710600D01*
X137387645Y-102009415D02*
X137387645Y-111195545D01*
X137387645Y-111195545D02*
X137387645Y-114754855D01*
X137387645Y-111989245D02*
X139927645Y-114529245D01*
X139927645Y-114529245D02*
X139927645Y-117249415D01*
X137387645Y-111195545D02*
X137387645Y-111989245D01*
X220673400Y-119661300D02*
X224010800Y-119661300D01*
X224010800Y-119661300D02*
X226973400Y-119661300D01*
X153977800Y-132547900D02*
X207786800Y-132547900D01*
X142467645Y-121037745D02*
X153977800Y-132547900D01*
X207786800Y-132547900D02*
X220673400Y-119661300D01*
X142467645Y-117249415D02*
X142467645Y-121037745D01*
X141271900Y-100710600D02*
X141271900Y-93618400D01*
X141271900Y-93618400D02*
X134929000Y-87275500D01*
D22*
%TO.N,pin10*%
X161591900Y-109853500D02*
X161591900Y-115950600D01*
X162787645Y-108657755D02*
X161591900Y-109853500D01*
X162787645Y-102009415D02*
X162787645Y-108657755D01*
%TO.N,pin16*%
X159051900Y-109218700D02*
X159051900Y-115950600D01*
X160247645Y-108022955D02*
X159051900Y-109218700D01*
X160247645Y-102009415D02*
X160247645Y-108022955D01*
%TO.N,pin14*%
X156511900Y-109377600D02*
X156511900Y-115950600D01*
X157707645Y-108181855D02*
X156511900Y-109377600D01*
X157707645Y-102009415D02*
X157707645Y-108181855D01*
%TO.N,pin15*%
X153971900Y-108742800D02*
X153971900Y-115950600D01*
X155167645Y-107547055D02*
X153971900Y-108742800D01*
X155167645Y-102009415D02*
X155167645Y-107547055D01*
%TO.N,A0*%
X151431900Y-108901700D02*
X151431900Y-115950600D01*
X152627645Y-107705955D02*
X151431900Y-108901700D01*
X152627645Y-102009415D02*
X152627645Y-107705955D01*
%TO.N,A1*%
X150087645Y-107318235D02*
X150087645Y-102009415D01*
X148891900Y-108513980D02*
X150087645Y-107318235D01*
X148891900Y-115950600D02*
X148891900Y-108513980D01*
%TO.N,A2*%
X147547645Y-107230055D02*
X147547645Y-102009415D01*
X146351900Y-108425800D02*
X147547645Y-107230055D01*
X146351900Y-115950600D02*
X146351900Y-108425800D01*
%TO.N,A3*%
X145007645Y-107388955D02*
X145007645Y-102009415D01*
X143811900Y-108584700D02*
X145007645Y-107388955D01*
X143811900Y-115950600D02*
X143811900Y-108584700D01*
%TO.N,sda*%
X186956900Y-119055000D02*
X204596450Y-101415450D01*
X154771500Y-119055000D02*
X186956900Y-119055000D01*
X149215600Y-124610900D02*
X154771500Y-119055000D01*
X204596450Y-101415450D02*
X214442700Y-91569200D01*
X204596450Y-101415450D02*
X204596450Y-101415450D01*
X214442700Y-91569200D02*
X223173400Y-91569200D01*
%TO.N,scl*%
X189220783Y-119965917D02*
X210946050Y-98240650D01*
X154888717Y-119965917D02*
X189220783Y-119965917D01*
X210946050Y-98240650D02*
X210946050Y-98240650D01*
X210946050Y-98240650D02*
X214442700Y-94744000D01*
X214442700Y-94744000D02*
X223173400Y-94744000D01*
%TO.N,reset*%
X226973400Y-115861300D02*
X220673400Y-115861300D01*
%TO.N,row0*%
X160962200Y-77920000D02*
X166042200Y-77920000D01*
X180011000Y-65920000D02*
X185091000Y-65920000D01*
X199059800Y-59920000D02*
X204139800Y-59920000D01*
X218108600Y-65420000D02*
X223188600Y-65420000D01*
X178042200Y-65920000D02*
X180011000Y-65920000D01*
X182551000Y-76900000D02*
X172937700Y-76900000D01*
X171587350Y-75549650D02*
X171587350Y-72374850D01*
X172937700Y-76900000D02*
X171587350Y-75549650D01*
X171587350Y-72374850D02*
X178042200Y-65920000D01*
X166042200Y-77920000D02*
X171587350Y-72374850D01*
X161591900Y-100710600D02*
X161591900Y-93979500D01*
X163502200Y-92069200D02*
X163502200Y-88900000D01*
X161591900Y-93979500D02*
X163502200Y-92069200D01*
X157766663Y-77920000D02*
X160962200Y-77920000D01*
X153977800Y-81708863D02*
X157766663Y-77920000D01*
X153977800Y-86513300D02*
X153977800Y-81708863D01*
X156358900Y-88894400D02*
X153977800Y-86513300D01*
X163496600Y-88894400D02*
X156358900Y-88894400D01*
X163502200Y-88900000D02*
X163496600Y-88894400D01*
X191091000Y-59920000D02*
X199059800Y-59920000D01*
X185091000Y-65920000D02*
X191091000Y-59920000D01*
X212608600Y-59920000D02*
X218108600Y-65420000D01*
X204139800Y-59920000D02*
X212608600Y-59920000D01*
X195599800Y-76900000D02*
X182551000Y-76900000D01*
X201599800Y-70900000D02*
X195599800Y-76900000D01*
X207099800Y-76400000D02*
X220648600Y-76400000D01*
X201599800Y-70900000D02*
X207099800Y-76400000D01*
X220648600Y-76400000D02*
X231171500Y-76400000D01*
X244212495Y-89440995D02*
X244212495Y-118830591D01*
X231171500Y-76400000D02*
X244212495Y-89440995D01*
X246047000Y-119848700D02*
X248611905Y-121370591D01*
X244212495Y-118830591D02*
X246047000Y-119848700D01*
X244654250Y-133341600D02*
X240922200Y-129609550D01*
X248428100Y-133341600D02*
X244654250Y-133341600D01*
X252396600Y-129373100D02*
X248428100Y-133341600D01*
X252396600Y-125155286D02*
X252396600Y-129373100D01*
X248611905Y-121370591D02*
X252396600Y-125155286D01*
%TO.N,Net-(U1-Pad1)*%
X240818273Y-73347573D02*
X240818273Y-68590414D01*
X243597313Y-76126613D02*
X240818273Y-73347573D01*
X246095177Y-76126613D02*
X243597313Y-76126613D01*
%TO.N,Net-(U2-Pad24)*%
X134847645Y-108024555D02*
X134847645Y-102009415D01*
X133651900Y-109220300D02*
X134847645Y-108024555D01*
X133651900Y-115950600D02*
X133651900Y-109220300D01*
%TD*%
%TO.N,ground*%
G36*
X216690944Y-52660589D02*
G01*
X220945640Y-52818360D01*
X225192169Y-53124516D01*
X229425470Y-53578693D01*
X233640327Y-54180330D01*
X237831597Y-54928693D01*
X241994247Y-55822885D01*
X246124775Y-56862214D01*
X248808716Y-57622889D01*
X250786534Y-59904236D01*
X252767031Y-62418859D01*
X254626865Y-65023971D01*
X256361911Y-67713792D01*
X257968326Y-70482365D01*
X259442546Y-73323546D01*
X260781287Y-76231011D01*
X261981585Y-79198319D01*
X263040763Y-82218854D01*
X263956490Y-85285966D01*
X264726712Y-88392778D01*
X265349727Y-91532424D01*
X265824155Y-94697939D01*
X266148942Y-97882317D01*
X266323362Y-101078409D01*
X266347032Y-104279209D01*
X266219898Y-107477549D01*
X265942241Y-110666362D01*
X265514681Y-113838540D01*
X264938165Y-116987061D01*
X264213969Y-120104949D01*
X263343710Y-123185240D01*
X262329313Y-126221123D01*
X261173034Y-129205848D01*
X259877437Y-132132794D01*
X258445400Y-134995463D01*
X256878085Y-137791093D01*
X256244717Y-138834422D01*
X251372927Y-139855153D01*
X246201856Y-140788684D01*
X241006711Y-141577471D01*
X235791563Y-142220893D01*
X230560468Y-142718450D01*
X225317599Y-143069748D01*
X220066883Y-143274522D01*
X214812509Y-143332607D01*
X209558598Y-143243961D01*
X204309193Y-143008649D01*
X199068376Y-142626856D01*
X193840288Y-142098881D01*
X188628994Y-141425138D01*
X183438543Y-140606149D01*
X178272935Y-139642544D01*
X173136282Y-138535090D01*
X168032585Y-137284652D01*
X162965730Y-135892181D01*
X157939770Y-134358791D01*
X156443105Y-133856077D01*
X229719100Y-133856077D01*
X229719100Y-134414523D01*
X229828048Y-134962239D01*
X230041756Y-135478176D01*
X230352012Y-135942507D01*
X230746893Y-136337388D01*
X231211224Y-136647644D01*
X231727161Y-136861352D01*
X232274877Y-136970300D01*
X232833323Y-136970300D01*
X233381039Y-136861352D01*
X233896976Y-136647644D01*
X234361307Y-136337388D01*
X234756188Y-135942507D01*
X235066444Y-135478176D01*
X235280152Y-134962239D01*
X235389100Y-134414523D01*
X235389100Y-133856077D01*
X235280152Y-133308361D01*
X235066444Y-132792424D01*
X234756188Y-132328093D01*
X234361307Y-131933212D01*
X233896976Y-131622956D01*
X233381039Y-131409248D01*
X232833323Y-131300300D01*
X232274877Y-131300300D01*
X231727161Y-131409248D01*
X231211224Y-131622956D01*
X230746893Y-131933212D01*
X230352012Y-132328093D01*
X230041756Y-132792424D01*
X229828048Y-133308361D01*
X229719100Y-133856077D01*
X156443105Y-133856077D01*
X152958570Y-132685659D01*
X148026041Y-130874102D01*
X143146007Y-128925523D01*
X138322270Y-126841438D01*
X133556309Y-124622411D01*
X131883731Y-123802591D01*
X131664181Y-100573008D01*
X132254900Y-100573008D01*
X132254900Y-100848192D01*
X132308586Y-101118090D01*
X132413895Y-101372327D01*
X132566780Y-101601135D01*
X132761365Y-101795720D01*
X132990173Y-101948605D01*
X133244410Y-102053914D01*
X133450645Y-102094937D01*
X133450645Y-102147007D01*
X133504331Y-102416905D01*
X133609640Y-102671142D01*
X133762525Y-102899950D01*
X133957110Y-103094535D01*
X134085646Y-103180420D01*
X134085645Y-107708924D01*
X133139549Y-108655021D01*
X133110479Y-108678878D01*
X133086622Y-108707948D01*
X133086621Y-108707949D01*
X133015255Y-108794908D01*
X132944499Y-108927285D01*
X132900927Y-109070922D01*
X132886214Y-109220300D01*
X132889901Y-109257733D01*
X132889900Y-114779595D01*
X132761365Y-114865480D01*
X132566780Y-115060065D01*
X132413895Y-115288873D01*
X132308586Y-115543110D01*
X132254900Y-115813008D01*
X132254900Y-116088192D01*
X132308586Y-116358090D01*
X132413895Y-116612327D01*
X132566780Y-116841135D01*
X132761365Y-117035720D01*
X132990173Y-117188605D01*
X133244410Y-117293914D01*
X133450645Y-117334937D01*
X133450645Y-117387007D01*
X133504331Y-117656905D01*
X133609640Y-117911142D01*
X133762525Y-118139950D01*
X133957110Y-118334535D01*
X134185918Y-118487420D01*
X134440155Y-118592729D01*
X134710053Y-118646415D01*
X134985237Y-118646415D01*
X135255135Y-118592729D01*
X135509372Y-118487420D01*
X135738180Y-118334535D01*
X135932765Y-118139950D01*
X136085650Y-117911142D01*
X136117645Y-117833900D01*
X136149640Y-117911142D01*
X136302525Y-118139950D01*
X136497110Y-118334535D01*
X136725918Y-118487420D01*
X136980155Y-118592729D01*
X137250053Y-118646415D01*
X137525237Y-118646415D01*
X137795135Y-118592729D01*
X138049372Y-118487420D01*
X138278180Y-118334535D01*
X138397735Y-118214980D01*
X139141685Y-118214980D01*
X139208665Y-118455071D01*
X139457693Y-118572171D01*
X139724780Y-118638438D01*
X139999662Y-118651325D01*
X140271778Y-118610337D01*
X140530668Y-118517051D01*
X140646625Y-118455071D01*
X140713605Y-118214980D01*
X141681685Y-118214980D01*
X141748665Y-118455071D01*
X141997693Y-118572171D01*
X142264780Y-118638438D01*
X142539662Y-118651325D01*
X142811778Y-118610337D01*
X143070668Y-118517051D01*
X143186625Y-118455071D01*
X143253605Y-118214980D01*
X142467645Y-117429020D01*
X141681685Y-118214980D01*
X140713605Y-118214980D01*
X139927645Y-117429020D01*
X139141685Y-118214980D01*
X138397735Y-118214980D01*
X138472765Y-118139950D01*
X138625650Y-117911142D01*
X138655337Y-117839472D01*
X138660009Y-117852438D01*
X138721989Y-117968395D01*
X138962080Y-118035375D01*
X139748040Y-117249415D01*
X139733898Y-117235273D01*
X139913503Y-117055668D01*
X139927645Y-117069810D01*
X139941788Y-117055668D01*
X140121393Y-117235273D01*
X140107250Y-117249415D01*
X140893210Y-118035375D01*
X141133301Y-117968395D01*
X141194724Y-117837771D01*
X141200009Y-117852438D01*
X141261989Y-117968395D01*
X141502080Y-118035375D01*
X142288040Y-117249415D01*
X142273898Y-117235273D01*
X142453503Y-117055668D01*
X142467645Y-117069810D01*
X142481788Y-117055668D01*
X142661393Y-117235273D01*
X142647250Y-117249415D01*
X143433210Y-118035375D01*
X143673301Y-117968395D01*
X143737130Y-117832655D01*
X143769640Y-117911142D01*
X143922525Y-118139950D01*
X144117110Y-118334535D01*
X144345918Y-118487420D01*
X144600155Y-118592729D01*
X144870053Y-118646415D01*
X145145237Y-118646415D01*
X145415135Y-118592729D01*
X145669372Y-118487420D01*
X145898180Y-118334535D01*
X146092765Y-118139950D01*
X146245650Y-117911142D01*
X146277645Y-117833900D01*
X146309640Y-117911142D01*
X146462525Y-118139950D01*
X146657110Y-118334535D01*
X146885918Y-118487420D01*
X147140155Y-118592729D01*
X147410053Y-118646415D01*
X147685237Y-118646415D01*
X147955135Y-118592729D01*
X148209372Y-118487420D01*
X148438180Y-118334535D01*
X148632765Y-118139950D01*
X148785650Y-117911142D01*
X148817645Y-117833900D01*
X148849640Y-117911142D01*
X149002525Y-118139950D01*
X149197110Y-118334535D01*
X149425918Y-118487420D01*
X149680155Y-118592729D01*
X149950053Y-118646415D01*
X150225237Y-118646415D01*
X150495135Y-118592729D01*
X150749372Y-118487420D01*
X150978180Y-118334535D01*
X151172765Y-118139950D01*
X151325650Y-117911142D01*
X151357645Y-117833900D01*
X151389640Y-117911142D01*
X151542525Y-118139950D01*
X151737110Y-118334535D01*
X151965918Y-118487420D01*
X152220155Y-118592729D01*
X152490053Y-118646415D01*
X152765237Y-118646415D01*
X153035135Y-118592729D01*
X153289372Y-118487420D01*
X153518180Y-118334535D01*
X153712765Y-118139950D01*
X153865650Y-117911142D01*
X153897645Y-117833900D01*
X153929640Y-117911142D01*
X154082525Y-118139950D01*
X154277110Y-118334535D01*
X154377468Y-118401593D01*
X154346108Y-118418355D01*
X154230078Y-118513578D01*
X154206221Y-118542648D01*
X149172970Y-123575900D01*
X149113661Y-123575900D01*
X148913702Y-123615674D01*
X148725344Y-123693695D01*
X148555826Y-123806963D01*
X148411663Y-123951126D01*
X148298395Y-124120644D01*
X148220374Y-124309002D01*
X148180600Y-124508961D01*
X148180600Y-124712839D01*
X148220374Y-124912798D01*
X148298395Y-125101156D01*
X148411663Y-125270674D01*
X148555826Y-125414837D01*
X148725344Y-125528105D01*
X148913702Y-125606126D01*
X149113661Y-125645900D01*
X149317539Y-125645900D01*
X149517498Y-125606126D01*
X149705856Y-125528105D01*
X149875374Y-125414837D01*
X149980263Y-125309948D01*
X235649571Y-125309948D01*
X235702033Y-125627714D01*
X235815482Y-125929139D01*
X235985555Y-126202638D01*
X236205717Y-126437704D01*
X236401903Y-126578288D01*
X236974036Y-126908610D01*
X237193879Y-127008220D01*
X237507531Y-127081354D01*
X237829425Y-127091892D01*
X238147191Y-127039429D01*
X238448616Y-126925981D01*
X238722115Y-126755908D01*
X238957180Y-126535746D01*
X239144777Y-126273955D01*
X239277697Y-125980596D01*
X239350831Y-125666942D01*
X239361369Y-125345049D01*
X239308906Y-125027284D01*
X239195458Y-124725859D01*
X239025385Y-124452359D01*
X238826935Y-124240475D01*
X241237200Y-124240475D01*
X241237200Y-124759525D01*
X241338461Y-125268601D01*
X241537093Y-125748141D01*
X241825462Y-126179715D01*
X242192485Y-126546738D01*
X242624059Y-126835107D01*
X243103599Y-127033739D01*
X243612675Y-127135000D01*
X244131725Y-127135000D01*
X244640801Y-127033739D01*
X245120341Y-126835107D01*
X245551915Y-126546738D01*
X245918938Y-126179715D01*
X246207307Y-125748141D01*
X246405939Y-125268601D01*
X246507200Y-124759525D01*
X246507200Y-124240475D01*
X246405939Y-123731399D01*
X246207307Y-123251859D01*
X245918938Y-122820285D01*
X245551915Y-122453262D01*
X245120341Y-122164893D01*
X244640801Y-121966261D01*
X244131725Y-121865000D01*
X243612675Y-121865000D01*
X243103599Y-121966261D01*
X242624059Y-122164893D01*
X242192485Y-122453262D01*
X241825462Y-122820285D01*
X241537093Y-123251859D01*
X241338461Y-123731399D01*
X241237200Y-124240475D01*
X238826935Y-124240475D01*
X238805223Y-124217294D01*
X238609037Y-124076709D01*
X238036904Y-123746387D01*
X237817061Y-123646778D01*
X237503407Y-123573644D01*
X237181515Y-123563106D01*
X236863749Y-123615568D01*
X236562324Y-123729017D01*
X236288825Y-123899090D01*
X236053759Y-124119252D01*
X235866162Y-124381043D01*
X235733243Y-124674402D01*
X235660109Y-124988056D01*
X235649571Y-125309948D01*
X149980263Y-125309948D01*
X150019537Y-125270674D01*
X150132805Y-125101156D01*
X150210826Y-124912798D01*
X150250600Y-124712839D01*
X150250600Y-124653530D01*
X154181610Y-120722521D01*
X154228943Y-120769854D01*
X154398461Y-120883122D01*
X154586819Y-120961143D01*
X154786778Y-121000917D01*
X154990656Y-121000917D01*
X155190615Y-120961143D01*
X155378973Y-120883122D01*
X155548491Y-120769854D01*
X155590428Y-120727917D01*
X189183360Y-120727917D01*
X189220783Y-120731603D01*
X189258206Y-120727917D01*
X189258209Y-120727917D01*
X189370161Y-120716891D01*
X189513798Y-120673319D01*
X189646175Y-120602562D01*
X189762205Y-120507339D01*
X189786067Y-120478263D01*
X190103030Y-120161300D01*
X219185328Y-120161300D01*
X219197588Y-120285782D01*
X219233898Y-120405480D01*
X219292863Y-120515794D01*
X219372215Y-120612485D01*
X219468906Y-120691837D01*
X219579220Y-120750802D01*
X219698918Y-120787112D01*
X219823400Y-120799372D01*
X220387650Y-120796300D01*
X220546400Y-120637550D01*
X220546400Y-119788300D01*
X220800400Y-119788300D01*
X220800400Y-120637550D01*
X220959150Y-120796300D01*
X221523400Y-120799372D01*
X221647882Y-120787112D01*
X221767580Y-120750802D01*
X221877894Y-120691837D01*
X221974585Y-120612485D01*
X222053937Y-120515794D01*
X222112902Y-120405480D01*
X222149212Y-120285782D01*
X222161472Y-120161300D01*
X225485328Y-120161300D01*
X225497588Y-120285782D01*
X225533898Y-120405480D01*
X225592863Y-120515794D01*
X225672215Y-120612485D01*
X225768906Y-120691837D01*
X225879220Y-120750802D01*
X225998918Y-120787112D01*
X226123400Y-120799372D01*
X226687650Y-120796300D01*
X226846400Y-120637550D01*
X226846400Y-119788300D01*
X227100400Y-119788300D01*
X227100400Y-120637550D01*
X227259150Y-120796300D01*
X227823400Y-120799372D01*
X227947882Y-120787112D01*
X228067580Y-120750802D01*
X228177894Y-120691837D01*
X228274585Y-120612485D01*
X228353937Y-120515794D01*
X228412902Y-120405480D01*
X228449212Y-120285782D01*
X228461472Y-120161300D01*
X228458400Y-119947050D01*
X228299650Y-119788300D01*
X227100400Y-119788300D01*
X226846400Y-119788300D01*
X225647150Y-119788300D01*
X225488400Y-119947050D01*
X225485328Y-120161300D01*
X222161472Y-120161300D01*
X222158400Y-119947050D01*
X221999650Y-119788300D01*
X220800400Y-119788300D01*
X220546400Y-119788300D01*
X219347150Y-119788300D01*
X219188400Y-119947050D01*
X219185328Y-120161300D01*
X190103030Y-120161300D01*
X191103030Y-119161300D01*
X219185328Y-119161300D01*
X219188400Y-119375550D01*
X219347150Y-119534300D01*
X220546400Y-119534300D01*
X220546400Y-118685050D01*
X220800400Y-118685050D01*
X220800400Y-119534300D01*
X221999650Y-119534300D01*
X222158400Y-119375550D01*
X222161472Y-119161300D01*
X225485328Y-119161300D01*
X225488400Y-119375550D01*
X225647150Y-119534300D01*
X226846400Y-119534300D01*
X226846400Y-118685050D01*
X227100400Y-118685050D01*
X227100400Y-119534300D01*
X228299650Y-119534300D01*
X228458400Y-119375550D01*
X228461472Y-119161300D01*
X228449212Y-119036818D01*
X228412902Y-118917120D01*
X228353937Y-118806806D01*
X228274585Y-118710115D01*
X228177894Y-118630763D01*
X228067580Y-118571798D01*
X227947882Y-118535488D01*
X227823400Y-118523228D01*
X227259150Y-118526300D01*
X227100400Y-118685050D01*
X226846400Y-118685050D01*
X226687650Y-118526300D01*
X226123400Y-118523228D01*
X225998918Y-118535488D01*
X225879220Y-118571798D01*
X225768906Y-118630763D01*
X225672215Y-118710115D01*
X225592863Y-118806806D01*
X225533898Y-118917120D01*
X225497588Y-119036818D01*
X225485328Y-119161300D01*
X222161472Y-119161300D01*
X222149212Y-119036818D01*
X222112902Y-118917120D01*
X222053937Y-118806806D01*
X221974585Y-118710115D01*
X221877894Y-118630763D01*
X221767580Y-118571798D01*
X221647882Y-118535488D01*
X221523400Y-118523228D01*
X220959150Y-118526300D01*
X220800400Y-118685050D01*
X220546400Y-118685050D01*
X220387650Y-118526300D01*
X219823400Y-118523228D01*
X219698918Y-118535488D01*
X219579220Y-118571798D01*
X219468906Y-118630763D01*
X219372215Y-118710115D01*
X219292863Y-118806806D01*
X219233898Y-118917120D01*
X219197588Y-119036818D01*
X219185328Y-119161300D01*
X191103030Y-119161300D01*
X194903030Y-115361300D01*
X219185328Y-115361300D01*
X219185328Y-116361300D01*
X219197588Y-116485782D01*
X219233898Y-116605480D01*
X219292863Y-116715794D01*
X219372215Y-116812485D01*
X219468906Y-116891837D01*
X219579220Y-116950802D01*
X219698918Y-116987112D01*
X219823400Y-116999372D01*
X221523400Y-116999372D01*
X221647882Y-116987112D01*
X221767580Y-116950802D01*
X221877894Y-116891837D01*
X221974585Y-116812485D01*
X222053937Y-116715794D01*
X222103377Y-116623300D01*
X223140589Y-116623300D01*
X223182526Y-116665237D01*
X223352044Y-116778505D01*
X223540402Y-116856526D01*
X223740361Y-116896300D01*
X223944239Y-116896300D01*
X224144198Y-116856526D01*
X224332556Y-116778505D01*
X224502074Y-116665237D01*
X224544011Y-116623300D01*
X225543423Y-116623300D01*
X225592863Y-116715794D01*
X225672215Y-116812485D01*
X225768906Y-116891837D01*
X225879220Y-116950802D01*
X225998918Y-116987112D01*
X226123400Y-116999372D01*
X227823400Y-116999372D01*
X227947882Y-116987112D01*
X228067580Y-116950802D01*
X228177894Y-116891837D01*
X228274585Y-116812485D01*
X228353937Y-116715794D01*
X228412902Y-116605480D01*
X228449212Y-116485782D01*
X228461472Y-116361300D01*
X228461472Y-115361300D01*
X228449212Y-115236818D01*
X228412902Y-115117120D01*
X228353937Y-115006806D01*
X228274585Y-114910115D01*
X228177894Y-114830763D01*
X228067580Y-114771798D01*
X227947882Y-114735488D01*
X227823400Y-114723228D01*
X226123400Y-114723228D01*
X225998918Y-114735488D01*
X225879220Y-114771798D01*
X225768906Y-114830763D01*
X225672215Y-114910115D01*
X225592863Y-115006806D01*
X225543423Y-115099300D01*
X224544011Y-115099300D01*
X224502074Y-115057363D01*
X224332556Y-114944095D01*
X224144198Y-114866074D01*
X223944239Y-114826300D01*
X223740361Y-114826300D01*
X223540402Y-114866074D01*
X223352044Y-114944095D01*
X223182526Y-115057363D01*
X223140589Y-115099300D01*
X222103377Y-115099300D01*
X222053937Y-115006806D01*
X221974585Y-114910115D01*
X221877894Y-114830763D01*
X221767580Y-114771798D01*
X221647882Y-114735488D01*
X221523400Y-114723228D01*
X219823400Y-114723228D01*
X219698918Y-114735488D01*
X219579220Y-114771798D01*
X219468906Y-114830763D01*
X219372215Y-114910115D01*
X219292863Y-115006806D01*
X219233898Y-115117120D01*
X219197588Y-115236818D01*
X219185328Y-115361300D01*
X194903030Y-115361300D01*
X208133230Y-102131100D01*
X222035328Y-102131100D01*
X222047588Y-102255582D01*
X222083898Y-102375280D01*
X222142863Y-102485594D01*
X222222215Y-102582285D01*
X222318906Y-102661637D01*
X222429220Y-102720602D01*
X222548918Y-102756912D01*
X222673400Y-102769172D01*
X222887650Y-102766100D01*
X223046400Y-102607350D01*
X223046400Y-101508100D01*
X222197150Y-101508100D01*
X222038400Y-101666850D01*
X222035328Y-102131100D01*
X208133230Y-102131100D01*
X209633230Y-100631100D01*
X222035328Y-100631100D01*
X222038400Y-101095350D01*
X222197150Y-101254100D01*
X223046400Y-101254100D01*
X223046400Y-100154850D01*
X222887650Y-99996100D01*
X222673400Y-99993028D01*
X222548918Y-100005288D01*
X222429220Y-100041598D01*
X222318906Y-100100563D01*
X222222215Y-100179915D01*
X222142863Y-100276606D01*
X222083898Y-100386920D01*
X222047588Y-100506618D01*
X222035328Y-100631100D01*
X209633230Y-100631100D01*
X210988681Y-99275650D01*
X211047989Y-99275650D01*
X211247948Y-99235876D01*
X211436306Y-99157855D01*
X211605824Y-99044587D01*
X211749987Y-98900424D01*
X211863255Y-98730906D01*
X211941276Y-98542548D01*
X211981050Y-98342589D01*
X211981050Y-98283280D01*
X214758331Y-95506000D01*
X216584287Y-95506000D01*
X216556595Y-95547444D01*
X216478574Y-95735802D01*
X216438800Y-95935761D01*
X216438800Y-96139639D01*
X216478574Y-96339598D01*
X216556595Y-96527956D01*
X216669863Y-96697474D01*
X216814026Y-96841637D01*
X216983544Y-96954905D01*
X217171902Y-97032926D01*
X217333796Y-97065129D01*
X218742506Y-98473839D01*
X218768359Y-98505341D01*
X218813696Y-98542548D01*
X218894057Y-98608499D01*
X219001712Y-98666042D01*
X219037466Y-98685153D01*
X219193074Y-98732356D01*
X219314347Y-98744300D01*
X219314349Y-98744300D01*
X219354899Y-98748294D01*
X219395450Y-98744300D01*
X222042764Y-98744300D01*
X222047588Y-98793282D01*
X222083898Y-98912980D01*
X222142863Y-99023294D01*
X222222215Y-99119985D01*
X222318906Y-99199337D01*
X222429220Y-99258302D01*
X222548918Y-99294612D01*
X222673400Y-99306872D01*
X223673400Y-99306872D01*
X223797882Y-99294612D01*
X223823400Y-99286871D01*
X223848918Y-99294612D01*
X223973400Y-99306872D01*
X224973400Y-99306872D01*
X225097882Y-99294612D01*
X225217580Y-99258302D01*
X225327894Y-99199337D01*
X225424585Y-99119985D01*
X225503937Y-99023294D01*
X225562902Y-98912980D01*
X225599212Y-98793282D01*
X225610290Y-98680800D01*
X231582312Y-98680800D01*
X231685958Y-98736200D01*
X231552999Y-98807268D01*
X231334492Y-98986592D01*
X231155168Y-99205099D01*
X231021918Y-99454392D01*
X230939864Y-99724891D01*
X230912157Y-100006200D01*
X230939864Y-100287509D01*
X230999282Y-100483387D01*
X230863570Y-100619100D01*
X225610290Y-100619100D01*
X225599212Y-100506618D01*
X225562902Y-100386920D01*
X225503937Y-100276606D01*
X225424585Y-100179915D01*
X225327894Y-100100563D01*
X225217580Y-100041598D01*
X225097882Y-100005288D01*
X224973400Y-99993028D01*
X223973400Y-99993028D01*
X223848918Y-100005288D01*
X223823400Y-100013029D01*
X223797882Y-100005288D01*
X223673400Y-99993028D01*
X223459150Y-99996100D01*
X223300400Y-100154850D01*
X223300400Y-101254100D01*
X223320400Y-101254100D01*
X223320400Y-101508100D01*
X223300400Y-101508100D01*
X223300400Y-102607350D01*
X223459150Y-102766100D01*
X223673400Y-102769172D01*
X223797882Y-102756912D01*
X223823400Y-102749171D01*
X223848918Y-102756912D01*
X223973400Y-102769172D01*
X224973400Y-102769172D01*
X225097882Y-102756912D01*
X225217580Y-102720602D01*
X225327894Y-102661637D01*
X225424585Y-102582285D01*
X225503937Y-102485594D01*
X225562902Y-102375280D01*
X225599212Y-102255582D01*
X225610290Y-102143100D01*
X231141777Y-102143100D01*
X231179200Y-102146786D01*
X231216623Y-102143100D01*
X231216626Y-102143100D01*
X231328578Y-102132074D01*
X231472215Y-102088502D01*
X231604592Y-102017745D01*
X231720622Y-101922522D01*
X231744484Y-101893446D01*
X232204520Y-101433410D01*
X232283608Y-101441200D01*
X232824592Y-101441200D01*
X233035409Y-101420436D01*
X233305908Y-101338382D01*
X233555201Y-101205132D01*
X233773708Y-101025808D01*
X233953032Y-100807301D01*
X234086282Y-100558008D01*
X234168336Y-100287509D01*
X234196043Y-100006200D01*
X234168336Y-99724891D01*
X234086282Y-99454392D01*
X233953032Y-99205099D01*
X233773708Y-98986592D01*
X233555201Y-98807268D01*
X233422242Y-98736200D01*
X233555201Y-98665132D01*
X233773708Y-98485808D01*
X233953032Y-98267301D01*
X234086282Y-98018008D01*
X234168336Y-97747509D01*
X234196043Y-97466200D01*
X234168336Y-97184891D01*
X234086282Y-96914392D01*
X233953032Y-96665099D01*
X233773708Y-96446592D01*
X233555201Y-96267268D01*
X233422242Y-96196200D01*
X233555201Y-96125132D01*
X233773708Y-95945808D01*
X233953032Y-95727301D01*
X234086282Y-95478008D01*
X234168336Y-95207509D01*
X234196043Y-94926200D01*
X234168336Y-94644891D01*
X234086282Y-94374392D01*
X233953032Y-94125099D01*
X233773708Y-93906592D01*
X233555201Y-93727268D01*
X233422242Y-93656200D01*
X233555201Y-93585132D01*
X233773708Y-93405808D01*
X233953032Y-93187301D01*
X234086282Y-92938008D01*
X234168336Y-92667509D01*
X234196043Y-92386200D01*
X234168336Y-92104891D01*
X234086282Y-91834392D01*
X233953032Y-91585099D01*
X233773708Y-91366592D01*
X233555201Y-91187268D01*
X233305908Y-91054018D01*
X233035409Y-90971964D01*
X232824592Y-90951200D01*
X232283608Y-90951200D01*
X232195755Y-90959853D01*
X232162492Y-90932555D01*
X232030115Y-90861798D01*
X231886478Y-90818226D01*
X231774526Y-90807200D01*
X231774523Y-90807200D01*
X231737100Y-90803514D01*
X231699677Y-90807200D01*
X225610290Y-90807200D01*
X225599212Y-90694718D01*
X225562902Y-90575020D01*
X225503937Y-90464706D01*
X225424585Y-90368015D01*
X225327894Y-90288663D01*
X225217580Y-90229698D01*
X225097882Y-90193388D01*
X224973400Y-90181128D01*
X223973400Y-90181128D01*
X223848918Y-90193388D01*
X223823400Y-90201129D01*
X223797882Y-90193388D01*
X223673400Y-90181128D01*
X222673400Y-90181128D01*
X222548918Y-90193388D01*
X222429220Y-90229698D01*
X222318906Y-90288663D01*
X222222215Y-90368015D01*
X222142863Y-90464706D01*
X222083898Y-90575020D01*
X222047588Y-90694718D01*
X222036510Y-90807200D01*
X214480122Y-90807200D01*
X214442699Y-90803514D01*
X214405276Y-90807200D01*
X214405274Y-90807200D01*
X214293322Y-90818226D01*
X214149685Y-90861798D01*
X214017308Y-90932555D01*
X213901278Y-91027778D01*
X213877421Y-91056848D01*
X204553820Y-100380450D01*
X204494511Y-100380450D01*
X204294552Y-100420224D01*
X204106194Y-100498245D01*
X203936676Y-100611513D01*
X203792513Y-100755676D01*
X203679245Y-100925194D01*
X203601224Y-101113552D01*
X203561450Y-101313511D01*
X203561450Y-101372819D01*
X186641270Y-118293000D01*
X163719715Y-118293000D01*
X163872765Y-118139950D01*
X164025650Y-117911142D01*
X164130959Y-117656905D01*
X164184645Y-117387007D01*
X164184645Y-117111823D01*
X164130959Y-116841925D01*
X164025650Y-116587688D01*
X163872765Y-116358880D01*
X163678180Y-116164295D01*
X163449372Y-116011410D01*
X163195135Y-115906101D01*
X162988900Y-115865078D01*
X162988900Y-115813008D01*
X162935214Y-115543110D01*
X162829905Y-115288873D01*
X162677020Y-115060065D01*
X162482435Y-114865480D01*
X162353900Y-114779595D01*
X162353900Y-110169130D01*
X163299997Y-109223034D01*
X163329067Y-109199177D01*
X163356417Y-109165851D01*
X163424290Y-109083148D01*
X163473501Y-108991079D01*
X163495047Y-108950770D01*
X163538619Y-108807133D01*
X163549645Y-108695181D01*
X163549645Y-108695178D01*
X163553331Y-108657755D01*
X163549645Y-108620332D01*
X163549645Y-103180420D01*
X163678180Y-103094535D01*
X163872765Y-102899950D01*
X164025650Y-102671142D01*
X164130959Y-102416905D01*
X164184645Y-102147007D01*
X164184645Y-101871823D01*
X164130959Y-101601925D01*
X164025650Y-101347688D01*
X163872765Y-101118880D01*
X163678180Y-100924295D01*
X163449372Y-100771410D01*
X163195135Y-100666101D01*
X162988900Y-100625078D01*
X162988900Y-100573008D01*
X162935214Y-100303110D01*
X162829905Y-100048873D01*
X162677020Y-99820065D01*
X162482435Y-99625480D01*
X162353900Y-99539595D01*
X162353900Y-94295130D01*
X164014553Y-92634478D01*
X164043622Y-92610622D01*
X164138845Y-92494592D01*
X164209602Y-92362215D01*
X164253174Y-92218578D01*
X164264200Y-92106626D01*
X164264200Y-92106624D01*
X164267886Y-92069201D01*
X164264200Y-92031778D01*
X164264200Y-90453257D01*
X164380915Y-90417852D01*
X164664952Y-90266031D01*
X164913914Y-90061714D01*
X165118231Y-89812752D01*
X165270052Y-89528715D01*
X165363543Y-89220516D01*
X165395111Y-88900000D01*
X165363543Y-88579484D01*
X165270052Y-88271285D01*
X165118231Y-87987248D01*
X164913914Y-87738286D01*
X164664952Y-87533969D01*
X164380915Y-87382148D01*
X164072716Y-87288657D01*
X163832522Y-87265000D01*
X163171878Y-87265000D01*
X162931684Y-87288657D01*
X162623485Y-87382148D01*
X162339448Y-87533969D01*
X162090486Y-87738286D01*
X161886169Y-87987248D01*
X161808584Y-88132400D01*
X159727783Y-88132400D01*
X159813914Y-88061714D01*
X160018231Y-87812752D01*
X160170052Y-87528715D01*
X160263543Y-87220516D01*
X160295111Y-86900000D01*
X166709289Y-86900000D01*
X166740857Y-87220516D01*
X166834348Y-87528715D01*
X166986169Y-87812752D01*
X167190486Y-88061714D01*
X167439448Y-88266031D01*
X167723485Y-88417852D01*
X168031684Y-88511343D01*
X168271878Y-88535000D01*
X168932522Y-88535000D01*
X169172716Y-88511343D01*
X169480915Y-88417852D01*
X169764952Y-88266031D01*
X170013914Y-88061714D01*
X170218231Y-87812752D01*
X170370052Y-87528715D01*
X170463543Y-87220516D01*
X170495111Y-86900000D01*
X170463543Y-86579484D01*
X170370052Y-86271285D01*
X170218231Y-85987248D01*
X170013914Y-85738286D01*
X169764952Y-85533969D01*
X169480915Y-85382148D01*
X169172716Y-85288657D01*
X168932522Y-85265000D01*
X168271878Y-85265000D01*
X168031684Y-85288657D01*
X167723485Y-85382148D01*
X167439448Y-85533969D01*
X167190486Y-85738286D01*
X166986169Y-85987248D01*
X166834348Y-86271285D01*
X166740857Y-86579484D01*
X166709289Y-86900000D01*
X160295111Y-86900000D01*
X160263543Y-86579484D01*
X160170052Y-86271285D01*
X160018231Y-85987248D01*
X159813914Y-85738286D01*
X159564952Y-85533969D01*
X159280915Y-85382148D01*
X158972716Y-85288657D01*
X158732522Y-85265000D01*
X158071878Y-85265000D01*
X157831684Y-85288657D01*
X157523485Y-85382148D01*
X157239448Y-85533969D01*
X156990486Y-85738286D01*
X156786169Y-85987248D01*
X156634348Y-86271285D01*
X156540857Y-86579484D01*
X156509289Y-86900000D01*
X156540857Y-87220516D01*
X156634348Y-87528715D01*
X156786169Y-87812752D01*
X156990486Y-88061714D01*
X157076617Y-88132400D01*
X156674531Y-88132400D01*
X154739800Y-86197670D01*
X154739800Y-82024493D01*
X158082294Y-78682000D01*
X159265590Y-78682000D01*
X159343018Y-78826858D01*
X159121684Y-78848657D01*
X158813485Y-78942148D01*
X158529448Y-79093969D01*
X158280486Y-79298286D01*
X158076169Y-79547248D01*
X157924348Y-79831285D01*
X157830857Y-80139484D01*
X157799289Y-80460000D01*
X157830857Y-80780516D01*
X157924348Y-81088715D01*
X158045300Y-81315000D01*
X157836242Y-81315000D01*
X157510704Y-81379754D01*
X157204053Y-81506772D01*
X156928075Y-81691175D01*
X156693375Y-81925875D01*
X156508972Y-82201853D01*
X156381954Y-82508504D01*
X156317200Y-82834042D01*
X156317200Y-83165958D01*
X156381954Y-83491496D01*
X156508972Y-83798147D01*
X156693375Y-84074125D01*
X156928075Y-84308825D01*
X157204053Y-84493228D01*
X157510704Y-84620246D01*
X157836242Y-84685000D01*
X158168158Y-84685000D01*
X158493696Y-84620246D01*
X158579231Y-84584817D01*
X158884527Y-84524089D01*
X159172979Y-84404609D01*
X159432579Y-84231150D01*
X159653350Y-84010379D01*
X159826809Y-83750779D01*
X159946289Y-83462327D01*
X160007200Y-83156109D01*
X160007200Y-82843891D01*
X159986630Y-82740475D01*
X160867200Y-82740475D01*
X160867200Y-83259525D01*
X160968461Y-83768601D01*
X161167093Y-84248141D01*
X161455462Y-84679715D01*
X161822485Y-85046738D01*
X162254059Y-85335107D01*
X162733599Y-85533739D01*
X163242675Y-85635000D01*
X163761725Y-85635000D01*
X164270801Y-85533739D01*
X164750341Y-85335107D01*
X165181915Y-85046738D01*
X165548938Y-84679715D01*
X165837307Y-84248141D01*
X166035939Y-83768601D01*
X166137200Y-83259525D01*
X166137200Y-82740475D01*
X166035939Y-82231399D01*
X165837307Y-81751859D01*
X165548938Y-81320285D01*
X165181915Y-80953262D01*
X164750341Y-80664893D01*
X164270801Y-80466261D01*
X163761725Y-80365000D01*
X163242675Y-80365000D01*
X162733599Y-80466261D01*
X162254059Y-80664893D01*
X161822485Y-80953262D01*
X161455462Y-81320285D01*
X161167093Y-81751859D01*
X160968461Y-82231399D01*
X160867200Y-82740475D01*
X159986630Y-82740475D01*
X159946289Y-82537673D01*
X159826809Y-82249221D01*
X159723762Y-82095000D01*
X160022522Y-82095000D01*
X160262716Y-82071343D01*
X160570915Y-81977852D01*
X160854952Y-81826031D01*
X161103914Y-81621714D01*
X161308231Y-81372752D01*
X161460052Y-81088715D01*
X161553543Y-80780516D01*
X161585111Y-80460000D01*
X161553543Y-80139484D01*
X161460052Y-79831285D01*
X161311382Y-79553142D01*
X161532716Y-79531343D01*
X161840915Y-79437852D01*
X162124952Y-79286031D01*
X162373914Y-79081714D01*
X162578231Y-78832752D01*
X162658810Y-78682000D01*
X164345590Y-78682000D01*
X164426169Y-78832752D01*
X164630486Y-79081714D01*
X164879448Y-79286031D01*
X165163485Y-79437852D01*
X165471684Y-79531343D01*
X165693018Y-79553142D01*
X165544348Y-79831285D01*
X165450857Y-80139484D01*
X165419289Y-80460000D01*
X165450857Y-80780516D01*
X165544348Y-81088715D01*
X165696169Y-81372752D01*
X165900486Y-81621714D01*
X166149448Y-81826031D01*
X166433485Y-81977852D01*
X166741684Y-82071343D01*
X166981878Y-82095000D01*
X167280638Y-82095000D01*
X167177591Y-82249221D01*
X167058111Y-82537673D01*
X166997200Y-82843891D01*
X166997200Y-83156109D01*
X167058111Y-83462327D01*
X167177591Y-83750779D01*
X167351050Y-84010379D01*
X167571821Y-84231150D01*
X167831421Y-84404609D01*
X168119873Y-84524089D01*
X168425169Y-84584817D01*
X168510704Y-84620246D01*
X168836242Y-84685000D01*
X169168158Y-84685000D01*
X169493696Y-84620246D01*
X169800347Y-84493228D01*
X170076325Y-84308825D01*
X170311025Y-84074125D01*
X170495428Y-83798147D01*
X170622446Y-83491496D01*
X170687200Y-83165958D01*
X170687200Y-82834042D01*
X170622446Y-82508504D01*
X170495428Y-82201853D01*
X170311025Y-81925875D01*
X170076325Y-81691175D01*
X169800347Y-81506772D01*
X169493696Y-81379754D01*
X169168158Y-81315000D01*
X168959100Y-81315000D01*
X169080052Y-81088715D01*
X169173543Y-80780516D01*
X169205111Y-80460000D01*
X169173543Y-80139484D01*
X169080052Y-79831285D01*
X168928231Y-79547248D01*
X168723914Y-79298286D01*
X168474952Y-79093969D01*
X168190915Y-78942148D01*
X167882716Y-78848657D01*
X167661382Y-78826858D01*
X167810052Y-78548715D01*
X167903543Y-78240516D01*
X167935111Y-77920000D01*
X167903543Y-77599484D01*
X167810052Y-77291285D01*
X167788628Y-77251203D01*
X168226403Y-76813428D01*
X168254163Y-76854974D01*
X168398326Y-76999137D01*
X168567844Y-77112405D01*
X168756202Y-77190426D01*
X168918097Y-77222629D01*
X181938607Y-90243140D01*
X181964459Y-90274641D01*
X182028596Y-90327277D01*
X182090157Y-90377799D01*
X182220345Y-90447386D01*
X182233566Y-90454453D01*
X182389174Y-90501656D01*
X182510447Y-90513600D01*
X182510449Y-90513600D01*
X182550999Y-90517594D01*
X182591550Y-90513600D01*
X217639997Y-90513600D01*
X217777244Y-90605305D01*
X217965602Y-90683326D01*
X218165561Y-90723100D01*
X218369439Y-90723100D01*
X218569398Y-90683326D01*
X218757756Y-90605305D01*
X218927274Y-90492037D01*
X219071437Y-90347874D01*
X219184705Y-90178356D01*
X219262726Y-89989998D01*
X219294928Y-89828104D01*
X219984666Y-89138368D01*
X225789165Y-89138368D01*
X225926412Y-89230073D01*
X226114770Y-89308094D01*
X226314729Y-89347868D01*
X226518607Y-89347868D01*
X226718566Y-89308094D01*
X226906924Y-89230073D01*
X227076442Y-89116805D01*
X227220605Y-88972642D01*
X227333873Y-88803124D01*
X227411894Y-88614766D01*
X227451668Y-88414807D01*
X227451668Y-88210929D01*
X227411894Y-88010970D01*
X227333873Y-87822612D01*
X227220605Y-87653094D01*
X227076442Y-87508931D01*
X226906924Y-87395663D01*
X226718566Y-87317642D01*
X226518607Y-87277868D01*
X226314729Y-87277868D01*
X226114770Y-87317642D01*
X225926412Y-87395663D01*
X225789165Y-87487368D01*
X219683282Y-87487368D01*
X219642732Y-87483374D01*
X219602181Y-87487368D01*
X219602179Y-87487368D01*
X219480906Y-87499312D01*
X219374091Y-87531714D01*
X219325298Y-87546515D01*
X219181889Y-87623169D01*
X219087690Y-87700476D01*
X219087687Y-87700479D01*
X219056191Y-87726327D01*
X219030343Y-87757823D01*
X218127496Y-88660672D01*
X217965602Y-88692874D01*
X217777244Y-88770895D01*
X217639997Y-88862600D01*
X182892933Y-88862600D01*
X170085529Y-76055197D01*
X170053326Y-75893302D01*
X169975305Y-75704944D01*
X169862037Y-75535426D01*
X169717874Y-75391263D01*
X169676328Y-75363503D01*
X170825350Y-74214480D01*
X170825350Y-75512227D01*
X170821664Y-75549650D01*
X170825350Y-75587073D01*
X170825350Y-75587075D01*
X170836376Y-75699027D01*
X170879948Y-75842664D01*
X170906227Y-75891828D01*
X170950705Y-75975042D01*
X170977796Y-76008052D01*
X171045928Y-76091072D01*
X171075004Y-76114934D01*
X172372421Y-77412352D01*
X172396278Y-77441422D01*
X172512308Y-77536645D01*
X172644685Y-77607402D01*
X172788322Y-77650974D01*
X172900274Y-77662000D01*
X172900276Y-77662000D01*
X172937699Y-77665686D01*
X172975122Y-77662000D01*
X180854390Y-77662000D01*
X180934969Y-77812752D01*
X181139286Y-78061714D01*
X181388248Y-78266031D01*
X181672285Y-78417852D01*
X181980484Y-78511343D01*
X182220678Y-78535000D01*
X182881322Y-78535000D01*
X183121516Y-78511343D01*
X183429715Y-78417852D01*
X183713752Y-78266031D01*
X183962714Y-78061714D01*
X184167031Y-77812752D01*
X184247610Y-77662000D01*
X195562377Y-77662000D01*
X195599800Y-77665686D01*
X195637223Y-77662000D01*
X195637226Y-77662000D01*
X195749178Y-77650974D01*
X195892815Y-77607402D01*
X196025192Y-77536645D01*
X196141222Y-77441422D01*
X196165084Y-77412346D01*
X201062788Y-72514643D01*
X201269478Y-72535000D01*
X201930122Y-72535000D01*
X202136813Y-72514643D01*
X206534516Y-76912346D01*
X206558378Y-76941422D01*
X206615714Y-76988476D01*
X206674407Y-77036645D01*
X206739952Y-77071679D01*
X206806785Y-77107402D01*
X206950422Y-77150974D01*
X207062374Y-77162000D01*
X207062377Y-77162000D01*
X207099800Y-77165686D01*
X207137223Y-77162000D01*
X218951990Y-77162000D01*
X219032569Y-77312752D01*
X219236886Y-77561714D01*
X219485848Y-77766031D01*
X219769885Y-77917852D01*
X220078084Y-78011343D01*
X220318278Y-78035000D01*
X220978922Y-78035000D01*
X221219116Y-78011343D01*
X221527315Y-77917852D01*
X221811352Y-77766031D01*
X222060314Y-77561714D01*
X222264631Y-77312752D01*
X222345210Y-77162000D01*
X230855870Y-77162000D01*
X243450495Y-89756626D01*
X243450496Y-117163930D01*
X243269349Y-117232109D01*
X242995850Y-117402182D01*
X242760784Y-117622344D01*
X242573187Y-117884135D01*
X242440268Y-118177494D01*
X242367134Y-118491148D01*
X242356815Y-118806362D01*
X242154234Y-118714574D01*
X241840580Y-118641440D01*
X241518688Y-118630902D01*
X241200922Y-118683364D01*
X240899497Y-118796813D01*
X240625998Y-118966886D01*
X240390932Y-119187048D01*
X240203335Y-119448839D01*
X240070416Y-119742198D01*
X239997282Y-120055852D01*
X239988917Y-120311369D01*
X239907207Y-120256772D01*
X239600556Y-120129754D01*
X239275018Y-120065000D01*
X238943102Y-120065000D01*
X238617564Y-120129754D01*
X238310913Y-120256772D01*
X238034935Y-120441175D01*
X237800235Y-120675875D01*
X237615832Y-120951853D01*
X237488814Y-121258504D01*
X237424060Y-121584042D01*
X237424060Y-121915958D01*
X237488814Y-122241496D01*
X237615832Y-122548147D01*
X237800235Y-122824125D01*
X238034935Y-123058825D01*
X238310913Y-123243228D01*
X238617564Y-123370246D01*
X238844694Y-123415425D01*
X239010464Y-123484089D01*
X239316682Y-123545000D01*
X239628900Y-123545000D01*
X239935118Y-123484089D01*
X240223570Y-123364609D01*
X240483170Y-123191150D01*
X240703941Y-122970379D01*
X240877400Y-122710779D01*
X240996880Y-122422327D01*
X241057791Y-122116109D01*
X241057791Y-121830095D01*
X241311209Y-121976406D01*
X241531052Y-122076016D01*
X241844704Y-122149150D01*
X242166598Y-122159688D01*
X242484364Y-122107225D01*
X242785789Y-121993777D01*
X243059288Y-121823704D01*
X243294353Y-121603542D01*
X243481950Y-121341751D01*
X243614870Y-121048392D01*
X243688004Y-120734738D01*
X243698323Y-120419524D01*
X243900904Y-120511312D01*
X244214556Y-120584446D01*
X244536450Y-120594984D01*
X244854216Y-120542521D01*
X245155641Y-120429073D01*
X245328629Y-120321502D01*
X245667627Y-120509639D01*
X246762352Y-121159196D01*
X246756006Y-121353040D01*
X246808468Y-121670806D01*
X246921917Y-121972231D01*
X247091990Y-122245730D01*
X247312152Y-122480796D01*
X247492935Y-122610343D01*
X247225112Y-122776886D01*
X246990046Y-122997048D01*
X246802449Y-123258839D01*
X246669530Y-123552198D01*
X246596396Y-123865852D01*
X246585858Y-124187744D01*
X246638320Y-124505510D01*
X246751769Y-124806935D01*
X246921842Y-125080434D01*
X247142004Y-125315500D01*
X247338190Y-125456084D01*
X247595318Y-125604537D01*
X247520830Y-125635391D01*
X247261230Y-125808850D01*
X247040459Y-126029621D01*
X246867000Y-126289221D01*
X246747520Y-126577673D01*
X246686609Y-126883891D01*
X246686609Y-127196109D01*
X246747520Y-127502327D01*
X246867000Y-127790779D01*
X247040459Y-128050379D01*
X247261230Y-128271150D01*
X247315225Y-128307228D01*
X247326515Y-128324125D01*
X247561215Y-128558825D01*
X247837193Y-128743228D01*
X248143844Y-128870246D01*
X248469382Y-128935000D01*
X248801298Y-128935000D01*
X249126836Y-128870246D01*
X249433487Y-128743228D01*
X249709465Y-128558825D01*
X249944165Y-128324125D01*
X250128568Y-128048147D01*
X250255586Y-127741496D01*
X250320340Y-127415958D01*
X250320340Y-127084042D01*
X250255586Y-126758504D01*
X250128568Y-126451853D01*
X249944165Y-126175875D01*
X249709465Y-125941175D01*
X249446505Y-125765470D01*
X249658402Y-125633704D01*
X249893467Y-125413542D01*
X250081064Y-125151751D01*
X250213984Y-124858392D01*
X250287118Y-124544738D01*
X250297656Y-124222845D01*
X250280082Y-124116398D01*
X251634600Y-125470917D01*
X251634601Y-129057469D01*
X248112470Y-132579600D01*
X244969880Y-132579600D01*
X242800228Y-130409948D01*
X244483031Y-130409948D01*
X244535493Y-130727714D01*
X244648942Y-131029139D01*
X244819015Y-131302638D01*
X245039177Y-131537704D01*
X245235363Y-131678288D01*
X245807496Y-132008610D01*
X246027339Y-132108220D01*
X246340991Y-132181354D01*
X246662885Y-132191892D01*
X246980651Y-132139429D01*
X247282076Y-132025981D01*
X247555575Y-131855908D01*
X247790640Y-131635746D01*
X247978237Y-131373955D01*
X248111157Y-131080596D01*
X248184291Y-130766942D01*
X248194829Y-130445049D01*
X248142366Y-130127284D01*
X248028918Y-129825859D01*
X247858845Y-129552359D01*
X247638683Y-129317294D01*
X247442497Y-129176709D01*
X246870364Y-128846387D01*
X246650521Y-128746778D01*
X246336867Y-128673644D01*
X246014975Y-128663106D01*
X245697209Y-128715568D01*
X245395784Y-128829017D01*
X245122285Y-128999090D01*
X244887219Y-129219252D01*
X244699622Y-129481043D01*
X244566703Y-129774402D01*
X244493569Y-130088056D01*
X244483031Y-130409948D01*
X242800228Y-130409948D01*
X242681487Y-130291207D01*
X242694427Y-130262647D01*
X242767561Y-129948993D01*
X242778099Y-129627100D01*
X242725636Y-129309335D01*
X242612188Y-129007910D01*
X242442115Y-128734410D01*
X242221953Y-128499345D01*
X242025767Y-128358760D01*
X241453634Y-128028438D01*
X241233791Y-127928829D01*
X240920137Y-127855695D01*
X240598245Y-127845157D01*
X240280479Y-127897619D01*
X239979054Y-128011068D01*
X239705555Y-128181141D01*
X239470489Y-128401303D01*
X239282892Y-128663094D01*
X239149973Y-128956453D01*
X239076839Y-129270107D01*
X239066301Y-129591999D01*
X239118763Y-129909765D01*
X239232212Y-130211190D01*
X239402285Y-130484689D01*
X239622447Y-130719755D01*
X239818633Y-130860339D01*
X240390766Y-131190661D01*
X240610609Y-131290271D01*
X240924261Y-131363405D01*
X241246155Y-131373943D01*
X241557552Y-131322532D01*
X244088966Y-133853946D01*
X244112828Y-133883022D01*
X244181833Y-133939653D01*
X244228857Y-133978245D01*
X244299614Y-134016065D01*
X244361235Y-134049002D01*
X244504872Y-134092574D01*
X244616824Y-134103600D01*
X244616827Y-134103600D01*
X244654250Y-134107286D01*
X244691673Y-134103600D01*
X248390677Y-134103600D01*
X248428100Y-134107286D01*
X248465523Y-134103600D01*
X248465526Y-134103600D01*
X248577478Y-134092574D01*
X248721115Y-134049002D01*
X248853492Y-133978245D01*
X248969522Y-133883022D01*
X248993384Y-133853946D01*
X252908946Y-129938384D01*
X252938022Y-129914522D01*
X252998457Y-129840881D01*
X253033245Y-129798493D01*
X253097301Y-129678651D01*
X253104002Y-129666115D01*
X253147574Y-129522478D01*
X253158600Y-129410526D01*
X253158600Y-129410523D01*
X253162286Y-129373100D01*
X253158600Y-129335677D01*
X253158600Y-125192709D01*
X253162286Y-125155286D01*
X253157877Y-125110518D01*
X253147574Y-125005908D01*
X253104002Y-124862271D01*
X253063736Y-124786939D01*
X253033245Y-124729893D01*
X252961879Y-124642934D01*
X252938022Y-124613864D01*
X252908953Y-124590008D01*
X250371192Y-122052247D01*
X250384132Y-122023688D01*
X250457266Y-121710034D01*
X250467804Y-121388141D01*
X250415341Y-121070376D01*
X250301893Y-120768951D01*
X250131820Y-120495451D01*
X249911658Y-120260386D01*
X249715472Y-120119801D01*
X249143339Y-119789479D01*
X248923496Y-119689870D01*
X248609842Y-119616736D01*
X248287950Y-119606198D01*
X247970184Y-119658660D01*
X247668759Y-119772109D01*
X247542998Y-119850312D01*
X246458557Y-119206858D01*
X246449490Y-119200590D01*
X246426359Y-119187753D01*
X246403651Y-119174279D01*
X246393685Y-119169620D01*
X246063862Y-118986575D01*
X246068394Y-118848141D01*
X246015931Y-118530376D01*
X245902483Y-118228951D01*
X245732410Y-117955451D01*
X245512248Y-117720386D01*
X245316062Y-117579801D01*
X244974495Y-117382597D01*
X244974495Y-89478418D01*
X244978181Y-89440995D01*
X244974495Y-89403569D01*
X244963469Y-89291617D01*
X244919897Y-89147980D01*
X244849141Y-89015604D01*
X244849140Y-89015602D01*
X244777774Y-88928643D01*
X244753917Y-88899573D01*
X244724848Y-88875717D01*
X231736784Y-75887654D01*
X231712922Y-75858578D01*
X231596892Y-75763355D01*
X231464515Y-75692598D01*
X231320878Y-75649026D01*
X231208926Y-75638000D01*
X231208923Y-75638000D01*
X231171500Y-75634314D01*
X231134077Y-75638000D01*
X227067359Y-75638000D01*
X227160314Y-75561714D01*
X227364631Y-75312752D01*
X227516452Y-75028715D01*
X227609943Y-74720516D01*
X227641511Y-74400000D01*
X227609943Y-74079484D01*
X227516452Y-73771285D01*
X227364631Y-73487248D01*
X227160314Y-73238286D01*
X226911352Y-73033969D01*
X226627315Y-72882148D01*
X226319116Y-72788657D01*
X226078922Y-72765000D01*
X225418278Y-72765000D01*
X225178084Y-72788657D01*
X224869885Y-72882148D01*
X224585848Y-73033969D01*
X224336886Y-73238286D01*
X224132569Y-73487248D01*
X223980748Y-73771285D01*
X223887257Y-74079484D01*
X223855689Y-74400000D01*
X223887257Y-74720516D01*
X223980748Y-75028715D01*
X224132569Y-75312752D01*
X224336886Y-75561714D01*
X224429841Y-75638000D01*
X222345210Y-75638000D01*
X222264631Y-75487248D01*
X222060314Y-75238286D01*
X221811352Y-75033969D01*
X221527315Y-74882148D01*
X221219116Y-74788657D01*
X220978922Y-74765000D01*
X220318278Y-74765000D01*
X220078084Y-74788657D01*
X219769885Y-74882148D01*
X219485848Y-75033969D01*
X219236886Y-75238286D01*
X219032569Y-75487248D01*
X218951990Y-75638000D01*
X216867359Y-75638000D01*
X216960314Y-75561714D01*
X217164631Y-75312752D01*
X217316452Y-75028715D01*
X217409943Y-74720516D01*
X217441511Y-74400000D01*
X217409943Y-74079484D01*
X217316452Y-73771285D01*
X217164631Y-73487248D01*
X216960314Y-73238286D01*
X216711352Y-73033969D01*
X216427315Y-72882148D01*
X216119116Y-72788657D01*
X215878922Y-72765000D01*
X215218278Y-72765000D01*
X214978084Y-72788657D01*
X214669885Y-72882148D01*
X214385848Y-73033969D01*
X214136886Y-73238286D01*
X213932569Y-73487248D01*
X213780748Y-73771285D01*
X213687257Y-74079484D01*
X213655689Y-74400000D01*
X213687257Y-74720516D01*
X213780748Y-75028715D01*
X213932569Y-75312752D01*
X214136886Y-75561714D01*
X214229841Y-75638000D01*
X207415430Y-75638000D01*
X203346227Y-71568797D01*
X203367652Y-71528715D01*
X203461143Y-71220516D01*
X203492711Y-70900000D01*
X203461143Y-70579484D01*
X203367652Y-70271285D01*
X203215831Y-69987248D01*
X203011514Y-69738286D01*
X202762552Y-69533969D01*
X202478515Y-69382148D01*
X202170316Y-69288657D01*
X201930122Y-69265000D01*
X201269478Y-69265000D01*
X201029284Y-69288657D01*
X200721085Y-69382148D01*
X200437048Y-69533969D01*
X200188086Y-69738286D01*
X199983769Y-69987248D01*
X199831948Y-70271285D01*
X199738457Y-70579484D01*
X199706889Y-70900000D01*
X199738457Y-71220516D01*
X199831948Y-71528715D01*
X199853372Y-71568797D01*
X195284170Y-76138000D01*
X188969759Y-76138000D01*
X189062714Y-76061714D01*
X189267031Y-75812752D01*
X189418852Y-75528715D01*
X189512343Y-75220516D01*
X189543911Y-74900000D01*
X189512343Y-74579484D01*
X189418852Y-74271285D01*
X189267031Y-73987248D01*
X189062714Y-73738286D01*
X188813752Y-73533969D01*
X188529715Y-73382148D01*
X188221516Y-73288657D01*
X187981322Y-73265000D01*
X187320678Y-73265000D01*
X187080484Y-73288657D01*
X186772285Y-73382148D01*
X186488248Y-73533969D01*
X186239286Y-73738286D01*
X186034969Y-73987248D01*
X185883148Y-74271285D01*
X185789657Y-74579484D01*
X185758089Y-74900000D01*
X185789657Y-75220516D01*
X185883148Y-75528715D01*
X186034969Y-75812752D01*
X186239286Y-76061714D01*
X186332241Y-76138000D01*
X184247610Y-76138000D01*
X184167031Y-75987248D01*
X183962714Y-75738286D01*
X183713752Y-75533969D01*
X183429715Y-75382148D01*
X183121516Y-75288657D01*
X182881322Y-75265000D01*
X182220678Y-75265000D01*
X181980484Y-75288657D01*
X181672285Y-75382148D01*
X181388248Y-75533969D01*
X181139286Y-75738286D01*
X180934969Y-75987248D01*
X180854390Y-76138000D01*
X178769759Y-76138000D01*
X178862714Y-76061714D01*
X179067031Y-75812752D01*
X179218852Y-75528715D01*
X179312343Y-75220516D01*
X179343911Y-74900000D01*
X179312343Y-74579484D01*
X179218852Y-74271285D01*
X179067031Y-73987248D01*
X178862714Y-73738286D01*
X178613752Y-73533969D01*
X178329715Y-73382148D01*
X178021516Y-73288657D01*
X177781322Y-73265000D01*
X177120678Y-73265000D01*
X176880484Y-73288657D01*
X176572285Y-73382148D01*
X176288248Y-73533969D01*
X176039286Y-73738286D01*
X175834969Y-73987248D01*
X175683148Y-74271285D01*
X175589657Y-74579484D01*
X175558089Y-74900000D01*
X175589657Y-75220516D01*
X175683148Y-75528715D01*
X175834969Y-75812752D01*
X176039286Y-76061714D01*
X176132241Y-76138000D01*
X173253331Y-76138000D01*
X172349350Y-75234020D01*
X172349350Y-72690480D01*
X176877397Y-68162434D01*
X176848089Y-68460000D01*
X176879657Y-68780516D01*
X176973148Y-69088715D01*
X177094100Y-69315000D01*
X176885042Y-69315000D01*
X176559504Y-69379754D01*
X176252853Y-69506772D01*
X175976875Y-69691175D01*
X175742175Y-69925875D01*
X175557772Y-70201853D01*
X175430754Y-70508504D01*
X175366000Y-70834042D01*
X175366000Y-71165958D01*
X175430754Y-71491496D01*
X175557772Y-71798147D01*
X175742175Y-72074125D01*
X175976875Y-72308825D01*
X176252853Y-72493228D01*
X176559504Y-72620246D01*
X176885042Y-72685000D01*
X177216958Y-72685000D01*
X177542496Y-72620246D01*
X177628031Y-72584817D01*
X177933327Y-72524089D01*
X178221779Y-72404609D01*
X178481379Y-72231150D01*
X178702150Y-72010379D01*
X178875609Y-71750779D01*
X178995089Y-71462327D01*
X179056000Y-71156109D01*
X179056000Y-70843891D01*
X179035430Y-70740475D01*
X179916000Y-70740475D01*
X179916000Y-71259525D01*
X180017261Y-71768601D01*
X180215893Y-72248141D01*
X180504262Y-72679715D01*
X180871285Y-73046738D01*
X181302859Y-73335107D01*
X181782399Y-73533739D01*
X182291475Y-73635000D01*
X182810525Y-73635000D01*
X183319601Y-73533739D01*
X183799141Y-73335107D01*
X184230715Y-73046738D01*
X184597738Y-72679715D01*
X184886107Y-72248141D01*
X185084739Y-71768601D01*
X185186000Y-71259525D01*
X185186000Y-70740475D01*
X185084739Y-70231399D01*
X184886107Y-69751859D01*
X184597738Y-69320285D01*
X184230715Y-68953262D01*
X183799141Y-68664893D01*
X183319601Y-68466261D01*
X182810525Y-68365000D01*
X182291475Y-68365000D01*
X181782399Y-68466261D01*
X181302859Y-68664893D01*
X180871285Y-68953262D01*
X180504262Y-69320285D01*
X180215893Y-69751859D01*
X180017261Y-70231399D01*
X179916000Y-70740475D01*
X179035430Y-70740475D01*
X178995089Y-70537673D01*
X178875609Y-70249221D01*
X178772562Y-70095000D01*
X179071322Y-70095000D01*
X179311516Y-70071343D01*
X179619715Y-69977852D01*
X179903752Y-69826031D01*
X180152714Y-69621714D01*
X180357031Y-69372752D01*
X180508852Y-69088715D01*
X180602343Y-68780516D01*
X180633911Y-68460000D01*
X180602343Y-68139484D01*
X180508852Y-67831285D01*
X180360182Y-67553142D01*
X180581516Y-67531343D01*
X180889715Y-67437852D01*
X181173752Y-67286031D01*
X181422714Y-67081714D01*
X181627031Y-66832752D01*
X181707610Y-66682000D01*
X183394390Y-66682000D01*
X183474969Y-66832752D01*
X183679286Y-67081714D01*
X183928248Y-67286031D01*
X184212285Y-67437852D01*
X184520484Y-67531343D01*
X184741818Y-67553142D01*
X184593148Y-67831285D01*
X184499657Y-68139484D01*
X184468089Y-68460000D01*
X184499657Y-68780516D01*
X184593148Y-69088715D01*
X184744969Y-69372752D01*
X184949286Y-69621714D01*
X185198248Y-69826031D01*
X185482285Y-69977852D01*
X185790484Y-70071343D01*
X186030678Y-70095000D01*
X186329438Y-70095000D01*
X186226391Y-70249221D01*
X186106911Y-70537673D01*
X186046000Y-70843891D01*
X186046000Y-71156109D01*
X186106911Y-71462327D01*
X186226391Y-71750779D01*
X186399850Y-72010379D01*
X186620621Y-72231150D01*
X186880221Y-72404609D01*
X187168673Y-72524089D01*
X187473969Y-72584817D01*
X187559504Y-72620246D01*
X187885042Y-72685000D01*
X188216958Y-72685000D01*
X188542496Y-72620246D01*
X188849147Y-72493228D01*
X189125125Y-72308825D01*
X189359825Y-72074125D01*
X189544228Y-71798147D01*
X189671246Y-71491496D01*
X189736000Y-71165958D01*
X189736000Y-70834042D01*
X189671246Y-70508504D01*
X189544228Y-70201853D01*
X189359825Y-69925875D01*
X189125125Y-69691175D01*
X188849147Y-69506772D01*
X188542496Y-69379754D01*
X188216958Y-69315000D01*
X188007900Y-69315000D01*
X188128852Y-69088715D01*
X188186097Y-68900000D01*
X194606889Y-68900000D01*
X194638457Y-69220516D01*
X194731948Y-69528715D01*
X194883769Y-69812752D01*
X195088086Y-70061714D01*
X195337048Y-70266031D01*
X195621085Y-70417852D01*
X195929284Y-70511343D01*
X196169478Y-70535000D01*
X196830122Y-70535000D01*
X197070316Y-70511343D01*
X197378515Y-70417852D01*
X197662552Y-70266031D01*
X197911514Y-70061714D01*
X198115831Y-69812752D01*
X198267652Y-69528715D01*
X198361143Y-69220516D01*
X198392711Y-68900000D01*
X204806889Y-68900000D01*
X204838457Y-69220516D01*
X204931948Y-69528715D01*
X205083769Y-69812752D01*
X205288086Y-70061714D01*
X205537048Y-70266031D01*
X205821085Y-70417852D01*
X206129284Y-70511343D01*
X206369478Y-70535000D01*
X207030122Y-70535000D01*
X207270316Y-70511343D01*
X207578515Y-70417852D01*
X207862552Y-70266031D01*
X208111514Y-70061714D01*
X208315831Y-69812752D01*
X208467652Y-69528715D01*
X208561143Y-69220516D01*
X208592711Y-68900000D01*
X208561143Y-68579484D01*
X208467652Y-68271285D01*
X208315831Y-67987248D01*
X208111514Y-67738286D01*
X207862552Y-67533969D01*
X207578515Y-67382148D01*
X207270316Y-67288657D01*
X207030122Y-67265000D01*
X206369478Y-67265000D01*
X206129284Y-67288657D01*
X205821085Y-67382148D01*
X205537048Y-67533969D01*
X205288086Y-67738286D01*
X205083769Y-67987248D01*
X204931948Y-68271285D01*
X204838457Y-68579484D01*
X204806889Y-68900000D01*
X198392711Y-68900000D01*
X198361143Y-68579484D01*
X198267652Y-68271285D01*
X198115831Y-67987248D01*
X197911514Y-67738286D01*
X197662552Y-67533969D01*
X197378515Y-67382148D01*
X197070316Y-67288657D01*
X196830122Y-67265000D01*
X196169478Y-67265000D01*
X195929284Y-67288657D01*
X195621085Y-67382148D01*
X195337048Y-67533969D01*
X195088086Y-67738286D01*
X194883769Y-67987248D01*
X194731948Y-68271285D01*
X194638457Y-68579484D01*
X194606889Y-68900000D01*
X188186097Y-68900000D01*
X188222343Y-68780516D01*
X188253911Y-68460000D01*
X188222343Y-68139484D01*
X188128852Y-67831285D01*
X187977031Y-67547248D01*
X187772714Y-67298286D01*
X187523752Y-67093969D01*
X187239715Y-66942148D01*
X186931516Y-66848657D01*
X186710182Y-66826858D01*
X186858852Y-66548715D01*
X186952343Y-66240516D01*
X186983911Y-65920000D01*
X186952343Y-65599484D01*
X186858852Y-65291285D01*
X186837428Y-65251203D01*
X191406631Y-60682000D01*
X197363190Y-60682000D01*
X197440618Y-60826858D01*
X197219284Y-60848657D01*
X196911085Y-60942148D01*
X196627048Y-61093969D01*
X196378086Y-61298286D01*
X196173769Y-61547248D01*
X196021948Y-61831285D01*
X195928457Y-62139484D01*
X195896889Y-62460000D01*
X195928457Y-62780516D01*
X196021948Y-63088715D01*
X196142900Y-63315000D01*
X195933842Y-63315000D01*
X195608304Y-63379754D01*
X195301653Y-63506772D01*
X195025675Y-63691175D01*
X194790975Y-63925875D01*
X194606572Y-64201853D01*
X194479554Y-64508504D01*
X194414800Y-64834042D01*
X194414800Y-65165958D01*
X194479554Y-65491496D01*
X194606572Y-65798147D01*
X194790975Y-66074125D01*
X195025675Y-66308825D01*
X195301653Y-66493228D01*
X195608304Y-66620246D01*
X195933842Y-66685000D01*
X196265758Y-66685000D01*
X196591296Y-66620246D01*
X196676831Y-66584817D01*
X196982127Y-66524089D01*
X197270579Y-66404609D01*
X197530179Y-66231150D01*
X197750950Y-66010379D01*
X197924409Y-65750779D01*
X198043889Y-65462327D01*
X198104800Y-65156109D01*
X198104800Y-64843891D01*
X198084230Y-64740475D01*
X198964800Y-64740475D01*
X198964800Y-65259525D01*
X199066061Y-65768601D01*
X199264693Y-66248141D01*
X199553062Y-66679715D01*
X199920085Y-67046738D01*
X200351659Y-67335107D01*
X200831199Y-67533739D01*
X201340275Y-67635000D01*
X201859325Y-67635000D01*
X202368401Y-67533739D01*
X202847941Y-67335107D01*
X203279515Y-67046738D01*
X203646538Y-66679715D01*
X203934907Y-66248141D01*
X204133539Y-65768601D01*
X204234800Y-65259525D01*
X204234800Y-64740475D01*
X204133539Y-64231399D01*
X203934907Y-63751859D01*
X203646538Y-63320285D01*
X203279515Y-62953262D01*
X202847941Y-62664893D01*
X202368401Y-62466261D01*
X201859325Y-62365000D01*
X201340275Y-62365000D01*
X200831199Y-62466261D01*
X200351659Y-62664893D01*
X199920085Y-62953262D01*
X199553062Y-63320285D01*
X199264693Y-63751859D01*
X199066061Y-64231399D01*
X198964800Y-64740475D01*
X198084230Y-64740475D01*
X198043889Y-64537673D01*
X197924409Y-64249221D01*
X197821362Y-64095000D01*
X198120122Y-64095000D01*
X198360316Y-64071343D01*
X198668515Y-63977852D01*
X198952552Y-63826031D01*
X199201514Y-63621714D01*
X199405831Y-63372752D01*
X199557652Y-63088715D01*
X199651143Y-62780516D01*
X199682711Y-62460000D01*
X199651143Y-62139484D01*
X199557652Y-61831285D01*
X199408982Y-61553142D01*
X199630316Y-61531343D01*
X199938515Y-61437852D01*
X200222552Y-61286031D01*
X200471514Y-61081714D01*
X200675831Y-60832752D01*
X200756410Y-60682000D01*
X202443190Y-60682000D01*
X202523769Y-60832752D01*
X202728086Y-61081714D01*
X202977048Y-61286031D01*
X203261085Y-61437852D01*
X203569284Y-61531343D01*
X203790618Y-61553142D01*
X203641948Y-61831285D01*
X203548457Y-62139484D01*
X203516889Y-62460000D01*
X203548457Y-62780516D01*
X203641948Y-63088715D01*
X203793769Y-63372752D01*
X203998086Y-63621714D01*
X204247048Y-63826031D01*
X204531085Y-63977852D01*
X204839284Y-64071343D01*
X205079478Y-64095000D01*
X205378238Y-64095000D01*
X205275191Y-64249221D01*
X205155711Y-64537673D01*
X205094800Y-64843891D01*
X205094800Y-65156109D01*
X205155711Y-65462327D01*
X205275191Y-65750779D01*
X205448650Y-66010379D01*
X205669421Y-66231150D01*
X205929021Y-66404609D01*
X206217473Y-66524089D01*
X206522769Y-66584817D01*
X206608304Y-66620246D01*
X206933842Y-66685000D01*
X207265758Y-66685000D01*
X207591296Y-66620246D01*
X207897947Y-66493228D01*
X208173925Y-66308825D01*
X208408625Y-66074125D01*
X208593028Y-65798147D01*
X208720046Y-65491496D01*
X208784800Y-65165958D01*
X208784800Y-64834042D01*
X208720046Y-64508504D01*
X208593028Y-64201853D01*
X208408625Y-63925875D01*
X208173925Y-63691175D01*
X207897947Y-63506772D01*
X207591296Y-63379754D01*
X207265758Y-63315000D01*
X207056700Y-63315000D01*
X207177652Y-63088715D01*
X207271143Y-62780516D01*
X207302711Y-62460000D01*
X207271143Y-62139484D01*
X207177652Y-61831285D01*
X207025831Y-61547248D01*
X206821514Y-61298286D01*
X206572552Y-61093969D01*
X206288515Y-60942148D01*
X205980316Y-60848657D01*
X205758982Y-60826858D01*
X205836410Y-60682000D01*
X212292970Y-60682000D01*
X216362173Y-64751203D01*
X216340748Y-64791285D01*
X216247257Y-65099484D01*
X216215689Y-65420000D01*
X216247257Y-65740516D01*
X216340748Y-66048715D01*
X216489418Y-66326858D01*
X216268084Y-66348657D01*
X215959885Y-66442148D01*
X215675848Y-66593969D01*
X215426886Y-66798286D01*
X215222569Y-67047248D01*
X215070748Y-67331285D01*
X214977257Y-67639484D01*
X214945689Y-67960000D01*
X214977257Y-68280516D01*
X215070748Y-68588715D01*
X215191700Y-68815000D01*
X214982642Y-68815000D01*
X214657104Y-68879754D01*
X214350453Y-69006772D01*
X214074475Y-69191175D01*
X213839775Y-69425875D01*
X213655372Y-69701853D01*
X213528354Y-70008504D01*
X213463600Y-70334042D01*
X213463600Y-70665958D01*
X213528354Y-70991496D01*
X213655372Y-71298147D01*
X213839775Y-71574125D01*
X214074475Y-71808825D01*
X214350453Y-71993228D01*
X214657104Y-72120246D01*
X214982642Y-72185000D01*
X215314558Y-72185000D01*
X215640096Y-72120246D01*
X215725631Y-72084817D01*
X216030927Y-72024089D01*
X216319379Y-71904609D01*
X216578979Y-71731150D01*
X216799750Y-71510379D01*
X216973209Y-71250779D01*
X217092689Y-70962327D01*
X217153600Y-70656109D01*
X217153600Y-70343891D01*
X217133030Y-70240475D01*
X218013600Y-70240475D01*
X218013600Y-70759525D01*
X218114861Y-71268601D01*
X218313493Y-71748141D01*
X218601862Y-72179715D01*
X218968885Y-72546738D01*
X219400459Y-72835107D01*
X219879999Y-73033739D01*
X220389075Y-73135000D01*
X220908125Y-73135000D01*
X221417201Y-73033739D01*
X221896741Y-72835107D01*
X222328315Y-72546738D01*
X222695338Y-72179715D01*
X222983707Y-71748141D01*
X223182339Y-71268601D01*
X223283600Y-70759525D01*
X223283600Y-70240475D01*
X223182339Y-69731399D01*
X222983707Y-69251859D01*
X222695338Y-68820285D01*
X222328315Y-68453262D01*
X221896741Y-68164893D01*
X221417201Y-67966261D01*
X220908125Y-67865000D01*
X220389075Y-67865000D01*
X219879999Y-67966261D01*
X219400459Y-68164893D01*
X218968885Y-68453262D01*
X218601862Y-68820285D01*
X218313493Y-69251859D01*
X218114861Y-69731399D01*
X218013600Y-70240475D01*
X217133030Y-70240475D01*
X217092689Y-70037673D01*
X216973209Y-69749221D01*
X216870162Y-69595000D01*
X217168922Y-69595000D01*
X217409116Y-69571343D01*
X217717315Y-69477852D01*
X218001352Y-69326031D01*
X218250314Y-69121714D01*
X218454631Y-68872752D01*
X218606452Y-68588715D01*
X218699943Y-68280516D01*
X218731511Y-67960000D01*
X218699943Y-67639484D01*
X218606452Y-67331285D01*
X218457782Y-67053142D01*
X218679116Y-67031343D01*
X218987315Y-66937852D01*
X219271352Y-66786031D01*
X219520314Y-66581714D01*
X219724631Y-66332752D01*
X219805210Y-66182000D01*
X221491990Y-66182000D01*
X221572569Y-66332752D01*
X221776886Y-66581714D01*
X222025848Y-66786031D01*
X222309885Y-66937852D01*
X222618084Y-67031343D01*
X222839418Y-67053142D01*
X222690748Y-67331285D01*
X222597257Y-67639484D01*
X222565689Y-67960000D01*
X222597257Y-68280516D01*
X222690748Y-68588715D01*
X222842569Y-68872752D01*
X223046886Y-69121714D01*
X223295848Y-69326031D01*
X223579885Y-69477852D01*
X223888084Y-69571343D01*
X224128278Y-69595000D01*
X224427038Y-69595000D01*
X224323991Y-69749221D01*
X224204511Y-70037673D01*
X224143600Y-70343891D01*
X224143600Y-70656109D01*
X224204511Y-70962327D01*
X224323991Y-71250779D01*
X224497450Y-71510379D01*
X224718221Y-71731150D01*
X224977821Y-71904609D01*
X225266273Y-72024089D01*
X225571569Y-72084817D01*
X225657104Y-72120246D01*
X225982642Y-72185000D01*
X226314558Y-72185000D01*
X226640096Y-72120246D01*
X226946747Y-71993228D01*
X227222725Y-71808825D01*
X227457425Y-71574125D01*
X227641828Y-71298147D01*
X227768846Y-70991496D01*
X227833600Y-70665958D01*
X227833600Y-70334042D01*
X227768846Y-70008504D01*
X227641828Y-69701853D01*
X227457425Y-69425875D01*
X227222725Y-69191175D01*
X226946747Y-69006772D01*
X226640096Y-68879754D01*
X226314558Y-68815000D01*
X226105500Y-68815000D01*
X226116756Y-68793941D01*
X239130927Y-68793941D01*
X239164764Y-69074579D01*
X239252701Y-69343223D01*
X239391356Y-69589550D01*
X239575405Y-69804093D01*
X239797771Y-69978609D01*
X240049912Y-70106389D01*
X240056274Y-70108168D01*
X240056273Y-73310150D01*
X240052587Y-73347573D01*
X240056273Y-73384996D01*
X240056273Y-73384998D01*
X240067299Y-73496950D01*
X240110871Y-73640587D01*
X240125889Y-73668684D01*
X240181628Y-73772965D01*
X240220909Y-73820829D01*
X240276851Y-73888995D01*
X240305927Y-73912857D01*
X243032034Y-76638965D01*
X243055891Y-76668035D01*
X243171921Y-76763258D01*
X243304298Y-76834015D01*
X243447935Y-76877587D01*
X243559887Y-76888613D01*
X243559889Y-76888613D01*
X243597312Y-76892299D01*
X243634735Y-76888613D01*
X244534779Y-76888613D01*
X244668260Y-77125749D01*
X244852309Y-77340292D01*
X245074675Y-77514808D01*
X245326816Y-77642588D01*
X245599040Y-77718722D01*
X245880885Y-77740286D01*
X246161523Y-77706449D01*
X246430167Y-77618512D01*
X246614768Y-77514602D01*
X247221748Y-77089590D01*
X247382529Y-76951662D01*
X247557045Y-76729296D01*
X247684825Y-76477155D01*
X247760960Y-76204932D01*
X247782523Y-75923086D01*
X247748687Y-75642448D01*
X247660750Y-75373803D01*
X247522094Y-75127476D01*
X247338045Y-74912934D01*
X247115679Y-74738418D01*
X246863538Y-74610638D01*
X246591314Y-74534503D01*
X246309468Y-74512940D01*
X246028830Y-74546776D01*
X245760187Y-74634713D01*
X245575586Y-74738624D01*
X244968606Y-75163635D01*
X244807825Y-75301564D01*
X244758343Y-75364613D01*
X243912944Y-75364613D01*
X241580273Y-73031943D01*
X241580273Y-71931107D01*
X242670446Y-71931107D01*
X242704283Y-72211745D01*
X242792220Y-72480389D01*
X242930875Y-72726716D01*
X243114924Y-72941259D01*
X243337290Y-73115775D01*
X243589431Y-73243555D01*
X243861655Y-73319689D01*
X244143500Y-73341253D01*
X244424138Y-73307416D01*
X244692782Y-73219479D01*
X244877383Y-73115569D01*
X245484363Y-72690557D01*
X245602661Y-72589074D01*
X245602661Y-72830318D01*
X245655886Y-73097896D01*
X245760290Y-73349950D01*
X245911862Y-73576793D01*
X246104775Y-73769706D01*
X246331618Y-73921278D01*
X246583672Y-74025682D01*
X246851250Y-74078907D01*
X247124072Y-74078907D01*
X247391650Y-74025682D01*
X247643704Y-73921278D01*
X247870547Y-73769706D01*
X248063460Y-73576793D01*
X248215032Y-73349950D01*
X248319436Y-73097896D01*
X248372661Y-72830318D01*
X248372661Y-72557496D01*
X248319436Y-72289918D01*
X248215032Y-72037864D01*
X248063460Y-71811021D01*
X247870547Y-71618108D01*
X247643704Y-71466536D01*
X247391650Y-71362132D01*
X247124072Y-71308907D01*
X246851250Y-71308907D01*
X246583672Y-71362132D01*
X246331618Y-71466536D01*
X246104775Y-71618108D01*
X246032405Y-71690478D01*
X246045138Y-71524053D01*
X246011302Y-71243415D01*
X245923365Y-70974770D01*
X245784709Y-70728443D01*
X245600660Y-70513901D01*
X245503659Y-70437773D01*
X246421245Y-70437773D01*
X246448674Y-70689626D01*
X246510519Y-70747376D01*
X246750192Y-70896747D01*
X247014399Y-70996492D01*
X247292989Y-71042775D01*
X247575256Y-71033819D01*
X247850351Y-70969967D01*
X248107704Y-70853674D01*
X248353450Y-70681601D01*
X247603212Y-69610151D01*
X246421245Y-70437773D01*
X245503659Y-70437773D01*
X245378294Y-70339385D01*
X245126153Y-70211605D01*
X244969782Y-70167872D01*
X245005253Y-70153179D01*
X245232096Y-70001607D01*
X245425009Y-69808694D01*
X245576581Y-69581851D01*
X245618258Y-69481232D01*
X245953403Y-69481232D01*
X245956768Y-69763621D01*
X246015158Y-70039927D01*
X246048273Y-70117794D01*
X246275557Y-70229708D01*
X247457523Y-69402086D01*
X246707286Y-68330635D01*
X246461540Y-68502708D01*
X246264240Y-68704766D01*
X246110151Y-68941433D01*
X246005194Y-69203613D01*
X245953403Y-69481232D01*
X245618258Y-69481232D01*
X245680985Y-69329797D01*
X245734210Y-69062219D01*
X245734210Y-68789397D01*
X245680985Y-68521819D01*
X245576581Y-68269765D01*
X245519908Y-68184947D01*
X246915350Y-68184947D01*
X247665588Y-69256397D01*
X247681971Y-69244925D01*
X247827660Y-69452991D01*
X247811277Y-69464462D01*
X248561514Y-70535913D01*
X248807260Y-70363840D01*
X249004560Y-70161782D01*
X249158649Y-69925115D01*
X249263606Y-69662935D01*
X249315397Y-69385316D01*
X249313468Y-69223439D01*
X249323495Y-69228520D01*
X249595719Y-69304654D01*
X249877564Y-69326218D01*
X250158202Y-69292381D01*
X250426846Y-69204444D01*
X250611447Y-69100534D01*
X251218427Y-68675522D01*
X251336726Y-68574038D01*
X251336726Y-68815283D01*
X251389951Y-69082861D01*
X251494355Y-69334915D01*
X251645927Y-69561758D01*
X251838840Y-69754671D01*
X252065683Y-69906243D01*
X252317737Y-70010647D01*
X252585315Y-70063872D01*
X252858137Y-70063872D01*
X253125715Y-70010647D01*
X253377769Y-69906243D01*
X253604612Y-69754671D01*
X253797525Y-69561758D01*
X253949097Y-69334915D01*
X254053501Y-69082861D01*
X254106726Y-68815283D01*
X254106726Y-68542461D01*
X254053501Y-68274883D01*
X253949097Y-68022829D01*
X253797525Y-67795986D01*
X253604612Y-67603073D01*
X253377769Y-67451501D01*
X253125715Y-67347097D01*
X252858137Y-67293872D01*
X252585315Y-67293872D01*
X252317737Y-67347097D01*
X252065683Y-67451501D01*
X251838840Y-67603073D01*
X251766469Y-67675444D01*
X251779202Y-67509018D01*
X251745366Y-67228380D01*
X251657429Y-66959735D01*
X251518773Y-66713408D01*
X251334724Y-66498866D01*
X251112358Y-66324350D01*
X250860217Y-66196570D01*
X250703846Y-66152837D01*
X250739317Y-66138144D01*
X250966160Y-65986572D01*
X251159073Y-65793659D01*
X251310645Y-65566816D01*
X251415049Y-65314762D01*
X251468274Y-65047184D01*
X251468274Y-64774362D01*
X251415049Y-64506784D01*
X251310645Y-64254730D01*
X251159073Y-64027887D01*
X250966160Y-63834974D01*
X250739317Y-63683402D01*
X250487263Y-63578998D01*
X250219685Y-63525773D01*
X249946863Y-63525773D01*
X249679285Y-63578998D01*
X249427231Y-63683402D01*
X249200388Y-63834974D01*
X249007475Y-64027887D01*
X248855903Y-64254730D01*
X248751499Y-64506784D01*
X248698274Y-64774362D01*
X248698274Y-65047184D01*
X248751499Y-65314762D01*
X248855903Y-65566816D01*
X249007475Y-65793659D01*
X249200388Y-65986572D01*
X249427231Y-66138144D01*
X249679285Y-66242548D01*
X249707858Y-66248232D01*
X249572265Y-66324556D01*
X248965285Y-66749567D01*
X248804504Y-66887496D01*
X248629988Y-67109862D01*
X248502208Y-67362003D01*
X248426074Y-67634227D01*
X248404510Y-67916072D01*
X248405856Y-67927234D01*
X248254401Y-67870056D01*
X247975811Y-67823773D01*
X247693544Y-67832729D01*
X247418449Y-67896581D01*
X247161096Y-68012874D01*
X246915350Y-68184947D01*
X245519908Y-68184947D01*
X245425009Y-68042922D01*
X245232096Y-67850009D01*
X245005253Y-67698437D01*
X244753199Y-67594033D01*
X244485621Y-67540808D01*
X244212799Y-67540808D01*
X243945221Y-67594033D01*
X243693167Y-67698437D01*
X243466324Y-67850009D01*
X243273411Y-68042922D01*
X243121839Y-68269765D01*
X243017435Y-68521819D01*
X242964210Y-68789397D01*
X242964210Y-69062219D01*
X243017435Y-69329797D01*
X243121839Y-69581851D01*
X243273411Y-69808694D01*
X243466324Y-70001607D01*
X243693167Y-70153179D01*
X243945221Y-70257583D01*
X243973794Y-70263267D01*
X243838201Y-70339591D01*
X243231221Y-70764602D01*
X243070440Y-70902531D01*
X242895924Y-71124897D01*
X242768144Y-71377038D01*
X242692010Y-71649262D01*
X242670446Y-71931107D01*
X241580273Y-71931107D01*
X241580273Y-69808666D01*
X241944844Y-69553391D01*
X242105625Y-69415463D01*
X242280141Y-69193097D01*
X242407921Y-68940956D01*
X242484056Y-68668733D01*
X242505619Y-68386887D01*
X242471783Y-68106249D01*
X242383846Y-67837604D01*
X242245190Y-67591277D01*
X242061141Y-67376735D01*
X241838775Y-67202219D01*
X241586634Y-67074439D01*
X241314410Y-66998304D01*
X241032564Y-66976741D01*
X240751926Y-67010577D01*
X240483283Y-67098514D01*
X240298682Y-67202425D01*
X239691702Y-67627436D01*
X239530921Y-67765365D01*
X239356405Y-67987731D01*
X239228625Y-68239872D01*
X239152491Y-68512096D01*
X239130927Y-68793941D01*
X226116756Y-68793941D01*
X226226452Y-68588715D01*
X226319943Y-68280516D01*
X226351511Y-67960000D01*
X226319943Y-67639484D01*
X226226452Y-67331285D01*
X226074631Y-67047248D01*
X225870314Y-66798286D01*
X225621352Y-66593969D01*
X225337315Y-66442148D01*
X225029116Y-66348657D01*
X224807782Y-66326858D01*
X224956452Y-66048715D01*
X225049943Y-65740516D01*
X225081511Y-65420000D01*
X225049943Y-65099484D01*
X224956452Y-64791285D01*
X224804631Y-64507248D01*
X224600314Y-64258286D01*
X224351352Y-64053969D01*
X224067315Y-63902148D01*
X223759116Y-63808657D01*
X223518922Y-63785000D01*
X222858278Y-63785000D01*
X222618084Y-63808657D01*
X222309885Y-63902148D01*
X222025848Y-64053969D01*
X221776886Y-64258286D01*
X221572569Y-64507248D01*
X221491990Y-64658000D01*
X219805210Y-64658000D01*
X219724631Y-64507248D01*
X219520314Y-64258286D01*
X219271352Y-64053969D01*
X218987315Y-63902148D01*
X218679116Y-63808657D01*
X218438922Y-63785000D01*
X217778278Y-63785000D01*
X217571587Y-63805357D01*
X216983007Y-63216777D01*
X232100200Y-63216777D01*
X232100200Y-63775223D01*
X232209148Y-64322939D01*
X232422856Y-64838876D01*
X232733112Y-65303207D01*
X233127993Y-65698088D01*
X233592324Y-66008344D01*
X234108261Y-66222052D01*
X234655977Y-66331000D01*
X235214423Y-66331000D01*
X235762139Y-66222052D01*
X236278076Y-66008344D01*
X236742407Y-65698088D01*
X237137288Y-65303207D01*
X237447544Y-64838876D01*
X237661252Y-64322939D01*
X237770200Y-63775223D01*
X237770200Y-63216777D01*
X237661252Y-62669061D01*
X237447544Y-62153124D01*
X237137288Y-61688793D01*
X236742407Y-61293912D01*
X236278076Y-60983656D01*
X235762139Y-60769948D01*
X235214423Y-60661000D01*
X234655977Y-60661000D01*
X234108261Y-60769948D01*
X233592324Y-60983656D01*
X233127993Y-61293912D01*
X232733112Y-61688793D01*
X232422856Y-62153124D01*
X232209148Y-62669061D01*
X232100200Y-63216777D01*
X216983007Y-63216777D01*
X213173884Y-59407654D01*
X213150022Y-59378578D01*
X213033992Y-59283355D01*
X212901615Y-59212598D01*
X212757978Y-59169026D01*
X212646026Y-59158000D01*
X212646023Y-59158000D01*
X212608600Y-59154314D01*
X212571177Y-59158000D01*
X205836410Y-59158000D01*
X205755831Y-59007248D01*
X205551514Y-58758286D01*
X205302552Y-58553969D01*
X205018515Y-58402148D01*
X204710316Y-58308657D01*
X204470122Y-58285000D01*
X203809478Y-58285000D01*
X203569284Y-58308657D01*
X203261085Y-58402148D01*
X202977048Y-58553969D01*
X202728086Y-58758286D01*
X202523769Y-59007248D01*
X202443190Y-59158000D01*
X200756410Y-59158000D01*
X200675831Y-59007248D01*
X200471514Y-58758286D01*
X200222552Y-58553969D01*
X199938515Y-58402148D01*
X199630316Y-58308657D01*
X199390122Y-58285000D01*
X198729478Y-58285000D01*
X198489284Y-58308657D01*
X198181085Y-58402148D01*
X197897048Y-58553969D01*
X197648086Y-58758286D01*
X197443769Y-59007248D01*
X197363190Y-59158000D01*
X191128422Y-59158000D01*
X191090999Y-59154314D01*
X191053576Y-59158000D01*
X191053574Y-59158000D01*
X190941622Y-59169026D01*
X190797985Y-59212598D01*
X190665608Y-59283355D01*
X190549578Y-59378578D01*
X190525721Y-59407648D01*
X185628013Y-64305357D01*
X185421322Y-64285000D01*
X184760678Y-64285000D01*
X184520484Y-64308657D01*
X184212285Y-64402148D01*
X183928248Y-64553969D01*
X183679286Y-64758286D01*
X183474969Y-65007248D01*
X183394390Y-65158000D01*
X181707610Y-65158000D01*
X181627031Y-65007248D01*
X181422714Y-64758286D01*
X181173752Y-64553969D01*
X180889715Y-64402148D01*
X180581516Y-64308657D01*
X180341322Y-64285000D01*
X179680678Y-64285000D01*
X179440484Y-64308657D01*
X179132285Y-64402148D01*
X178848248Y-64553969D01*
X178599286Y-64758286D01*
X178394969Y-65007248D01*
X178314390Y-65158000D01*
X178079622Y-65158000D01*
X178042199Y-65154314D01*
X178004776Y-65158000D01*
X178004774Y-65158000D01*
X177892822Y-65169026D01*
X177749185Y-65212598D01*
X177616808Y-65283355D01*
X177500778Y-65378578D01*
X177476921Y-65407648D01*
X171075004Y-71809566D01*
X171074998Y-71809571D01*
X171074994Y-71809575D01*
X171045929Y-71833428D01*
X171022076Y-71862493D01*
X166579213Y-76305357D01*
X166372522Y-76285000D01*
X165711878Y-76285000D01*
X165471684Y-76308657D01*
X165163485Y-76402148D01*
X164879448Y-76553969D01*
X164630486Y-76758286D01*
X164426169Y-77007248D01*
X164345590Y-77158000D01*
X162658810Y-77158000D01*
X162578231Y-77007248D01*
X162373914Y-76758286D01*
X162124952Y-76553969D01*
X161840915Y-76402148D01*
X161532716Y-76308657D01*
X161292522Y-76285000D01*
X160631878Y-76285000D01*
X160391684Y-76308657D01*
X160083485Y-76402148D01*
X159799448Y-76553969D01*
X159550486Y-76758286D01*
X159346169Y-77007248D01*
X159265590Y-77158000D01*
X157804085Y-77158000D01*
X157766662Y-77154314D01*
X157729239Y-77158000D01*
X157729237Y-77158000D01*
X157617285Y-77169026D01*
X157473648Y-77212598D01*
X157341271Y-77283355D01*
X157225241Y-77378578D01*
X157201384Y-77407648D01*
X153465449Y-81143584D01*
X153436379Y-81167441D01*
X153412522Y-81196511D01*
X153412521Y-81196512D01*
X153341155Y-81283471D01*
X153270399Y-81415848D01*
X153226827Y-81559485D01*
X153212114Y-81708863D01*
X153215801Y-81746296D01*
X153215800Y-86475877D01*
X153212114Y-86513300D01*
X153215800Y-86550723D01*
X153215800Y-86550725D01*
X153226826Y-86662677D01*
X153270398Y-86806314D01*
X153270399Y-86806315D01*
X153341155Y-86938692D01*
X153380783Y-86986978D01*
X153436378Y-87054722D01*
X153465454Y-87078584D01*
X155793620Y-89406751D01*
X155817478Y-89435822D01*
X155846548Y-89459679D01*
X155933507Y-89531045D01*
X155986556Y-89559400D01*
X156065885Y-89601802D01*
X156209522Y-89645374D01*
X156321474Y-89656400D01*
X156321477Y-89656400D01*
X156358900Y-89660086D01*
X156396323Y-89656400D01*
X161802597Y-89656400D01*
X161886169Y-89812752D01*
X162090486Y-90061714D01*
X162339448Y-90266031D01*
X162623485Y-90417852D01*
X162740201Y-90453257D01*
X162740200Y-91753569D01*
X161079549Y-93414221D01*
X161050479Y-93438078D01*
X161026622Y-93467148D01*
X161026621Y-93467149D01*
X160955255Y-93554108D01*
X160884499Y-93686485D01*
X160840927Y-93830122D01*
X160826214Y-93979500D01*
X160829901Y-94016933D01*
X160829900Y-99539595D01*
X160701365Y-99625480D01*
X160506780Y-99820065D01*
X160353895Y-100048873D01*
X160321900Y-100126115D01*
X160289905Y-100048873D01*
X160137020Y-99820065D01*
X159942435Y-99625480D01*
X159713627Y-99472595D01*
X159459390Y-99367286D01*
X159189492Y-99313600D01*
X158914308Y-99313600D01*
X158644410Y-99367286D01*
X158390173Y-99472595D01*
X158161365Y-99625480D01*
X157966780Y-99820065D01*
X157813895Y-100048873D01*
X157781900Y-100126115D01*
X157749905Y-100048873D01*
X157597020Y-99820065D01*
X157402435Y-99625480D01*
X157173627Y-99472595D01*
X156919390Y-99367286D01*
X156649492Y-99313600D01*
X156374308Y-99313600D01*
X156104410Y-99367286D01*
X155850173Y-99472595D01*
X155621365Y-99625480D01*
X155426780Y-99820065D01*
X155273895Y-100048873D01*
X155241900Y-100126115D01*
X155209905Y-100048873D01*
X155057020Y-99820065D01*
X154862435Y-99625480D01*
X154633627Y-99472595D01*
X154379390Y-99367286D01*
X154109492Y-99313600D01*
X153834308Y-99313600D01*
X153564410Y-99367286D01*
X153310173Y-99472595D01*
X153081365Y-99625480D01*
X152886780Y-99820065D01*
X152733895Y-100048873D01*
X152701900Y-100126115D01*
X152669905Y-100048873D01*
X152517020Y-99820065D01*
X152322435Y-99625480D01*
X152093627Y-99472595D01*
X151839390Y-99367286D01*
X151569492Y-99313600D01*
X151294308Y-99313600D01*
X151024410Y-99367286D01*
X150770173Y-99472595D01*
X150541365Y-99625480D01*
X150346780Y-99820065D01*
X150193895Y-100048873D01*
X150161900Y-100126115D01*
X150129905Y-100048873D01*
X149977020Y-99820065D01*
X149782435Y-99625480D01*
X149553627Y-99472595D01*
X149299390Y-99367286D01*
X149029492Y-99313600D01*
X148754308Y-99313600D01*
X148484410Y-99367286D01*
X148230173Y-99472595D01*
X148001365Y-99625480D01*
X147806780Y-99820065D01*
X147653895Y-100048873D01*
X147621900Y-100126115D01*
X147589905Y-100048873D01*
X147437020Y-99820065D01*
X147242435Y-99625480D01*
X147013627Y-99472595D01*
X146759390Y-99367286D01*
X146489492Y-99313600D01*
X146214308Y-99313600D01*
X145944410Y-99367286D01*
X145690173Y-99472595D01*
X145461365Y-99625480D01*
X145266780Y-99820065D01*
X145113895Y-100048873D01*
X145081900Y-100126115D01*
X145049905Y-100048873D01*
X144897020Y-99820065D01*
X144702435Y-99625480D01*
X144473627Y-99472595D01*
X144219390Y-99367286D01*
X143949492Y-99313600D01*
X143674308Y-99313600D01*
X143404410Y-99367286D01*
X143150173Y-99472595D01*
X142921365Y-99625480D01*
X142726780Y-99820065D01*
X142573895Y-100048873D01*
X142544208Y-100120543D01*
X142539536Y-100107577D01*
X142477556Y-99991620D01*
X142237465Y-99924640D01*
X141451505Y-100710600D01*
X141465648Y-100724743D01*
X141286043Y-100904348D01*
X141271900Y-100890205D01*
X141257758Y-100904348D01*
X141078153Y-100724743D01*
X141092295Y-100710600D01*
X140306335Y-99924640D01*
X140066244Y-99991620D01*
X140004821Y-100122244D01*
X139999536Y-100107577D01*
X139937556Y-99991620D01*
X139697465Y-99924640D01*
X138911505Y-100710600D01*
X138925648Y-100724743D01*
X138746043Y-100904348D01*
X138731900Y-100890205D01*
X138388738Y-101233367D01*
X138353210Y-101223455D01*
X137567250Y-102009415D01*
X138353210Y-102795375D01*
X138593301Y-102728395D01*
X138657130Y-102592655D01*
X138689640Y-102671142D01*
X138842525Y-102899950D01*
X139037110Y-103094535D01*
X139265918Y-103247420D01*
X139520155Y-103352729D01*
X139790053Y-103406415D01*
X140065237Y-103406415D01*
X140335135Y-103352729D01*
X140589372Y-103247420D01*
X140818180Y-103094535D01*
X141012765Y-102899950D01*
X141165650Y-102671142D01*
X141197645Y-102593900D01*
X141229640Y-102671142D01*
X141382525Y-102899950D01*
X141577110Y-103094535D01*
X141805918Y-103247420D01*
X142060155Y-103352729D01*
X142330053Y-103406415D01*
X142605237Y-103406415D01*
X142875135Y-103352729D01*
X143129372Y-103247420D01*
X143358180Y-103094535D01*
X143552765Y-102899950D01*
X143705650Y-102671142D01*
X143737645Y-102593900D01*
X143769640Y-102671142D01*
X143922525Y-102899950D01*
X144117110Y-103094535D01*
X144245646Y-103180420D01*
X144245645Y-107073324D01*
X143299549Y-108019421D01*
X143270479Y-108043278D01*
X143246622Y-108072348D01*
X143246621Y-108072349D01*
X143175255Y-108159308D01*
X143104499Y-108291685D01*
X143060927Y-108435322D01*
X143046214Y-108584700D01*
X143049901Y-108622133D01*
X143049900Y-114779595D01*
X142921365Y-114865480D01*
X142726780Y-115060065D01*
X142573895Y-115288873D01*
X142541900Y-115366115D01*
X142509905Y-115288873D01*
X142357020Y-115060065D01*
X142162435Y-114865480D01*
X141933627Y-114712595D01*
X141679390Y-114607286D01*
X141409492Y-114553600D01*
X141134308Y-114553600D01*
X140864410Y-114607286D01*
X140610173Y-114712595D01*
X140381365Y-114865480D01*
X140186780Y-115060065D01*
X140033895Y-115288873D01*
X140001900Y-115366115D01*
X139969905Y-115288873D01*
X139817020Y-115060065D01*
X139622435Y-114865480D01*
X139393627Y-114712595D01*
X139139390Y-114607286D01*
X138869492Y-114553600D01*
X138594308Y-114553600D01*
X138324410Y-114607286D01*
X138070173Y-114712595D01*
X137841365Y-114865480D01*
X137646780Y-115060065D01*
X137493895Y-115288873D01*
X137464208Y-115360543D01*
X137459536Y-115347577D01*
X137397556Y-115231620D01*
X137157465Y-115164640D01*
X136371505Y-115950600D01*
X136385648Y-115964743D01*
X136206043Y-116144348D01*
X136191900Y-116130205D01*
X136177758Y-116144348D01*
X135998153Y-115964743D01*
X136012295Y-115950600D01*
X135226335Y-115164640D01*
X134986244Y-115231620D01*
X134922415Y-115367360D01*
X134889905Y-115288873D01*
X134737020Y-115060065D01*
X134661990Y-114985035D01*
X135405940Y-114985035D01*
X136191900Y-115770995D01*
X136977860Y-114985035D01*
X136910880Y-114744944D01*
X136661852Y-114627844D01*
X136394765Y-114561577D01*
X136119883Y-114548690D01*
X135847767Y-114589678D01*
X135588877Y-114682964D01*
X135472920Y-114744944D01*
X135405940Y-114985035D01*
X134661990Y-114985035D01*
X134542435Y-114865480D01*
X134413900Y-114779595D01*
X134413900Y-109535930D01*
X135359998Y-108589833D01*
X135389067Y-108565977D01*
X135436338Y-108508377D01*
X135484290Y-108449948D01*
X135555046Y-108317571D01*
X135555047Y-108317570D01*
X135598619Y-108173933D01*
X135609645Y-108061981D01*
X135609645Y-108061978D01*
X135613331Y-108024555D01*
X135609645Y-107987132D01*
X135609645Y-103180420D01*
X135738180Y-103094535D01*
X135857735Y-102974980D01*
X136601685Y-102974980D01*
X136668665Y-103215071D01*
X136917693Y-103332171D01*
X137184780Y-103398438D01*
X137459662Y-103411325D01*
X137731778Y-103370337D01*
X137990668Y-103277051D01*
X138106625Y-103215071D01*
X138173605Y-102974980D01*
X137387645Y-102189020D01*
X136601685Y-102974980D01*
X135857735Y-102974980D01*
X135932765Y-102899950D01*
X136085650Y-102671142D01*
X136115337Y-102599472D01*
X136120009Y-102612438D01*
X136181989Y-102728395D01*
X136422080Y-102795375D01*
X137208040Y-102009415D01*
X137193898Y-101995273D01*
X137373503Y-101815668D01*
X137387645Y-101829810D01*
X137730807Y-101486648D01*
X137766335Y-101496560D01*
X138552295Y-100710600D01*
X137766335Y-99924640D01*
X137526244Y-99991620D01*
X137462415Y-100127360D01*
X137429905Y-100048873D01*
X137277020Y-99820065D01*
X137201990Y-99745035D01*
X137945940Y-99745035D01*
X138731900Y-100530995D01*
X139517860Y-99745035D01*
X140485940Y-99745035D01*
X141271900Y-100530995D01*
X142057860Y-99745035D01*
X141990880Y-99504944D01*
X141741852Y-99387844D01*
X141474765Y-99321577D01*
X141199883Y-99308690D01*
X140927767Y-99349678D01*
X140668877Y-99442964D01*
X140552920Y-99504944D01*
X140485940Y-99745035D01*
X139517860Y-99745035D01*
X139450880Y-99504944D01*
X139201852Y-99387844D01*
X138934765Y-99321577D01*
X138659883Y-99308690D01*
X138387767Y-99349678D01*
X138128877Y-99442964D01*
X138012920Y-99504944D01*
X137945940Y-99745035D01*
X137201990Y-99745035D01*
X137082435Y-99625480D01*
X136853627Y-99472595D01*
X136599390Y-99367286D01*
X136329492Y-99313600D01*
X136054308Y-99313600D01*
X135784410Y-99367286D01*
X135530173Y-99472595D01*
X135301365Y-99625480D01*
X135106780Y-99820065D01*
X134953895Y-100048873D01*
X134921900Y-100126115D01*
X134889905Y-100048873D01*
X134737020Y-99820065D01*
X134542435Y-99625480D01*
X134313627Y-99472595D01*
X134059390Y-99367286D01*
X133789492Y-99313600D01*
X133514308Y-99313600D01*
X133244410Y-99367286D01*
X132990173Y-99472595D01*
X132761365Y-99625480D01*
X132566780Y-99820065D01*
X132413895Y-100048873D01*
X132308586Y-100303110D01*
X132254900Y-100573008D01*
X131664181Y-100573008D01*
X131569928Y-90600500D01*
X133615928Y-90600500D01*
X133615928Y-91950500D01*
X133628188Y-92074982D01*
X133664498Y-92194680D01*
X133723463Y-92304994D01*
X133802815Y-92401685D01*
X133899506Y-92481037D01*
X134009820Y-92540002D01*
X134129518Y-92576312D01*
X134254000Y-92588572D01*
X135604000Y-92588572D01*
X135728482Y-92576312D01*
X135848180Y-92540002D01*
X135958494Y-92481037D01*
X136055185Y-92401685D01*
X136134537Y-92304994D01*
X136193502Y-92194680D01*
X136229812Y-92074982D01*
X136242072Y-91950500D01*
X136242072Y-90600500D01*
X136229812Y-90476018D01*
X136193502Y-90356320D01*
X136134537Y-90246006D01*
X136055185Y-90149315D01*
X135968303Y-90078013D01*
X136089907Y-89896018D01*
X136188658Y-89657613D01*
X136239000Y-89404524D01*
X136239000Y-89146476D01*
X136188658Y-88893387D01*
X136089907Y-88654982D01*
X136063311Y-88615177D01*
X144793200Y-88615177D01*
X144793200Y-89173623D01*
X144902148Y-89721339D01*
X145115856Y-90237276D01*
X145426112Y-90701607D01*
X145820993Y-91096488D01*
X146285324Y-91406744D01*
X146801261Y-91620452D01*
X147348977Y-91729400D01*
X147907423Y-91729400D01*
X148455139Y-91620452D01*
X148971076Y-91406744D01*
X149435407Y-91096488D01*
X149830288Y-90701607D01*
X150140544Y-90237276D01*
X150354252Y-89721339D01*
X150463200Y-89173623D01*
X150463200Y-88615177D01*
X150354252Y-88067461D01*
X150140544Y-87551524D01*
X149830288Y-87087193D01*
X149435407Y-86692312D01*
X148971076Y-86382056D01*
X148455139Y-86168348D01*
X147907423Y-86059400D01*
X147348977Y-86059400D01*
X146801261Y-86168348D01*
X146285324Y-86382056D01*
X145820993Y-86692312D01*
X145426112Y-87087193D01*
X145115856Y-87551524D01*
X144902148Y-88067461D01*
X144793200Y-88615177D01*
X136063311Y-88615177D01*
X135946544Y-88440423D01*
X135774940Y-88268819D01*
X135907303Y-88146727D01*
X136058473Y-87939129D01*
X136166238Y-87706028D01*
X136196910Y-87604900D01*
X136073224Y-87402500D01*
X135056000Y-87402500D01*
X135056000Y-87422500D01*
X134802000Y-87422500D01*
X134802000Y-87402500D01*
X133784776Y-87402500D01*
X133661090Y-87604900D01*
X133691762Y-87706028D01*
X133799527Y-87939129D01*
X133950697Y-88146727D01*
X134083060Y-88268819D01*
X133911456Y-88440423D01*
X133768093Y-88654982D01*
X133669342Y-88893387D01*
X133619000Y-89146476D01*
X133619000Y-89404524D01*
X133669342Y-89657613D01*
X133768093Y-89896018D01*
X133889697Y-90078013D01*
X133802815Y-90149315D01*
X133723463Y-90246006D01*
X133664498Y-90356320D01*
X133628188Y-90476018D01*
X133615928Y-90600500D01*
X131569928Y-90600500D01*
X131535389Y-86946100D01*
X133661090Y-86946100D01*
X133784776Y-87148500D01*
X134802000Y-87148500D01*
X134802000Y-86130415D01*
X135056000Y-86130415D01*
X135056000Y-87148500D01*
X136073224Y-87148500D01*
X136196910Y-86946100D01*
X136166238Y-86844972D01*
X136058473Y-86611871D01*
X135907303Y-86404273D01*
X135718537Y-86230156D01*
X135499430Y-86096211D01*
X135258401Y-86007585D01*
X135056000Y-86130415D01*
X134802000Y-86130415D01*
X134599599Y-86007585D01*
X134358570Y-86096211D01*
X134139463Y-86230156D01*
X133950697Y-86404273D01*
X133799527Y-86611871D01*
X133691762Y-86844972D01*
X133661090Y-86946100D01*
X131535389Y-86946100D01*
X131517325Y-85034924D01*
X134473821Y-82384414D01*
X137741202Y-79654748D01*
X141101882Y-77040756D01*
X144551715Y-74545663D01*
X148086557Y-72172464D01*
X151702024Y-69924104D01*
X155393803Y-67803264D01*
X159157333Y-65812565D01*
X162988027Y-63954432D01*
X166881270Y-62231107D01*
X170832226Y-60644726D01*
X174836191Y-59197179D01*
X178888214Y-57890258D01*
X182983400Y-56725540D01*
X187116709Y-55704459D01*
X191283151Y-54828248D01*
X195477629Y-54097978D01*
X199695060Y-53514534D01*
X203930268Y-53078634D01*
X208178099Y-52790807D01*
X212433406Y-52651402D01*
X216690944Y-52660589D01*
G37*
X216690944Y-52660589D02*
X220945640Y-52818360D01*
X225192169Y-53124516D01*
X229425470Y-53578693D01*
X233640327Y-54180330D01*
X237831597Y-54928693D01*
X241994247Y-55822885D01*
X246124775Y-56862214D01*
X248808716Y-57622889D01*
X250786534Y-59904236D01*
X252767031Y-62418859D01*
X254626865Y-65023971D01*
X256361911Y-67713792D01*
X257968326Y-70482365D01*
X259442546Y-73323546D01*
X260781287Y-76231011D01*
X261981585Y-79198319D01*
X263040763Y-82218854D01*
X263956490Y-85285966D01*
X264726712Y-88392778D01*
X265349727Y-91532424D01*
X265824155Y-94697939D01*
X266148942Y-97882317D01*
X266323362Y-101078409D01*
X266347032Y-104279209D01*
X266219898Y-107477549D01*
X265942241Y-110666362D01*
X265514681Y-113838540D01*
X264938165Y-116987061D01*
X264213969Y-120104949D01*
X263343710Y-123185240D01*
X262329313Y-126221123D01*
X261173034Y-129205848D01*
X259877437Y-132132794D01*
X258445400Y-134995463D01*
X256878085Y-137791093D01*
X256244717Y-138834422D01*
X251372927Y-139855153D01*
X246201856Y-140788684D01*
X241006711Y-141577471D01*
X235791563Y-142220893D01*
X230560468Y-142718450D01*
X225317599Y-143069748D01*
X220066883Y-143274522D01*
X214812509Y-143332607D01*
X209558598Y-143243961D01*
X204309193Y-143008649D01*
X199068376Y-142626856D01*
X193840288Y-142098881D01*
X188628994Y-141425138D01*
X183438543Y-140606149D01*
X178272935Y-139642544D01*
X173136282Y-138535090D01*
X168032585Y-137284652D01*
X162965730Y-135892181D01*
X157939770Y-134358791D01*
X156443105Y-133856077D01*
X229719100Y-133856077D01*
X229719100Y-134414523D01*
X229828048Y-134962239D01*
X230041756Y-135478176D01*
X230352012Y-135942507D01*
X230746893Y-136337388D01*
X231211224Y-136647644D01*
X231727161Y-136861352D01*
X232274877Y-136970300D01*
X232833323Y-136970300D01*
X233381039Y-136861352D01*
X233896976Y-136647644D01*
X234361307Y-136337388D01*
X234756188Y-135942507D01*
X235066444Y-135478176D01*
X235280152Y-134962239D01*
X235389100Y-134414523D01*
X235389100Y-133856077D01*
X235280152Y-133308361D01*
X235066444Y-132792424D01*
X234756188Y-132328093D01*
X234361307Y-131933212D01*
X233896976Y-131622956D01*
X233381039Y-131409248D01*
X232833323Y-131300300D01*
X232274877Y-131300300D01*
X231727161Y-131409248D01*
X231211224Y-131622956D01*
X230746893Y-131933212D01*
X230352012Y-132328093D01*
X230041756Y-132792424D01*
X229828048Y-133308361D01*
X229719100Y-133856077D01*
X156443105Y-133856077D01*
X152958570Y-132685659D01*
X148026041Y-130874102D01*
X143146007Y-128925523D01*
X138322270Y-126841438D01*
X133556309Y-124622411D01*
X131883731Y-123802591D01*
X131664181Y-100573008D01*
X132254900Y-100573008D01*
X132254900Y-100848192D01*
X132308586Y-101118090D01*
X132413895Y-101372327D01*
X132566780Y-101601135D01*
X132761365Y-101795720D01*
X132990173Y-101948605D01*
X133244410Y-102053914D01*
X133450645Y-102094937D01*
X133450645Y-102147007D01*
X133504331Y-102416905D01*
X133609640Y-102671142D01*
X133762525Y-102899950D01*
X133957110Y-103094535D01*
X134085646Y-103180420D01*
X134085645Y-107708924D01*
X133139549Y-108655021D01*
X133110479Y-108678878D01*
X133086622Y-108707948D01*
X133086621Y-108707949D01*
X133015255Y-108794908D01*
X132944499Y-108927285D01*
X132900927Y-109070922D01*
X132886214Y-109220300D01*
X132889901Y-109257733D01*
X132889900Y-114779595D01*
X132761365Y-114865480D01*
X132566780Y-115060065D01*
X132413895Y-115288873D01*
X132308586Y-115543110D01*
X132254900Y-115813008D01*
X132254900Y-116088192D01*
X132308586Y-116358090D01*
X132413895Y-116612327D01*
X132566780Y-116841135D01*
X132761365Y-117035720D01*
X132990173Y-117188605D01*
X133244410Y-117293914D01*
X133450645Y-117334937D01*
X133450645Y-117387007D01*
X133504331Y-117656905D01*
X133609640Y-117911142D01*
X133762525Y-118139950D01*
X133957110Y-118334535D01*
X134185918Y-118487420D01*
X134440155Y-118592729D01*
X134710053Y-118646415D01*
X134985237Y-118646415D01*
X135255135Y-118592729D01*
X135509372Y-118487420D01*
X135738180Y-118334535D01*
X135932765Y-118139950D01*
X136085650Y-117911142D01*
X136117645Y-117833900D01*
X136149640Y-117911142D01*
X136302525Y-118139950D01*
X136497110Y-118334535D01*
X136725918Y-118487420D01*
X136980155Y-118592729D01*
X137250053Y-118646415D01*
X137525237Y-118646415D01*
X137795135Y-118592729D01*
X138049372Y-118487420D01*
X138278180Y-118334535D01*
X138397735Y-118214980D01*
X139141685Y-118214980D01*
X139208665Y-118455071D01*
X139457693Y-118572171D01*
X139724780Y-118638438D01*
X139999662Y-118651325D01*
X140271778Y-118610337D01*
X140530668Y-118517051D01*
X140646625Y-118455071D01*
X140713605Y-118214980D01*
X141681685Y-118214980D01*
X141748665Y-118455071D01*
X141997693Y-118572171D01*
X142264780Y-118638438D01*
X142539662Y-118651325D01*
X142811778Y-118610337D01*
X143070668Y-118517051D01*
X143186625Y-118455071D01*
X143253605Y-118214980D01*
X142467645Y-117429020D01*
X141681685Y-118214980D01*
X140713605Y-118214980D01*
X139927645Y-117429020D01*
X139141685Y-118214980D01*
X138397735Y-118214980D01*
X138472765Y-118139950D01*
X138625650Y-117911142D01*
X138655337Y-117839472D01*
X138660009Y-117852438D01*
X138721989Y-117968395D01*
X138962080Y-118035375D01*
X139748040Y-117249415D01*
X139733898Y-117235273D01*
X139913503Y-117055668D01*
X139927645Y-117069810D01*
X139941788Y-117055668D01*
X140121393Y-117235273D01*
X140107250Y-117249415D01*
X140893210Y-118035375D01*
X141133301Y-117968395D01*
X141194724Y-117837771D01*
X141200009Y-117852438D01*
X141261989Y-117968395D01*
X141502080Y-118035375D01*
X142288040Y-117249415D01*
X142273898Y-117235273D01*
X142453503Y-117055668D01*
X142467645Y-117069810D01*
X142481788Y-117055668D01*
X142661393Y-117235273D01*
X142647250Y-117249415D01*
X143433210Y-118035375D01*
X143673301Y-117968395D01*
X143737130Y-117832655D01*
X143769640Y-117911142D01*
X143922525Y-118139950D01*
X144117110Y-118334535D01*
X144345918Y-118487420D01*
X144600155Y-118592729D01*
X144870053Y-118646415D01*
X145145237Y-118646415D01*
X145415135Y-118592729D01*
X145669372Y-118487420D01*
X145898180Y-118334535D01*
X146092765Y-118139950D01*
X146245650Y-117911142D01*
X146277645Y-117833900D01*
X146309640Y-117911142D01*
X146462525Y-118139950D01*
X146657110Y-118334535D01*
X146885918Y-118487420D01*
X147140155Y-118592729D01*
X147410053Y-118646415D01*
X147685237Y-118646415D01*
X147955135Y-118592729D01*
X148209372Y-118487420D01*
X148438180Y-118334535D01*
X148632765Y-118139950D01*
X148785650Y-117911142D01*
X148817645Y-117833900D01*
X148849640Y-117911142D01*
X149002525Y-118139950D01*
X149197110Y-118334535D01*
X149425918Y-118487420D01*
X149680155Y-118592729D01*
X149950053Y-118646415D01*
X150225237Y-118646415D01*
X150495135Y-118592729D01*
X150749372Y-118487420D01*
X150978180Y-118334535D01*
X151172765Y-118139950D01*
X151325650Y-117911142D01*
X151357645Y-117833900D01*
X151389640Y-117911142D01*
X151542525Y-118139950D01*
X151737110Y-118334535D01*
X151965918Y-118487420D01*
X152220155Y-118592729D01*
X152490053Y-118646415D01*
X152765237Y-118646415D01*
X153035135Y-118592729D01*
X153289372Y-118487420D01*
X153518180Y-118334535D01*
X153712765Y-118139950D01*
X153865650Y-117911142D01*
X153897645Y-117833900D01*
X153929640Y-117911142D01*
X154082525Y-118139950D01*
X154277110Y-118334535D01*
X154377468Y-118401593D01*
X154346108Y-118418355D01*
X154230078Y-118513578D01*
X154206221Y-118542648D01*
X149172970Y-123575900D01*
X149113661Y-123575900D01*
X148913702Y-123615674D01*
X148725344Y-123693695D01*
X148555826Y-123806963D01*
X148411663Y-123951126D01*
X148298395Y-124120644D01*
X148220374Y-124309002D01*
X148180600Y-124508961D01*
X148180600Y-124712839D01*
X148220374Y-124912798D01*
X148298395Y-125101156D01*
X148411663Y-125270674D01*
X148555826Y-125414837D01*
X148725344Y-125528105D01*
X148913702Y-125606126D01*
X149113661Y-125645900D01*
X149317539Y-125645900D01*
X149517498Y-125606126D01*
X149705856Y-125528105D01*
X149875374Y-125414837D01*
X149980263Y-125309948D01*
X235649571Y-125309948D01*
X235702033Y-125627714D01*
X235815482Y-125929139D01*
X235985555Y-126202638D01*
X236205717Y-126437704D01*
X236401903Y-126578288D01*
X236974036Y-126908610D01*
X237193879Y-127008220D01*
X237507531Y-127081354D01*
X237829425Y-127091892D01*
X238147191Y-127039429D01*
X238448616Y-126925981D01*
X238722115Y-126755908D01*
X238957180Y-126535746D01*
X239144777Y-126273955D01*
X239277697Y-125980596D01*
X239350831Y-125666942D01*
X239361369Y-125345049D01*
X239308906Y-125027284D01*
X239195458Y-124725859D01*
X239025385Y-124452359D01*
X238826935Y-124240475D01*
X241237200Y-124240475D01*
X241237200Y-124759525D01*
X241338461Y-125268601D01*
X241537093Y-125748141D01*
X241825462Y-126179715D01*
X242192485Y-126546738D01*
X242624059Y-126835107D01*
X243103599Y-127033739D01*
X243612675Y-127135000D01*
X244131725Y-127135000D01*
X244640801Y-127033739D01*
X245120341Y-126835107D01*
X245551915Y-126546738D01*
X245918938Y-126179715D01*
X246207307Y-125748141D01*
X246405939Y-125268601D01*
X246507200Y-124759525D01*
X246507200Y-124240475D01*
X246405939Y-123731399D01*
X246207307Y-123251859D01*
X245918938Y-122820285D01*
X245551915Y-122453262D01*
X245120341Y-122164893D01*
X244640801Y-121966261D01*
X244131725Y-121865000D01*
X243612675Y-121865000D01*
X243103599Y-121966261D01*
X242624059Y-122164893D01*
X242192485Y-122453262D01*
X241825462Y-122820285D01*
X241537093Y-123251859D01*
X241338461Y-123731399D01*
X241237200Y-124240475D01*
X238826935Y-124240475D01*
X238805223Y-124217294D01*
X238609037Y-124076709D01*
X238036904Y-123746387D01*
X237817061Y-123646778D01*
X237503407Y-123573644D01*
X237181515Y-123563106D01*
X236863749Y-123615568D01*
X236562324Y-123729017D01*
X236288825Y-123899090D01*
X236053759Y-124119252D01*
X235866162Y-124381043D01*
X235733243Y-124674402D01*
X235660109Y-124988056D01*
X235649571Y-125309948D01*
X149980263Y-125309948D01*
X150019537Y-125270674D01*
X150132805Y-125101156D01*
X150210826Y-124912798D01*
X150250600Y-124712839D01*
X150250600Y-124653530D01*
X154181610Y-120722521D01*
X154228943Y-120769854D01*
X154398461Y-120883122D01*
X154586819Y-120961143D01*
X154786778Y-121000917D01*
X154990656Y-121000917D01*
X155190615Y-120961143D01*
X155378973Y-120883122D01*
X155548491Y-120769854D01*
X155590428Y-120727917D01*
X189183360Y-120727917D01*
X189220783Y-120731603D01*
X189258206Y-120727917D01*
X189258209Y-120727917D01*
X189370161Y-120716891D01*
X189513798Y-120673319D01*
X189646175Y-120602562D01*
X189762205Y-120507339D01*
X189786067Y-120478263D01*
X190103030Y-120161300D01*
X219185328Y-120161300D01*
X219197588Y-120285782D01*
X219233898Y-120405480D01*
X219292863Y-120515794D01*
X219372215Y-120612485D01*
X219468906Y-120691837D01*
X219579220Y-120750802D01*
X219698918Y-120787112D01*
X219823400Y-120799372D01*
X220387650Y-120796300D01*
X220546400Y-120637550D01*
X220546400Y-119788300D01*
X220800400Y-119788300D01*
X220800400Y-120637550D01*
X220959150Y-120796300D01*
X221523400Y-120799372D01*
X221647882Y-120787112D01*
X221767580Y-120750802D01*
X221877894Y-120691837D01*
X221974585Y-120612485D01*
X222053937Y-120515794D01*
X222112902Y-120405480D01*
X222149212Y-120285782D01*
X222161472Y-120161300D01*
X225485328Y-120161300D01*
X225497588Y-120285782D01*
X225533898Y-120405480D01*
X225592863Y-120515794D01*
X225672215Y-120612485D01*
X225768906Y-120691837D01*
X225879220Y-120750802D01*
X225998918Y-120787112D01*
X226123400Y-120799372D01*
X226687650Y-120796300D01*
X226846400Y-120637550D01*
X226846400Y-119788300D01*
X227100400Y-119788300D01*
X227100400Y-120637550D01*
X227259150Y-120796300D01*
X227823400Y-120799372D01*
X227947882Y-120787112D01*
X228067580Y-120750802D01*
X228177894Y-120691837D01*
X228274585Y-120612485D01*
X228353937Y-120515794D01*
X228412902Y-120405480D01*
X228449212Y-120285782D01*
X228461472Y-120161300D01*
X228458400Y-119947050D01*
X228299650Y-119788300D01*
X227100400Y-119788300D01*
X226846400Y-119788300D01*
X225647150Y-119788300D01*
X225488400Y-119947050D01*
X225485328Y-120161300D01*
X222161472Y-120161300D01*
X222158400Y-119947050D01*
X221999650Y-119788300D01*
X220800400Y-119788300D01*
X220546400Y-119788300D01*
X219347150Y-119788300D01*
X219188400Y-119947050D01*
X219185328Y-120161300D01*
X190103030Y-120161300D01*
X191103030Y-119161300D01*
X219185328Y-119161300D01*
X219188400Y-119375550D01*
X219347150Y-119534300D01*
X220546400Y-119534300D01*
X220546400Y-118685050D01*
X220800400Y-118685050D01*
X220800400Y-119534300D01*
X221999650Y-119534300D01*
X222158400Y-119375550D01*
X222161472Y-119161300D01*
X225485328Y-119161300D01*
X225488400Y-119375550D01*
X225647150Y-119534300D01*
X226846400Y-119534300D01*
X226846400Y-118685050D01*
X227100400Y-118685050D01*
X227100400Y-119534300D01*
X228299650Y-119534300D01*
X228458400Y-119375550D01*
X228461472Y-119161300D01*
X228449212Y-119036818D01*
X228412902Y-118917120D01*
X228353937Y-118806806D01*
X228274585Y-118710115D01*
X228177894Y-118630763D01*
X228067580Y-118571798D01*
X227947882Y-118535488D01*
X227823400Y-118523228D01*
X227259150Y-118526300D01*
X227100400Y-118685050D01*
X226846400Y-118685050D01*
X226687650Y-118526300D01*
X226123400Y-118523228D01*
X225998918Y-118535488D01*
X225879220Y-118571798D01*
X225768906Y-118630763D01*
X225672215Y-118710115D01*
X225592863Y-118806806D01*
X225533898Y-118917120D01*
X225497588Y-119036818D01*
X225485328Y-119161300D01*
X222161472Y-119161300D01*
X222149212Y-119036818D01*
X222112902Y-118917120D01*
X222053937Y-118806806D01*
X221974585Y-118710115D01*
X221877894Y-118630763D01*
X221767580Y-118571798D01*
X221647882Y-118535488D01*
X221523400Y-118523228D01*
X220959150Y-118526300D01*
X220800400Y-118685050D01*
X220546400Y-118685050D01*
X220387650Y-118526300D01*
X219823400Y-118523228D01*
X219698918Y-118535488D01*
X219579220Y-118571798D01*
X219468906Y-118630763D01*
X219372215Y-118710115D01*
X219292863Y-118806806D01*
X219233898Y-118917120D01*
X219197588Y-119036818D01*
X219185328Y-119161300D01*
X191103030Y-119161300D01*
X194903030Y-115361300D01*
X219185328Y-115361300D01*
X219185328Y-116361300D01*
X219197588Y-116485782D01*
X219233898Y-116605480D01*
X219292863Y-116715794D01*
X219372215Y-116812485D01*
X219468906Y-116891837D01*
X219579220Y-116950802D01*
X219698918Y-116987112D01*
X219823400Y-116999372D01*
X221523400Y-116999372D01*
X221647882Y-116987112D01*
X221767580Y-116950802D01*
X221877894Y-116891837D01*
X221974585Y-116812485D01*
X222053937Y-116715794D01*
X222103377Y-116623300D01*
X223140589Y-116623300D01*
X223182526Y-116665237D01*
X223352044Y-116778505D01*
X223540402Y-116856526D01*
X223740361Y-116896300D01*
X223944239Y-116896300D01*
X224144198Y-116856526D01*
X224332556Y-116778505D01*
X224502074Y-116665237D01*
X224544011Y-116623300D01*
X225543423Y-116623300D01*
X225592863Y-116715794D01*
X225672215Y-116812485D01*
X225768906Y-116891837D01*
X225879220Y-116950802D01*
X225998918Y-116987112D01*
X226123400Y-116999372D01*
X227823400Y-116999372D01*
X227947882Y-116987112D01*
X228067580Y-116950802D01*
X228177894Y-116891837D01*
X228274585Y-116812485D01*
X228353937Y-116715794D01*
X228412902Y-116605480D01*
X228449212Y-116485782D01*
X228461472Y-116361300D01*
X228461472Y-115361300D01*
X228449212Y-115236818D01*
X228412902Y-115117120D01*
X228353937Y-115006806D01*
X228274585Y-114910115D01*
X228177894Y-114830763D01*
X228067580Y-114771798D01*
X227947882Y-114735488D01*
X227823400Y-114723228D01*
X226123400Y-114723228D01*
X225998918Y-114735488D01*
X225879220Y-114771798D01*
X225768906Y-114830763D01*
X225672215Y-114910115D01*
X225592863Y-115006806D01*
X225543423Y-115099300D01*
X224544011Y-115099300D01*
X224502074Y-115057363D01*
X224332556Y-114944095D01*
X224144198Y-114866074D01*
X223944239Y-114826300D01*
X223740361Y-114826300D01*
X223540402Y-114866074D01*
X223352044Y-114944095D01*
X223182526Y-115057363D01*
X223140589Y-115099300D01*
X222103377Y-115099300D01*
X222053937Y-115006806D01*
X221974585Y-114910115D01*
X221877894Y-114830763D01*
X221767580Y-114771798D01*
X221647882Y-114735488D01*
X221523400Y-114723228D01*
X219823400Y-114723228D01*
X219698918Y-114735488D01*
X219579220Y-114771798D01*
X219468906Y-114830763D01*
X219372215Y-114910115D01*
X219292863Y-115006806D01*
X219233898Y-115117120D01*
X219197588Y-115236818D01*
X219185328Y-115361300D01*
X194903030Y-115361300D01*
X208133230Y-102131100D01*
X222035328Y-102131100D01*
X222047588Y-102255582D01*
X222083898Y-102375280D01*
X222142863Y-102485594D01*
X222222215Y-102582285D01*
X222318906Y-102661637D01*
X222429220Y-102720602D01*
X222548918Y-102756912D01*
X222673400Y-102769172D01*
X222887650Y-102766100D01*
X223046400Y-102607350D01*
X223046400Y-101508100D01*
X222197150Y-101508100D01*
X222038400Y-101666850D01*
X222035328Y-102131100D01*
X208133230Y-102131100D01*
X209633230Y-100631100D01*
X222035328Y-100631100D01*
X222038400Y-101095350D01*
X222197150Y-101254100D01*
X223046400Y-101254100D01*
X223046400Y-100154850D01*
X222887650Y-99996100D01*
X222673400Y-99993028D01*
X222548918Y-100005288D01*
X222429220Y-100041598D01*
X222318906Y-100100563D01*
X222222215Y-100179915D01*
X222142863Y-100276606D01*
X222083898Y-100386920D01*
X222047588Y-100506618D01*
X222035328Y-100631100D01*
X209633230Y-100631100D01*
X210988681Y-99275650D01*
X211047989Y-99275650D01*
X211247948Y-99235876D01*
X211436306Y-99157855D01*
X211605824Y-99044587D01*
X211749987Y-98900424D01*
X211863255Y-98730906D01*
X211941276Y-98542548D01*
X211981050Y-98342589D01*
X211981050Y-98283280D01*
X214758331Y-95506000D01*
X216584287Y-95506000D01*
X216556595Y-95547444D01*
X216478574Y-95735802D01*
X216438800Y-95935761D01*
X216438800Y-96139639D01*
X216478574Y-96339598D01*
X216556595Y-96527956D01*
X216669863Y-96697474D01*
X216814026Y-96841637D01*
X216983544Y-96954905D01*
X217171902Y-97032926D01*
X217333796Y-97065129D01*
X218742506Y-98473839D01*
X218768359Y-98505341D01*
X218813696Y-98542548D01*
X218894057Y-98608499D01*
X219001712Y-98666042D01*
X219037466Y-98685153D01*
X219193074Y-98732356D01*
X219314347Y-98744300D01*
X219314349Y-98744300D01*
X219354899Y-98748294D01*
X219395450Y-98744300D01*
X222042764Y-98744300D01*
X222047588Y-98793282D01*
X222083898Y-98912980D01*
X222142863Y-99023294D01*
X222222215Y-99119985D01*
X222318906Y-99199337D01*
X222429220Y-99258302D01*
X222548918Y-99294612D01*
X222673400Y-99306872D01*
X223673400Y-99306872D01*
X223797882Y-99294612D01*
X223823400Y-99286871D01*
X223848918Y-99294612D01*
X223973400Y-99306872D01*
X224973400Y-99306872D01*
X225097882Y-99294612D01*
X225217580Y-99258302D01*
X225327894Y-99199337D01*
X225424585Y-99119985D01*
X225503937Y-99023294D01*
X225562902Y-98912980D01*
X225599212Y-98793282D01*
X225610290Y-98680800D01*
X231582312Y-98680800D01*
X231685958Y-98736200D01*
X231552999Y-98807268D01*
X231334492Y-98986592D01*
X231155168Y-99205099D01*
X231021918Y-99454392D01*
X230939864Y-99724891D01*
X230912157Y-100006200D01*
X230939864Y-100287509D01*
X230999282Y-100483387D01*
X230863570Y-100619100D01*
X225610290Y-100619100D01*
X225599212Y-100506618D01*
X225562902Y-100386920D01*
X225503937Y-100276606D01*
X225424585Y-100179915D01*
X225327894Y-100100563D01*
X225217580Y-100041598D01*
X225097882Y-100005288D01*
X224973400Y-99993028D01*
X223973400Y-99993028D01*
X223848918Y-100005288D01*
X223823400Y-100013029D01*
X223797882Y-100005288D01*
X223673400Y-99993028D01*
X223459150Y-99996100D01*
X223300400Y-100154850D01*
X223300400Y-101254100D01*
X223320400Y-101254100D01*
X223320400Y-101508100D01*
X223300400Y-101508100D01*
X223300400Y-102607350D01*
X223459150Y-102766100D01*
X223673400Y-102769172D01*
X223797882Y-102756912D01*
X223823400Y-102749171D01*
X223848918Y-102756912D01*
X223973400Y-102769172D01*
X224973400Y-102769172D01*
X225097882Y-102756912D01*
X225217580Y-102720602D01*
X225327894Y-102661637D01*
X225424585Y-102582285D01*
X225503937Y-102485594D01*
X225562902Y-102375280D01*
X225599212Y-102255582D01*
X225610290Y-102143100D01*
X231141777Y-102143100D01*
X231179200Y-102146786D01*
X231216623Y-102143100D01*
X231216626Y-102143100D01*
X231328578Y-102132074D01*
X231472215Y-102088502D01*
X231604592Y-102017745D01*
X231720622Y-101922522D01*
X231744484Y-101893446D01*
X232204520Y-101433410D01*
X232283608Y-101441200D01*
X232824592Y-101441200D01*
X233035409Y-101420436D01*
X233305908Y-101338382D01*
X233555201Y-101205132D01*
X233773708Y-101025808D01*
X233953032Y-100807301D01*
X234086282Y-100558008D01*
X234168336Y-100287509D01*
X234196043Y-100006200D01*
X234168336Y-99724891D01*
X234086282Y-99454392D01*
X233953032Y-99205099D01*
X233773708Y-98986592D01*
X233555201Y-98807268D01*
X233422242Y-98736200D01*
X233555201Y-98665132D01*
X233773708Y-98485808D01*
X233953032Y-98267301D01*
X234086282Y-98018008D01*
X234168336Y-97747509D01*
X234196043Y-97466200D01*
X234168336Y-97184891D01*
X234086282Y-96914392D01*
X233953032Y-96665099D01*
X233773708Y-96446592D01*
X233555201Y-96267268D01*
X233422242Y-96196200D01*
X233555201Y-96125132D01*
X233773708Y-95945808D01*
X233953032Y-95727301D01*
X234086282Y-95478008D01*
X234168336Y-95207509D01*
X234196043Y-94926200D01*
X234168336Y-94644891D01*
X234086282Y-94374392D01*
X233953032Y-94125099D01*
X233773708Y-93906592D01*
X233555201Y-93727268D01*
X233422242Y-93656200D01*
X233555201Y-93585132D01*
X233773708Y-93405808D01*
X233953032Y-93187301D01*
X234086282Y-92938008D01*
X234168336Y-92667509D01*
X234196043Y-92386200D01*
X234168336Y-92104891D01*
X234086282Y-91834392D01*
X233953032Y-91585099D01*
X233773708Y-91366592D01*
X233555201Y-91187268D01*
X233305908Y-91054018D01*
X233035409Y-90971964D01*
X232824592Y-90951200D01*
X232283608Y-90951200D01*
X232195755Y-90959853D01*
X232162492Y-90932555D01*
X232030115Y-90861798D01*
X231886478Y-90818226D01*
X231774526Y-90807200D01*
X231774523Y-90807200D01*
X231737100Y-90803514D01*
X231699677Y-90807200D01*
X225610290Y-90807200D01*
X225599212Y-90694718D01*
X225562902Y-90575020D01*
X225503937Y-90464706D01*
X225424585Y-90368015D01*
X225327894Y-90288663D01*
X225217580Y-90229698D01*
X225097882Y-90193388D01*
X224973400Y-90181128D01*
X223973400Y-90181128D01*
X223848918Y-90193388D01*
X223823400Y-90201129D01*
X223797882Y-90193388D01*
X223673400Y-90181128D01*
X222673400Y-90181128D01*
X222548918Y-90193388D01*
X222429220Y-90229698D01*
X222318906Y-90288663D01*
X222222215Y-90368015D01*
X222142863Y-90464706D01*
X222083898Y-90575020D01*
X222047588Y-90694718D01*
X222036510Y-90807200D01*
X214480122Y-90807200D01*
X214442699Y-90803514D01*
X214405276Y-90807200D01*
X214405274Y-90807200D01*
X214293322Y-90818226D01*
X214149685Y-90861798D01*
X214017308Y-90932555D01*
X213901278Y-91027778D01*
X213877421Y-91056848D01*
X204553820Y-100380450D01*
X204494511Y-100380450D01*
X204294552Y-100420224D01*
X204106194Y-100498245D01*
X203936676Y-100611513D01*
X203792513Y-100755676D01*
X203679245Y-100925194D01*
X203601224Y-101113552D01*
X203561450Y-101313511D01*
X203561450Y-101372819D01*
X186641270Y-118293000D01*
X163719715Y-118293000D01*
X163872765Y-118139950D01*
X164025650Y-117911142D01*
X164130959Y-117656905D01*
X164184645Y-117387007D01*
X164184645Y-117111823D01*
X164130959Y-116841925D01*
X164025650Y-116587688D01*
X163872765Y-116358880D01*
X163678180Y-116164295D01*
X163449372Y-116011410D01*
X163195135Y-115906101D01*
X162988900Y-115865078D01*
X162988900Y-115813008D01*
X162935214Y-115543110D01*
X162829905Y-115288873D01*
X162677020Y-115060065D01*
X162482435Y-114865480D01*
X162353900Y-114779595D01*
X162353900Y-110169130D01*
X163299997Y-109223034D01*
X163329067Y-109199177D01*
X163356417Y-109165851D01*
X163424290Y-109083148D01*
X163473501Y-108991079D01*
X163495047Y-108950770D01*
X163538619Y-108807133D01*
X163549645Y-108695181D01*
X163549645Y-108695178D01*
X163553331Y-108657755D01*
X163549645Y-108620332D01*
X163549645Y-103180420D01*
X163678180Y-103094535D01*
X163872765Y-102899950D01*
X164025650Y-102671142D01*
X164130959Y-102416905D01*
X164184645Y-102147007D01*
X164184645Y-101871823D01*
X164130959Y-101601925D01*
X164025650Y-101347688D01*
X163872765Y-101118880D01*
X163678180Y-100924295D01*
X163449372Y-100771410D01*
X163195135Y-100666101D01*
X162988900Y-100625078D01*
X162988900Y-100573008D01*
X162935214Y-100303110D01*
X162829905Y-100048873D01*
X162677020Y-99820065D01*
X162482435Y-99625480D01*
X162353900Y-99539595D01*
X162353900Y-94295130D01*
X164014553Y-92634478D01*
X164043622Y-92610622D01*
X164138845Y-92494592D01*
X164209602Y-92362215D01*
X164253174Y-92218578D01*
X164264200Y-92106626D01*
X164264200Y-92106624D01*
X164267886Y-92069201D01*
X164264200Y-92031778D01*
X164264200Y-90453257D01*
X164380915Y-90417852D01*
X164664952Y-90266031D01*
X164913914Y-90061714D01*
X165118231Y-89812752D01*
X165270052Y-89528715D01*
X165363543Y-89220516D01*
X165395111Y-88900000D01*
X165363543Y-88579484D01*
X165270052Y-88271285D01*
X165118231Y-87987248D01*
X164913914Y-87738286D01*
X164664952Y-87533969D01*
X164380915Y-87382148D01*
X164072716Y-87288657D01*
X163832522Y-87265000D01*
X163171878Y-87265000D01*
X162931684Y-87288657D01*
X162623485Y-87382148D01*
X162339448Y-87533969D01*
X162090486Y-87738286D01*
X161886169Y-87987248D01*
X161808584Y-88132400D01*
X159727783Y-88132400D01*
X159813914Y-88061714D01*
X160018231Y-87812752D01*
X160170052Y-87528715D01*
X160263543Y-87220516D01*
X160295111Y-86900000D01*
X166709289Y-86900000D01*
X166740857Y-87220516D01*
X166834348Y-87528715D01*
X166986169Y-87812752D01*
X167190486Y-88061714D01*
X167439448Y-88266031D01*
X167723485Y-88417852D01*
X168031684Y-88511343D01*
X168271878Y-88535000D01*
X168932522Y-88535000D01*
X169172716Y-88511343D01*
X169480915Y-88417852D01*
X169764952Y-88266031D01*
X170013914Y-88061714D01*
X170218231Y-87812752D01*
X170370052Y-87528715D01*
X170463543Y-87220516D01*
X170495111Y-86900000D01*
X170463543Y-86579484D01*
X170370052Y-86271285D01*
X170218231Y-85987248D01*
X170013914Y-85738286D01*
X169764952Y-85533969D01*
X169480915Y-85382148D01*
X169172716Y-85288657D01*
X168932522Y-85265000D01*
X168271878Y-85265000D01*
X168031684Y-85288657D01*
X167723485Y-85382148D01*
X167439448Y-85533969D01*
X167190486Y-85738286D01*
X166986169Y-85987248D01*
X166834348Y-86271285D01*
X166740857Y-86579484D01*
X166709289Y-86900000D01*
X160295111Y-86900000D01*
X160263543Y-86579484D01*
X160170052Y-86271285D01*
X160018231Y-85987248D01*
X159813914Y-85738286D01*
X159564952Y-85533969D01*
X159280915Y-85382148D01*
X158972716Y-85288657D01*
X158732522Y-85265000D01*
X158071878Y-85265000D01*
X157831684Y-85288657D01*
X157523485Y-85382148D01*
X157239448Y-85533969D01*
X156990486Y-85738286D01*
X156786169Y-85987248D01*
X156634348Y-86271285D01*
X156540857Y-86579484D01*
X156509289Y-86900000D01*
X156540857Y-87220516D01*
X156634348Y-87528715D01*
X156786169Y-87812752D01*
X156990486Y-88061714D01*
X157076617Y-88132400D01*
X156674531Y-88132400D01*
X154739800Y-86197670D01*
X154739800Y-82024493D01*
X158082294Y-78682000D01*
X159265590Y-78682000D01*
X159343018Y-78826858D01*
X159121684Y-78848657D01*
X158813485Y-78942148D01*
X158529448Y-79093969D01*
X158280486Y-79298286D01*
X158076169Y-79547248D01*
X157924348Y-79831285D01*
X157830857Y-80139484D01*
X157799289Y-80460000D01*
X157830857Y-80780516D01*
X157924348Y-81088715D01*
X158045300Y-81315000D01*
X157836242Y-81315000D01*
X157510704Y-81379754D01*
X157204053Y-81506772D01*
X156928075Y-81691175D01*
X156693375Y-81925875D01*
X156508972Y-82201853D01*
X156381954Y-82508504D01*
X156317200Y-82834042D01*
X156317200Y-83165958D01*
X156381954Y-83491496D01*
X156508972Y-83798147D01*
X156693375Y-84074125D01*
X156928075Y-84308825D01*
X157204053Y-84493228D01*
X157510704Y-84620246D01*
X157836242Y-84685000D01*
X158168158Y-84685000D01*
X158493696Y-84620246D01*
X158579231Y-84584817D01*
X158884527Y-84524089D01*
X159172979Y-84404609D01*
X159432579Y-84231150D01*
X159653350Y-84010379D01*
X159826809Y-83750779D01*
X159946289Y-83462327D01*
X160007200Y-83156109D01*
X160007200Y-82843891D01*
X159986630Y-82740475D01*
X160867200Y-82740475D01*
X160867200Y-83259525D01*
X160968461Y-83768601D01*
X161167093Y-84248141D01*
X161455462Y-84679715D01*
X161822485Y-85046738D01*
X162254059Y-85335107D01*
X162733599Y-85533739D01*
X163242675Y-85635000D01*
X163761725Y-85635000D01*
X164270801Y-85533739D01*
X164750341Y-85335107D01*
X165181915Y-85046738D01*
X165548938Y-84679715D01*
X165837307Y-84248141D01*
X166035939Y-83768601D01*
X166137200Y-83259525D01*
X166137200Y-82740475D01*
X166035939Y-82231399D01*
X165837307Y-81751859D01*
X165548938Y-81320285D01*
X165181915Y-80953262D01*
X164750341Y-80664893D01*
X164270801Y-80466261D01*
X163761725Y-80365000D01*
X163242675Y-80365000D01*
X162733599Y-80466261D01*
X162254059Y-80664893D01*
X161822485Y-80953262D01*
X161455462Y-81320285D01*
X161167093Y-81751859D01*
X160968461Y-82231399D01*
X160867200Y-82740475D01*
X159986630Y-82740475D01*
X159946289Y-82537673D01*
X159826809Y-82249221D01*
X159723762Y-82095000D01*
X160022522Y-82095000D01*
X160262716Y-82071343D01*
X160570915Y-81977852D01*
X160854952Y-81826031D01*
X161103914Y-81621714D01*
X161308231Y-81372752D01*
X161460052Y-81088715D01*
X161553543Y-80780516D01*
X161585111Y-80460000D01*
X161553543Y-80139484D01*
X161460052Y-79831285D01*
X161311382Y-79553142D01*
X161532716Y-79531343D01*
X161840915Y-79437852D01*
X162124952Y-79286031D01*
X162373914Y-79081714D01*
X162578231Y-78832752D01*
X162658810Y-78682000D01*
X164345590Y-78682000D01*
X164426169Y-78832752D01*
X164630486Y-79081714D01*
X164879448Y-79286031D01*
X165163485Y-79437852D01*
X165471684Y-79531343D01*
X165693018Y-79553142D01*
X165544348Y-79831285D01*
X165450857Y-80139484D01*
X165419289Y-80460000D01*
X165450857Y-80780516D01*
X165544348Y-81088715D01*
X165696169Y-81372752D01*
X165900486Y-81621714D01*
X166149448Y-81826031D01*
X166433485Y-81977852D01*
X166741684Y-82071343D01*
X166981878Y-82095000D01*
X167280638Y-82095000D01*
X167177591Y-82249221D01*
X167058111Y-82537673D01*
X166997200Y-82843891D01*
X166997200Y-83156109D01*
X167058111Y-83462327D01*
X167177591Y-83750779D01*
X167351050Y-84010379D01*
X167571821Y-84231150D01*
X167831421Y-84404609D01*
X168119873Y-84524089D01*
X168425169Y-84584817D01*
X168510704Y-84620246D01*
X168836242Y-84685000D01*
X169168158Y-84685000D01*
X169493696Y-84620246D01*
X169800347Y-84493228D01*
X170076325Y-84308825D01*
X170311025Y-84074125D01*
X170495428Y-83798147D01*
X170622446Y-83491496D01*
X170687200Y-83165958D01*
X170687200Y-82834042D01*
X170622446Y-82508504D01*
X170495428Y-82201853D01*
X170311025Y-81925875D01*
X170076325Y-81691175D01*
X169800347Y-81506772D01*
X169493696Y-81379754D01*
X169168158Y-81315000D01*
X168959100Y-81315000D01*
X169080052Y-81088715D01*
X169173543Y-80780516D01*
X169205111Y-80460000D01*
X169173543Y-80139484D01*
X169080052Y-79831285D01*
X168928231Y-79547248D01*
X168723914Y-79298286D01*
X168474952Y-79093969D01*
X168190915Y-78942148D01*
X167882716Y-78848657D01*
X167661382Y-78826858D01*
X167810052Y-78548715D01*
X167903543Y-78240516D01*
X167935111Y-77920000D01*
X167903543Y-77599484D01*
X167810052Y-77291285D01*
X167788628Y-77251203D01*
X168226403Y-76813428D01*
X168254163Y-76854974D01*
X168398326Y-76999137D01*
X168567844Y-77112405D01*
X168756202Y-77190426D01*
X168918097Y-77222629D01*
X181938607Y-90243140D01*
X181964459Y-90274641D01*
X182028596Y-90327277D01*
X182090157Y-90377799D01*
X182220345Y-90447386D01*
X182233566Y-90454453D01*
X182389174Y-90501656D01*
X182510447Y-90513600D01*
X182510449Y-90513600D01*
X182550999Y-90517594D01*
X182591550Y-90513600D01*
X217639997Y-90513600D01*
X217777244Y-90605305D01*
X217965602Y-90683326D01*
X218165561Y-90723100D01*
X218369439Y-90723100D01*
X218569398Y-90683326D01*
X218757756Y-90605305D01*
X218927274Y-90492037D01*
X219071437Y-90347874D01*
X219184705Y-90178356D01*
X219262726Y-89989998D01*
X219294928Y-89828104D01*
X219984666Y-89138368D01*
X225789165Y-89138368D01*
X225926412Y-89230073D01*
X226114770Y-89308094D01*
X226314729Y-89347868D01*
X226518607Y-89347868D01*
X226718566Y-89308094D01*
X226906924Y-89230073D01*
X227076442Y-89116805D01*
X227220605Y-88972642D01*
X227333873Y-88803124D01*
X227411894Y-88614766D01*
X227451668Y-88414807D01*
X227451668Y-88210929D01*
X227411894Y-88010970D01*
X227333873Y-87822612D01*
X227220605Y-87653094D01*
X227076442Y-87508931D01*
X226906924Y-87395663D01*
X226718566Y-87317642D01*
X226518607Y-87277868D01*
X226314729Y-87277868D01*
X226114770Y-87317642D01*
X225926412Y-87395663D01*
X225789165Y-87487368D01*
X219683282Y-87487368D01*
X219642732Y-87483374D01*
X219602181Y-87487368D01*
X219602179Y-87487368D01*
X219480906Y-87499312D01*
X219374091Y-87531714D01*
X219325298Y-87546515D01*
X219181889Y-87623169D01*
X219087690Y-87700476D01*
X219087687Y-87700479D01*
X219056191Y-87726327D01*
X219030343Y-87757823D01*
X218127496Y-88660672D01*
X217965602Y-88692874D01*
X217777244Y-88770895D01*
X217639997Y-88862600D01*
X182892933Y-88862600D01*
X170085529Y-76055197D01*
X170053326Y-75893302D01*
X169975305Y-75704944D01*
X169862037Y-75535426D01*
X169717874Y-75391263D01*
X169676328Y-75363503D01*
X170825350Y-74214480D01*
X170825350Y-75512227D01*
X170821664Y-75549650D01*
X170825350Y-75587073D01*
X170825350Y-75587075D01*
X170836376Y-75699027D01*
X170879948Y-75842664D01*
X170906227Y-75891828D01*
X170950705Y-75975042D01*
X170977796Y-76008052D01*
X171045928Y-76091072D01*
X171075004Y-76114934D01*
X172372421Y-77412352D01*
X172396278Y-77441422D01*
X172512308Y-77536645D01*
X172644685Y-77607402D01*
X172788322Y-77650974D01*
X172900274Y-77662000D01*
X172900276Y-77662000D01*
X172937699Y-77665686D01*
X172975122Y-77662000D01*
X180854390Y-77662000D01*
X180934969Y-77812752D01*
X181139286Y-78061714D01*
X181388248Y-78266031D01*
X181672285Y-78417852D01*
X181980484Y-78511343D01*
X182220678Y-78535000D01*
X182881322Y-78535000D01*
X183121516Y-78511343D01*
X183429715Y-78417852D01*
X183713752Y-78266031D01*
X183962714Y-78061714D01*
X184167031Y-77812752D01*
X184247610Y-77662000D01*
X195562377Y-77662000D01*
X195599800Y-77665686D01*
X195637223Y-77662000D01*
X195637226Y-77662000D01*
X195749178Y-77650974D01*
X195892815Y-77607402D01*
X196025192Y-77536645D01*
X196141222Y-77441422D01*
X196165084Y-77412346D01*
X201062788Y-72514643D01*
X201269478Y-72535000D01*
X201930122Y-72535000D01*
X202136813Y-72514643D01*
X206534516Y-76912346D01*
X206558378Y-76941422D01*
X206615714Y-76988476D01*
X206674407Y-77036645D01*
X206739952Y-77071679D01*
X206806785Y-77107402D01*
X206950422Y-77150974D01*
X207062374Y-77162000D01*
X207062377Y-77162000D01*
X207099800Y-77165686D01*
X207137223Y-77162000D01*
X218951990Y-77162000D01*
X219032569Y-77312752D01*
X219236886Y-77561714D01*
X219485848Y-77766031D01*
X219769885Y-77917852D01*
X220078084Y-78011343D01*
X220318278Y-78035000D01*
X220978922Y-78035000D01*
X221219116Y-78011343D01*
X221527315Y-77917852D01*
X221811352Y-77766031D01*
X222060314Y-77561714D01*
X222264631Y-77312752D01*
X222345210Y-77162000D01*
X230855870Y-77162000D01*
X243450495Y-89756626D01*
X243450496Y-117163930D01*
X243269349Y-117232109D01*
X242995850Y-117402182D01*
X242760784Y-117622344D01*
X242573187Y-117884135D01*
X242440268Y-118177494D01*
X242367134Y-118491148D01*
X242356815Y-118806362D01*
X242154234Y-118714574D01*
X241840580Y-118641440D01*
X241518688Y-118630902D01*
X241200922Y-118683364D01*
X240899497Y-118796813D01*
X240625998Y-118966886D01*
X240390932Y-119187048D01*
X240203335Y-119448839D01*
X240070416Y-119742198D01*
X239997282Y-120055852D01*
X239988917Y-120311369D01*
X239907207Y-120256772D01*
X239600556Y-120129754D01*
X239275018Y-120065000D01*
X238943102Y-120065000D01*
X238617564Y-120129754D01*
X238310913Y-120256772D01*
X238034935Y-120441175D01*
X237800235Y-120675875D01*
X237615832Y-120951853D01*
X237488814Y-121258504D01*
X237424060Y-121584042D01*
X237424060Y-121915958D01*
X237488814Y-122241496D01*
X237615832Y-122548147D01*
X237800235Y-122824125D01*
X238034935Y-123058825D01*
X238310913Y-123243228D01*
X238617564Y-123370246D01*
X238844694Y-123415425D01*
X239010464Y-123484089D01*
X239316682Y-123545000D01*
X239628900Y-123545000D01*
X239935118Y-123484089D01*
X240223570Y-123364609D01*
X240483170Y-123191150D01*
X240703941Y-122970379D01*
X240877400Y-122710779D01*
X240996880Y-122422327D01*
X241057791Y-122116109D01*
X241057791Y-121830095D01*
X241311209Y-121976406D01*
X241531052Y-122076016D01*
X241844704Y-122149150D01*
X242166598Y-122159688D01*
X242484364Y-122107225D01*
X242785789Y-121993777D01*
X243059288Y-121823704D01*
X243294353Y-121603542D01*
X243481950Y-121341751D01*
X243614870Y-121048392D01*
X243688004Y-120734738D01*
X243698323Y-120419524D01*
X243900904Y-120511312D01*
X244214556Y-120584446D01*
X244536450Y-120594984D01*
X244854216Y-120542521D01*
X245155641Y-120429073D01*
X245328629Y-120321502D01*
X245667627Y-120509639D01*
X246762352Y-121159196D01*
X246756006Y-121353040D01*
X246808468Y-121670806D01*
X246921917Y-121972231D01*
X247091990Y-122245730D01*
X247312152Y-122480796D01*
X247492935Y-122610343D01*
X247225112Y-122776886D01*
X246990046Y-122997048D01*
X246802449Y-123258839D01*
X246669530Y-123552198D01*
X246596396Y-123865852D01*
X246585858Y-124187744D01*
X246638320Y-124505510D01*
X246751769Y-124806935D01*
X246921842Y-125080434D01*
X247142004Y-125315500D01*
X247338190Y-125456084D01*
X247595318Y-125604537D01*
X247520830Y-125635391D01*
X247261230Y-125808850D01*
X247040459Y-126029621D01*
X246867000Y-126289221D01*
X246747520Y-126577673D01*
X246686609Y-126883891D01*
X246686609Y-127196109D01*
X246747520Y-127502327D01*
X246867000Y-127790779D01*
X247040459Y-128050379D01*
X247261230Y-128271150D01*
X247315225Y-128307228D01*
X247326515Y-128324125D01*
X247561215Y-128558825D01*
X247837193Y-128743228D01*
X248143844Y-128870246D01*
X248469382Y-128935000D01*
X248801298Y-128935000D01*
X249126836Y-128870246D01*
X249433487Y-128743228D01*
X249709465Y-128558825D01*
X249944165Y-128324125D01*
X250128568Y-128048147D01*
X250255586Y-127741496D01*
X250320340Y-127415958D01*
X250320340Y-127084042D01*
X250255586Y-126758504D01*
X250128568Y-126451853D01*
X249944165Y-126175875D01*
X249709465Y-125941175D01*
X249446505Y-125765470D01*
X249658402Y-125633704D01*
X249893467Y-125413542D01*
X250081064Y-125151751D01*
X250213984Y-124858392D01*
X250287118Y-124544738D01*
X250297656Y-124222845D01*
X250280082Y-124116398D01*
X251634600Y-125470917D01*
X251634601Y-129057469D01*
X248112470Y-132579600D01*
X244969880Y-132579600D01*
X242800228Y-130409948D01*
X244483031Y-130409948D01*
X244535493Y-130727714D01*
X244648942Y-131029139D01*
X244819015Y-131302638D01*
X245039177Y-131537704D01*
X245235363Y-131678288D01*
X245807496Y-132008610D01*
X246027339Y-132108220D01*
X246340991Y-132181354D01*
X246662885Y-132191892D01*
X246980651Y-132139429D01*
X247282076Y-132025981D01*
X247555575Y-131855908D01*
X247790640Y-131635746D01*
X247978237Y-131373955D01*
X248111157Y-131080596D01*
X248184291Y-130766942D01*
X248194829Y-130445049D01*
X248142366Y-130127284D01*
X248028918Y-129825859D01*
X247858845Y-129552359D01*
X247638683Y-129317294D01*
X247442497Y-129176709D01*
X246870364Y-128846387D01*
X246650521Y-128746778D01*
X246336867Y-128673644D01*
X246014975Y-128663106D01*
X245697209Y-128715568D01*
X245395784Y-128829017D01*
X245122285Y-128999090D01*
X244887219Y-129219252D01*
X244699622Y-129481043D01*
X244566703Y-129774402D01*
X244493569Y-130088056D01*
X244483031Y-130409948D01*
X242800228Y-130409948D01*
X242681487Y-130291207D01*
X242694427Y-130262647D01*
X242767561Y-129948993D01*
X242778099Y-129627100D01*
X242725636Y-129309335D01*
X242612188Y-129007910D01*
X242442115Y-128734410D01*
X242221953Y-128499345D01*
X242025767Y-128358760D01*
X241453634Y-128028438D01*
X241233791Y-127928829D01*
X240920137Y-127855695D01*
X240598245Y-127845157D01*
X240280479Y-127897619D01*
X239979054Y-128011068D01*
X239705555Y-128181141D01*
X239470489Y-128401303D01*
X239282892Y-128663094D01*
X239149973Y-128956453D01*
X239076839Y-129270107D01*
X239066301Y-129591999D01*
X239118763Y-129909765D01*
X239232212Y-130211190D01*
X239402285Y-130484689D01*
X239622447Y-130719755D01*
X239818633Y-130860339D01*
X240390766Y-131190661D01*
X240610609Y-131290271D01*
X240924261Y-131363405D01*
X241246155Y-131373943D01*
X241557552Y-131322532D01*
X244088966Y-133853946D01*
X244112828Y-133883022D01*
X244181833Y-133939653D01*
X244228857Y-133978245D01*
X244299614Y-134016065D01*
X244361235Y-134049002D01*
X244504872Y-134092574D01*
X244616824Y-134103600D01*
X244616827Y-134103600D01*
X244654250Y-134107286D01*
X244691673Y-134103600D01*
X248390677Y-134103600D01*
X248428100Y-134107286D01*
X248465523Y-134103600D01*
X248465526Y-134103600D01*
X248577478Y-134092574D01*
X248721115Y-134049002D01*
X248853492Y-133978245D01*
X248969522Y-133883022D01*
X248993384Y-133853946D01*
X252908946Y-129938384D01*
X252938022Y-129914522D01*
X252998457Y-129840881D01*
X253033245Y-129798493D01*
X253097301Y-129678651D01*
X253104002Y-129666115D01*
X253147574Y-129522478D01*
X253158600Y-129410526D01*
X253158600Y-129410523D01*
X253162286Y-129373100D01*
X253158600Y-129335677D01*
X253158600Y-125192709D01*
X253162286Y-125155286D01*
X253157877Y-125110518D01*
X253147574Y-125005908D01*
X253104002Y-124862271D01*
X253063736Y-124786939D01*
X253033245Y-124729893D01*
X252961879Y-124642934D01*
X252938022Y-124613864D01*
X252908953Y-124590008D01*
X250371192Y-122052247D01*
X250384132Y-122023688D01*
X250457266Y-121710034D01*
X250467804Y-121388141D01*
X250415341Y-121070376D01*
X250301893Y-120768951D01*
X250131820Y-120495451D01*
X249911658Y-120260386D01*
X249715472Y-120119801D01*
X249143339Y-119789479D01*
X248923496Y-119689870D01*
X248609842Y-119616736D01*
X248287950Y-119606198D01*
X247970184Y-119658660D01*
X247668759Y-119772109D01*
X247542998Y-119850312D01*
X246458557Y-119206858D01*
X246449490Y-119200590D01*
X246426359Y-119187753D01*
X246403651Y-119174279D01*
X246393685Y-119169620D01*
X246063862Y-118986575D01*
X246068394Y-118848141D01*
X246015931Y-118530376D01*
X245902483Y-118228951D01*
X245732410Y-117955451D01*
X245512248Y-117720386D01*
X245316062Y-117579801D01*
X244974495Y-117382597D01*
X244974495Y-89478418D01*
X244978181Y-89440995D01*
X244974495Y-89403569D01*
X244963469Y-89291617D01*
X244919897Y-89147980D01*
X244849141Y-89015604D01*
X244849140Y-89015602D01*
X244777774Y-88928643D01*
X244753917Y-88899573D01*
X244724848Y-88875717D01*
X231736784Y-75887654D01*
X231712922Y-75858578D01*
X231596892Y-75763355D01*
X231464515Y-75692598D01*
X231320878Y-75649026D01*
X231208926Y-75638000D01*
X231208923Y-75638000D01*
X231171500Y-75634314D01*
X231134077Y-75638000D01*
X227067359Y-75638000D01*
X227160314Y-75561714D01*
X227364631Y-75312752D01*
X227516452Y-75028715D01*
X227609943Y-74720516D01*
X227641511Y-74400000D01*
X227609943Y-74079484D01*
X227516452Y-73771285D01*
X227364631Y-73487248D01*
X227160314Y-73238286D01*
X226911352Y-73033969D01*
X226627315Y-72882148D01*
X226319116Y-72788657D01*
X226078922Y-72765000D01*
X225418278Y-72765000D01*
X225178084Y-72788657D01*
X224869885Y-72882148D01*
X224585848Y-73033969D01*
X224336886Y-73238286D01*
X224132569Y-73487248D01*
X223980748Y-73771285D01*
X223887257Y-74079484D01*
X223855689Y-74400000D01*
X223887257Y-74720516D01*
X223980748Y-75028715D01*
X224132569Y-75312752D01*
X224336886Y-75561714D01*
X224429841Y-75638000D01*
X222345210Y-75638000D01*
X222264631Y-75487248D01*
X222060314Y-75238286D01*
X221811352Y-75033969D01*
X221527315Y-74882148D01*
X221219116Y-74788657D01*
X220978922Y-74765000D01*
X220318278Y-74765000D01*
X220078084Y-74788657D01*
X219769885Y-74882148D01*
X219485848Y-75033969D01*
X219236886Y-75238286D01*
X219032569Y-75487248D01*
X218951990Y-75638000D01*
X216867359Y-75638000D01*
X216960314Y-75561714D01*
X217164631Y-75312752D01*
X217316452Y-75028715D01*
X217409943Y-74720516D01*
X217441511Y-74400000D01*
X217409943Y-74079484D01*
X217316452Y-73771285D01*
X217164631Y-73487248D01*
X216960314Y-73238286D01*
X216711352Y-73033969D01*
X216427315Y-72882148D01*
X216119116Y-72788657D01*
X215878922Y-72765000D01*
X215218278Y-72765000D01*
X214978084Y-72788657D01*
X214669885Y-72882148D01*
X214385848Y-73033969D01*
X214136886Y-73238286D01*
X213932569Y-73487248D01*
X213780748Y-73771285D01*
X213687257Y-74079484D01*
X213655689Y-74400000D01*
X213687257Y-74720516D01*
X213780748Y-75028715D01*
X213932569Y-75312752D01*
X214136886Y-75561714D01*
X214229841Y-75638000D01*
X207415430Y-75638000D01*
X203346227Y-71568797D01*
X203367652Y-71528715D01*
X203461143Y-71220516D01*
X203492711Y-70900000D01*
X203461143Y-70579484D01*
X203367652Y-70271285D01*
X203215831Y-69987248D01*
X203011514Y-69738286D01*
X202762552Y-69533969D01*
X202478515Y-69382148D01*
X202170316Y-69288657D01*
X201930122Y-69265000D01*
X201269478Y-69265000D01*
X201029284Y-69288657D01*
X200721085Y-69382148D01*
X200437048Y-69533969D01*
X200188086Y-69738286D01*
X199983769Y-69987248D01*
X199831948Y-70271285D01*
X199738457Y-70579484D01*
X199706889Y-70900000D01*
X199738457Y-71220516D01*
X199831948Y-71528715D01*
X199853372Y-71568797D01*
X195284170Y-76138000D01*
X188969759Y-76138000D01*
X189062714Y-76061714D01*
X189267031Y-75812752D01*
X189418852Y-75528715D01*
X189512343Y-75220516D01*
X189543911Y-74900000D01*
X189512343Y-74579484D01*
X189418852Y-74271285D01*
X189267031Y-73987248D01*
X189062714Y-73738286D01*
X188813752Y-73533969D01*
X188529715Y-73382148D01*
X188221516Y-73288657D01*
X187981322Y-73265000D01*
X187320678Y-73265000D01*
X187080484Y-73288657D01*
X186772285Y-73382148D01*
X186488248Y-73533969D01*
X186239286Y-73738286D01*
X186034969Y-73987248D01*
X185883148Y-74271285D01*
X185789657Y-74579484D01*
X185758089Y-74900000D01*
X185789657Y-75220516D01*
X185883148Y-75528715D01*
X186034969Y-75812752D01*
X186239286Y-76061714D01*
X186332241Y-76138000D01*
X184247610Y-76138000D01*
X184167031Y-75987248D01*
X183962714Y-75738286D01*
X183713752Y-75533969D01*
X183429715Y-75382148D01*
X183121516Y-75288657D01*
X182881322Y-75265000D01*
X182220678Y-75265000D01*
X181980484Y-75288657D01*
X181672285Y-75382148D01*
X181388248Y-75533969D01*
X181139286Y-75738286D01*
X180934969Y-75987248D01*
X180854390Y-76138000D01*
X178769759Y-76138000D01*
X178862714Y-76061714D01*
X179067031Y-75812752D01*
X179218852Y-75528715D01*
X179312343Y-75220516D01*
X179343911Y-74900000D01*
X179312343Y-74579484D01*
X179218852Y-74271285D01*
X179067031Y-73987248D01*
X178862714Y-73738286D01*
X178613752Y-73533969D01*
X178329715Y-73382148D01*
X178021516Y-73288657D01*
X177781322Y-73265000D01*
X177120678Y-73265000D01*
X176880484Y-73288657D01*
X176572285Y-73382148D01*
X176288248Y-73533969D01*
X176039286Y-73738286D01*
X175834969Y-73987248D01*
X175683148Y-74271285D01*
X175589657Y-74579484D01*
X175558089Y-74900000D01*
X175589657Y-75220516D01*
X175683148Y-75528715D01*
X175834969Y-75812752D01*
X176039286Y-76061714D01*
X176132241Y-76138000D01*
X173253331Y-76138000D01*
X172349350Y-75234020D01*
X172349350Y-72690480D01*
X176877397Y-68162434D01*
X176848089Y-68460000D01*
X176879657Y-68780516D01*
X176973148Y-69088715D01*
X177094100Y-69315000D01*
X176885042Y-69315000D01*
X176559504Y-69379754D01*
X176252853Y-69506772D01*
X175976875Y-69691175D01*
X175742175Y-69925875D01*
X175557772Y-70201853D01*
X175430754Y-70508504D01*
X175366000Y-70834042D01*
X175366000Y-71165958D01*
X175430754Y-71491496D01*
X175557772Y-71798147D01*
X175742175Y-72074125D01*
X175976875Y-72308825D01*
X176252853Y-72493228D01*
X176559504Y-72620246D01*
X176885042Y-72685000D01*
X177216958Y-72685000D01*
X177542496Y-72620246D01*
X177628031Y-72584817D01*
X177933327Y-72524089D01*
X178221779Y-72404609D01*
X178481379Y-72231150D01*
X178702150Y-72010379D01*
X178875609Y-71750779D01*
X178995089Y-71462327D01*
X179056000Y-71156109D01*
X179056000Y-70843891D01*
X179035430Y-70740475D01*
X179916000Y-70740475D01*
X179916000Y-71259525D01*
X180017261Y-71768601D01*
X180215893Y-72248141D01*
X180504262Y-72679715D01*
X180871285Y-73046738D01*
X181302859Y-73335107D01*
X181782399Y-73533739D01*
X182291475Y-73635000D01*
X182810525Y-73635000D01*
X183319601Y-73533739D01*
X183799141Y-73335107D01*
X184230715Y-73046738D01*
X184597738Y-72679715D01*
X184886107Y-72248141D01*
X185084739Y-71768601D01*
X185186000Y-71259525D01*
X185186000Y-70740475D01*
X185084739Y-70231399D01*
X184886107Y-69751859D01*
X184597738Y-69320285D01*
X184230715Y-68953262D01*
X183799141Y-68664893D01*
X183319601Y-68466261D01*
X182810525Y-68365000D01*
X182291475Y-68365000D01*
X181782399Y-68466261D01*
X181302859Y-68664893D01*
X180871285Y-68953262D01*
X180504262Y-69320285D01*
X180215893Y-69751859D01*
X180017261Y-70231399D01*
X179916000Y-70740475D01*
X179035430Y-70740475D01*
X178995089Y-70537673D01*
X178875609Y-70249221D01*
X178772562Y-70095000D01*
X179071322Y-70095000D01*
X179311516Y-70071343D01*
X179619715Y-69977852D01*
X179903752Y-69826031D01*
X180152714Y-69621714D01*
X180357031Y-69372752D01*
X180508852Y-69088715D01*
X180602343Y-68780516D01*
X180633911Y-68460000D01*
X180602343Y-68139484D01*
X180508852Y-67831285D01*
X180360182Y-67553142D01*
X180581516Y-67531343D01*
X180889715Y-67437852D01*
X181173752Y-67286031D01*
X181422714Y-67081714D01*
X181627031Y-66832752D01*
X181707610Y-66682000D01*
X183394390Y-66682000D01*
X183474969Y-66832752D01*
X183679286Y-67081714D01*
X183928248Y-67286031D01*
X184212285Y-67437852D01*
X184520484Y-67531343D01*
X184741818Y-67553142D01*
X184593148Y-67831285D01*
X184499657Y-68139484D01*
X184468089Y-68460000D01*
X184499657Y-68780516D01*
X184593148Y-69088715D01*
X184744969Y-69372752D01*
X184949286Y-69621714D01*
X185198248Y-69826031D01*
X185482285Y-69977852D01*
X185790484Y-70071343D01*
X186030678Y-70095000D01*
X186329438Y-70095000D01*
X186226391Y-70249221D01*
X186106911Y-70537673D01*
X186046000Y-70843891D01*
X186046000Y-71156109D01*
X186106911Y-71462327D01*
X186226391Y-71750779D01*
X186399850Y-72010379D01*
X186620621Y-72231150D01*
X186880221Y-72404609D01*
X187168673Y-72524089D01*
X187473969Y-72584817D01*
X187559504Y-72620246D01*
X187885042Y-72685000D01*
X188216958Y-72685000D01*
X188542496Y-72620246D01*
X188849147Y-72493228D01*
X189125125Y-72308825D01*
X189359825Y-72074125D01*
X189544228Y-71798147D01*
X189671246Y-71491496D01*
X189736000Y-71165958D01*
X189736000Y-70834042D01*
X189671246Y-70508504D01*
X189544228Y-70201853D01*
X189359825Y-69925875D01*
X189125125Y-69691175D01*
X188849147Y-69506772D01*
X188542496Y-69379754D01*
X188216958Y-69315000D01*
X188007900Y-69315000D01*
X188128852Y-69088715D01*
X188186097Y-68900000D01*
X194606889Y-68900000D01*
X194638457Y-69220516D01*
X194731948Y-69528715D01*
X194883769Y-69812752D01*
X195088086Y-70061714D01*
X195337048Y-70266031D01*
X195621085Y-70417852D01*
X195929284Y-70511343D01*
X196169478Y-70535000D01*
X196830122Y-70535000D01*
X197070316Y-70511343D01*
X197378515Y-70417852D01*
X197662552Y-70266031D01*
X197911514Y-70061714D01*
X198115831Y-69812752D01*
X198267652Y-69528715D01*
X198361143Y-69220516D01*
X198392711Y-68900000D01*
X204806889Y-68900000D01*
X204838457Y-69220516D01*
X204931948Y-69528715D01*
X205083769Y-69812752D01*
X205288086Y-70061714D01*
X205537048Y-70266031D01*
X205821085Y-70417852D01*
X206129284Y-70511343D01*
X206369478Y-70535000D01*
X207030122Y-70535000D01*
X207270316Y-70511343D01*
X207578515Y-70417852D01*
X207862552Y-70266031D01*
X208111514Y-70061714D01*
X208315831Y-69812752D01*
X208467652Y-69528715D01*
X208561143Y-69220516D01*
X208592711Y-68900000D01*
X208561143Y-68579484D01*
X208467652Y-68271285D01*
X208315831Y-67987248D01*
X208111514Y-67738286D01*
X207862552Y-67533969D01*
X207578515Y-67382148D01*
X207270316Y-67288657D01*
X207030122Y-67265000D01*
X206369478Y-67265000D01*
X206129284Y-67288657D01*
X205821085Y-67382148D01*
X205537048Y-67533969D01*
X205288086Y-67738286D01*
X205083769Y-67987248D01*
X204931948Y-68271285D01*
X204838457Y-68579484D01*
X204806889Y-68900000D01*
X198392711Y-68900000D01*
X198361143Y-68579484D01*
X198267652Y-68271285D01*
X198115831Y-67987248D01*
X197911514Y-67738286D01*
X197662552Y-67533969D01*
X197378515Y-67382148D01*
X197070316Y-67288657D01*
X196830122Y-67265000D01*
X196169478Y-67265000D01*
X195929284Y-67288657D01*
X195621085Y-67382148D01*
X195337048Y-67533969D01*
X195088086Y-67738286D01*
X194883769Y-67987248D01*
X194731948Y-68271285D01*
X194638457Y-68579484D01*
X194606889Y-68900000D01*
X188186097Y-68900000D01*
X188222343Y-68780516D01*
X188253911Y-68460000D01*
X188222343Y-68139484D01*
X188128852Y-67831285D01*
X187977031Y-67547248D01*
X187772714Y-67298286D01*
X187523752Y-67093969D01*
X187239715Y-66942148D01*
X186931516Y-66848657D01*
X186710182Y-66826858D01*
X186858852Y-66548715D01*
X186952343Y-66240516D01*
X186983911Y-65920000D01*
X186952343Y-65599484D01*
X186858852Y-65291285D01*
X186837428Y-65251203D01*
X191406631Y-60682000D01*
X197363190Y-60682000D01*
X197440618Y-60826858D01*
X197219284Y-60848657D01*
X196911085Y-60942148D01*
X196627048Y-61093969D01*
X196378086Y-61298286D01*
X196173769Y-61547248D01*
X196021948Y-61831285D01*
X195928457Y-62139484D01*
X195896889Y-62460000D01*
X195928457Y-62780516D01*
X196021948Y-63088715D01*
X196142900Y-63315000D01*
X195933842Y-63315000D01*
X195608304Y-63379754D01*
X195301653Y-63506772D01*
X195025675Y-63691175D01*
X194790975Y-63925875D01*
X194606572Y-64201853D01*
X194479554Y-64508504D01*
X194414800Y-64834042D01*
X194414800Y-65165958D01*
X194479554Y-65491496D01*
X194606572Y-65798147D01*
X194790975Y-66074125D01*
X195025675Y-66308825D01*
X195301653Y-66493228D01*
X195608304Y-66620246D01*
X195933842Y-66685000D01*
X196265758Y-66685000D01*
X196591296Y-66620246D01*
X196676831Y-66584817D01*
X196982127Y-66524089D01*
X197270579Y-66404609D01*
X197530179Y-66231150D01*
X197750950Y-66010379D01*
X197924409Y-65750779D01*
X198043889Y-65462327D01*
X198104800Y-65156109D01*
X198104800Y-64843891D01*
X198084230Y-64740475D01*
X198964800Y-64740475D01*
X198964800Y-65259525D01*
X199066061Y-65768601D01*
X199264693Y-66248141D01*
X199553062Y-66679715D01*
X199920085Y-67046738D01*
X200351659Y-67335107D01*
X200831199Y-67533739D01*
X201340275Y-67635000D01*
X201859325Y-67635000D01*
X202368401Y-67533739D01*
X202847941Y-67335107D01*
X203279515Y-67046738D01*
X203646538Y-66679715D01*
X203934907Y-66248141D01*
X204133539Y-65768601D01*
X204234800Y-65259525D01*
X204234800Y-64740475D01*
X204133539Y-64231399D01*
X203934907Y-63751859D01*
X203646538Y-63320285D01*
X203279515Y-62953262D01*
X202847941Y-62664893D01*
X202368401Y-62466261D01*
X201859325Y-62365000D01*
X201340275Y-62365000D01*
X200831199Y-62466261D01*
X200351659Y-62664893D01*
X199920085Y-62953262D01*
X199553062Y-63320285D01*
X199264693Y-63751859D01*
X199066061Y-64231399D01*
X198964800Y-64740475D01*
X198084230Y-64740475D01*
X198043889Y-64537673D01*
X197924409Y-64249221D01*
X197821362Y-64095000D01*
X198120122Y-64095000D01*
X198360316Y-64071343D01*
X198668515Y-63977852D01*
X198952552Y-63826031D01*
X199201514Y-63621714D01*
X199405831Y-63372752D01*
X199557652Y-63088715D01*
X199651143Y-62780516D01*
X199682711Y-62460000D01*
X199651143Y-62139484D01*
X199557652Y-61831285D01*
X199408982Y-61553142D01*
X199630316Y-61531343D01*
X199938515Y-61437852D01*
X200222552Y-61286031D01*
X200471514Y-61081714D01*
X200675831Y-60832752D01*
X200756410Y-60682000D01*
X202443190Y-60682000D01*
X202523769Y-60832752D01*
X202728086Y-61081714D01*
X202977048Y-61286031D01*
X203261085Y-61437852D01*
X203569284Y-61531343D01*
X203790618Y-61553142D01*
X203641948Y-61831285D01*
X203548457Y-62139484D01*
X203516889Y-62460000D01*
X203548457Y-62780516D01*
X203641948Y-63088715D01*
X203793769Y-63372752D01*
X203998086Y-63621714D01*
X204247048Y-63826031D01*
X204531085Y-63977852D01*
X204839284Y-64071343D01*
X205079478Y-64095000D01*
X205378238Y-64095000D01*
X205275191Y-64249221D01*
X205155711Y-64537673D01*
X205094800Y-64843891D01*
X205094800Y-65156109D01*
X205155711Y-65462327D01*
X205275191Y-65750779D01*
X205448650Y-66010379D01*
X205669421Y-66231150D01*
X205929021Y-66404609D01*
X206217473Y-66524089D01*
X206522769Y-66584817D01*
X206608304Y-66620246D01*
X206933842Y-66685000D01*
X207265758Y-66685000D01*
X207591296Y-66620246D01*
X207897947Y-66493228D01*
X208173925Y-66308825D01*
X208408625Y-66074125D01*
X208593028Y-65798147D01*
X208720046Y-65491496D01*
X208784800Y-65165958D01*
X208784800Y-64834042D01*
X208720046Y-64508504D01*
X208593028Y-64201853D01*
X208408625Y-63925875D01*
X208173925Y-63691175D01*
X207897947Y-63506772D01*
X207591296Y-63379754D01*
X207265758Y-63315000D01*
X207056700Y-63315000D01*
X207177652Y-63088715D01*
X207271143Y-62780516D01*
X207302711Y-62460000D01*
X207271143Y-62139484D01*
X207177652Y-61831285D01*
X207025831Y-61547248D01*
X206821514Y-61298286D01*
X206572552Y-61093969D01*
X206288515Y-60942148D01*
X205980316Y-60848657D01*
X205758982Y-60826858D01*
X205836410Y-60682000D01*
X212292970Y-60682000D01*
X216362173Y-64751203D01*
X216340748Y-64791285D01*
X216247257Y-65099484D01*
X216215689Y-65420000D01*
X216247257Y-65740516D01*
X216340748Y-66048715D01*
X216489418Y-66326858D01*
X216268084Y-66348657D01*
X215959885Y-66442148D01*
X215675848Y-66593969D01*
X215426886Y-66798286D01*
X215222569Y-67047248D01*
X215070748Y-67331285D01*
X214977257Y-67639484D01*
X214945689Y-67960000D01*
X214977257Y-68280516D01*
X215070748Y-68588715D01*
X215191700Y-68815000D01*
X214982642Y-68815000D01*
X214657104Y-68879754D01*
X214350453Y-69006772D01*
X214074475Y-69191175D01*
X213839775Y-69425875D01*
X213655372Y-69701853D01*
X213528354Y-70008504D01*
X213463600Y-70334042D01*
X213463600Y-70665958D01*
X213528354Y-70991496D01*
X213655372Y-71298147D01*
X213839775Y-71574125D01*
X214074475Y-71808825D01*
X214350453Y-71993228D01*
X214657104Y-72120246D01*
X214982642Y-72185000D01*
X215314558Y-72185000D01*
X215640096Y-72120246D01*
X215725631Y-72084817D01*
X216030927Y-72024089D01*
X216319379Y-71904609D01*
X216578979Y-71731150D01*
X216799750Y-71510379D01*
X216973209Y-71250779D01*
X217092689Y-70962327D01*
X217153600Y-70656109D01*
X217153600Y-70343891D01*
X217133030Y-70240475D01*
X218013600Y-70240475D01*
X218013600Y-70759525D01*
X218114861Y-71268601D01*
X218313493Y-71748141D01*
X218601862Y-72179715D01*
X218968885Y-72546738D01*
X219400459Y-72835107D01*
X219879999Y-73033739D01*
X220389075Y-73135000D01*
X220908125Y-73135000D01*
X221417201Y-73033739D01*
X221896741Y-72835107D01*
X222328315Y-72546738D01*
X222695338Y-72179715D01*
X222983707Y-71748141D01*
X223182339Y-71268601D01*
X223283600Y-70759525D01*
X223283600Y-70240475D01*
X223182339Y-69731399D01*
X222983707Y-69251859D01*
X222695338Y-68820285D01*
X222328315Y-68453262D01*
X221896741Y-68164893D01*
X221417201Y-67966261D01*
X220908125Y-67865000D01*
X220389075Y-67865000D01*
X219879999Y-67966261D01*
X219400459Y-68164893D01*
X218968885Y-68453262D01*
X218601862Y-68820285D01*
X218313493Y-69251859D01*
X218114861Y-69731399D01*
X218013600Y-70240475D01*
X217133030Y-70240475D01*
X217092689Y-70037673D01*
X216973209Y-69749221D01*
X216870162Y-69595000D01*
X217168922Y-69595000D01*
X217409116Y-69571343D01*
X217717315Y-69477852D01*
X218001352Y-69326031D01*
X218250314Y-69121714D01*
X218454631Y-68872752D01*
X218606452Y-68588715D01*
X218699943Y-68280516D01*
X218731511Y-67960000D01*
X218699943Y-67639484D01*
X218606452Y-67331285D01*
X218457782Y-67053142D01*
X218679116Y-67031343D01*
X218987315Y-66937852D01*
X219271352Y-66786031D01*
X219520314Y-66581714D01*
X219724631Y-66332752D01*
X219805210Y-66182000D01*
X221491990Y-66182000D01*
X221572569Y-66332752D01*
X221776886Y-66581714D01*
X222025848Y-66786031D01*
X222309885Y-66937852D01*
X222618084Y-67031343D01*
X222839418Y-67053142D01*
X222690748Y-67331285D01*
X222597257Y-67639484D01*
X222565689Y-67960000D01*
X222597257Y-68280516D01*
X222690748Y-68588715D01*
X222842569Y-68872752D01*
X223046886Y-69121714D01*
X223295848Y-69326031D01*
X223579885Y-69477852D01*
X223888084Y-69571343D01*
X224128278Y-69595000D01*
X224427038Y-69595000D01*
X224323991Y-69749221D01*
X224204511Y-70037673D01*
X224143600Y-70343891D01*
X224143600Y-70656109D01*
X224204511Y-70962327D01*
X224323991Y-71250779D01*
X224497450Y-71510379D01*
X224718221Y-71731150D01*
X224977821Y-71904609D01*
X225266273Y-72024089D01*
X225571569Y-72084817D01*
X225657104Y-72120246D01*
X225982642Y-72185000D01*
X226314558Y-72185000D01*
X226640096Y-72120246D01*
X226946747Y-71993228D01*
X227222725Y-71808825D01*
X227457425Y-71574125D01*
X227641828Y-71298147D01*
X227768846Y-70991496D01*
X227833600Y-70665958D01*
X227833600Y-70334042D01*
X227768846Y-70008504D01*
X227641828Y-69701853D01*
X227457425Y-69425875D01*
X227222725Y-69191175D01*
X226946747Y-69006772D01*
X226640096Y-68879754D01*
X226314558Y-68815000D01*
X226105500Y-68815000D01*
X226116756Y-68793941D01*
X239130927Y-68793941D01*
X239164764Y-69074579D01*
X239252701Y-69343223D01*
X239391356Y-69589550D01*
X239575405Y-69804093D01*
X239797771Y-69978609D01*
X240049912Y-70106389D01*
X240056274Y-70108168D01*
X240056273Y-73310150D01*
X240052587Y-73347573D01*
X240056273Y-73384996D01*
X240056273Y-73384998D01*
X240067299Y-73496950D01*
X240110871Y-73640587D01*
X240125889Y-73668684D01*
X240181628Y-73772965D01*
X240220909Y-73820829D01*
X240276851Y-73888995D01*
X240305927Y-73912857D01*
X243032034Y-76638965D01*
X243055891Y-76668035D01*
X243171921Y-76763258D01*
X243304298Y-76834015D01*
X243447935Y-76877587D01*
X243559887Y-76888613D01*
X243559889Y-76888613D01*
X243597312Y-76892299D01*
X243634735Y-76888613D01*
X244534779Y-76888613D01*
X244668260Y-77125749D01*
X244852309Y-77340292D01*
X245074675Y-77514808D01*
X245326816Y-77642588D01*
X245599040Y-77718722D01*
X245880885Y-77740286D01*
X246161523Y-77706449D01*
X246430167Y-77618512D01*
X246614768Y-77514602D01*
X247221748Y-77089590D01*
X247382529Y-76951662D01*
X247557045Y-76729296D01*
X247684825Y-76477155D01*
X247760960Y-76204932D01*
X247782523Y-75923086D01*
X247748687Y-75642448D01*
X247660750Y-75373803D01*
X247522094Y-75127476D01*
X247338045Y-74912934D01*
X247115679Y-74738418D01*
X246863538Y-74610638D01*
X246591314Y-74534503D01*
X246309468Y-74512940D01*
X246028830Y-74546776D01*
X245760187Y-74634713D01*
X245575586Y-74738624D01*
X244968606Y-75163635D01*
X244807825Y-75301564D01*
X244758343Y-75364613D01*
X243912944Y-75364613D01*
X241580273Y-73031943D01*
X241580273Y-71931107D01*
X242670446Y-71931107D01*
X242704283Y-72211745D01*
X242792220Y-72480389D01*
X242930875Y-72726716D01*
X243114924Y-72941259D01*
X243337290Y-73115775D01*
X243589431Y-73243555D01*
X243861655Y-73319689D01*
X244143500Y-73341253D01*
X244424138Y-73307416D01*
X244692782Y-73219479D01*
X244877383Y-73115569D01*
X245484363Y-72690557D01*
X245602661Y-72589074D01*
X245602661Y-72830318D01*
X245655886Y-73097896D01*
X245760290Y-73349950D01*
X245911862Y-73576793D01*
X246104775Y-73769706D01*
X246331618Y-73921278D01*
X246583672Y-74025682D01*
X246851250Y-74078907D01*
X247124072Y-74078907D01*
X247391650Y-74025682D01*
X247643704Y-73921278D01*
X247870547Y-73769706D01*
X248063460Y-73576793D01*
X248215032Y-73349950D01*
X248319436Y-73097896D01*
X248372661Y-72830318D01*
X248372661Y-72557496D01*
X248319436Y-72289918D01*
X248215032Y-72037864D01*
X248063460Y-71811021D01*
X247870547Y-71618108D01*
X247643704Y-71466536D01*
X247391650Y-71362132D01*
X247124072Y-71308907D01*
X246851250Y-71308907D01*
X246583672Y-71362132D01*
X246331618Y-71466536D01*
X246104775Y-71618108D01*
X246032405Y-71690478D01*
X246045138Y-71524053D01*
X246011302Y-71243415D01*
X245923365Y-70974770D01*
X245784709Y-70728443D01*
X245600660Y-70513901D01*
X245503659Y-70437773D01*
X246421245Y-70437773D01*
X246448674Y-70689626D01*
X246510519Y-70747376D01*
X246750192Y-70896747D01*
X247014399Y-70996492D01*
X247292989Y-71042775D01*
X247575256Y-71033819D01*
X247850351Y-70969967D01*
X248107704Y-70853674D01*
X248353450Y-70681601D01*
X247603212Y-69610151D01*
X246421245Y-70437773D01*
X245503659Y-70437773D01*
X245378294Y-70339385D01*
X245126153Y-70211605D01*
X244969782Y-70167872D01*
X245005253Y-70153179D01*
X245232096Y-70001607D01*
X245425009Y-69808694D01*
X245576581Y-69581851D01*
X245618258Y-69481232D01*
X245953403Y-69481232D01*
X245956768Y-69763621D01*
X246015158Y-70039927D01*
X246048273Y-70117794D01*
X246275557Y-70229708D01*
X247457523Y-69402086D01*
X246707286Y-68330635D01*
X246461540Y-68502708D01*
X246264240Y-68704766D01*
X246110151Y-68941433D01*
X246005194Y-69203613D01*
X245953403Y-69481232D01*
X245618258Y-69481232D01*
X245680985Y-69329797D01*
X245734210Y-69062219D01*
X245734210Y-68789397D01*
X245680985Y-68521819D01*
X245576581Y-68269765D01*
X245519908Y-68184947D01*
X246915350Y-68184947D01*
X247665588Y-69256397D01*
X247681971Y-69244925D01*
X247827660Y-69452991D01*
X247811277Y-69464462D01*
X248561514Y-70535913D01*
X248807260Y-70363840D01*
X249004560Y-70161782D01*
X249158649Y-69925115D01*
X249263606Y-69662935D01*
X249315397Y-69385316D01*
X249313468Y-69223439D01*
X249323495Y-69228520D01*
X249595719Y-69304654D01*
X249877564Y-69326218D01*
X250158202Y-69292381D01*
X250426846Y-69204444D01*
X250611447Y-69100534D01*
X251218427Y-68675522D01*
X251336726Y-68574038D01*
X251336726Y-68815283D01*
X251389951Y-69082861D01*
X251494355Y-69334915D01*
X251645927Y-69561758D01*
X251838840Y-69754671D01*
X252065683Y-69906243D01*
X252317737Y-70010647D01*
X252585315Y-70063872D01*
X252858137Y-70063872D01*
X253125715Y-70010647D01*
X253377769Y-69906243D01*
X253604612Y-69754671D01*
X253797525Y-69561758D01*
X253949097Y-69334915D01*
X254053501Y-69082861D01*
X254106726Y-68815283D01*
X254106726Y-68542461D01*
X254053501Y-68274883D01*
X253949097Y-68022829D01*
X253797525Y-67795986D01*
X253604612Y-67603073D01*
X253377769Y-67451501D01*
X253125715Y-67347097D01*
X252858137Y-67293872D01*
X252585315Y-67293872D01*
X252317737Y-67347097D01*
X252065683Y-67451501D01*
X251838840Y-67603073D01*
X251766469Y-67675444D01*
X251779202Y-67509018D01*
X251745366Y-67228380D01*
X251657429Y-66959735D01*
X251518773Y-66713408D01*
X251334724Y-66498866D01*
X251112358Y-66324350D01*
X250860217Y-66196570D01*
X250703846Y-66152837D01*
X250739317Y-66138144D01*
X250966160Y-65986572D01*
X251159073Y-65793659D01*
X251310645Y-65566816D01*
X251415049Y-65314762D01*
X251468274Y-65047184D01*
X251468274Y-64774362D01*
X251415049Y-64506784D01*
X251310645Y-64254730D01*
X251159073Y-64027887D01*
X250966160Y-63834974D01*
X250739317Y-63683402D01*
X250487263Y-63578998D01*
X250219685Y-63525773D01*
X249946863Y-63525773D01*
X249679285Y-63578998D01*
X249427231Y-63683402D01*
X249200388Y-63834974D01*
X249007475Y-64027887D01*
X248855903Y-64254730D01*
X248751499Y-64506784D01*
X248698274Y-64774362D01*
X248698274Y-65047184D01*
X248751499Y-65314762D01*
X248855903Y-65566816D01*
X249007475Y-65793659D01*
X249200388Y-65986572D01*
X249427231Y-66138144D01*
X249679285Y-66242548D01*
X249707858Y-66248232D01*
X249572265Y-66324556D01*
X248965285Y-66749567D01*
X248804504Y-66887496D01*
X248629988Y-67109862D01*
X248502208Y-67362003D01*
X248426074Y-67634227D01*
X248404510Y-67916072D01*
X248405856Y-67927234D01*
X248254401Y-67870056D01*
X247975811Y-67823773D01*
X247693544Y-67832729D01*
X247418449Y-67896581D01*
X247161096Y-68012874D01*
X246915350Y-68184947D01*
X245519908Y-68184947D01*
X245425009Y-68042922D01*
X245232096Y-67850009D01*
X245005253Y-67698437D01*
X244753199Y-67594033D01*
X244485621Y-67540808D01*
X244212799Y-67540808D01*
X243945221Y-67594033D01*
X243693167Y-67698437D01*
X243466324Y-67850009D01*
X243273411Y-68042922D01*
X243121839Y-68269765D01*
X243017435Y-68521819D01*
X242964210Y-68789397D01*
X242964210Y-69062219D01*
X243017435Y-69329797D01*
X243121839Y-69581851D01*
X243273411Y-69808694D01*
X243466324Y-70001607D01*
X243693167Y-70153179D01*
X243945221Y-70257583D01*
X243973794Y-70263267D01*
X243838201Y-70339591D01*
X243231221Y-70764602D01*
X243070440Y-70902531D01*
X242895924Y-71124897D01*
X242768144Y-71377038D01*
X242692010Y-71649262D01*
X242670446Y-71931107D01*
X241580273Y-71931107D01*
X241580273Y-69808666D01*
X241944844Y-69553391D01*
X242105625Y-69415463D01*
X242280141Y-69193097D01*
X242407921Y-68940956D01*
X242484056Y-68668733D01*
X242505619Y-68386887D01*
X242471783Y-68106249D01*
X242383846Y-67837604D01*
X242245190Y-67591277D01*
X242061141Y-67376735D01*
X241838775Y-67202219D01*
X241586634Y-67074439D01*
X241314410Y-66998304D01*
X241032564Y-66976741D01*
X240751926Y-67010577D01*
X240483283Y-67098514D01*
X240298682Y-67202425D01*
X239691702Y-67627436D01*
X239530921Y-67765365D01*
X239356405Y-67987731D01*
X239228625Y-68239872D01*
X239152491Y-68512096D01*
X239130927Y-68793941D01*
X226116756Y-68793941D01*
X226226452Y-68588715D01*
X226319943Y-68280516D01*
X226351511Y-67960000D01*
X226319943Y-67639484D01*
X226226452Y-67331285D01*
X226074631Y-67047248D01*
X225870314Y-66798286D01*
X225621352Y-66593969D01*
X225337315Y-66442148D01*
X225029116Y-66348657D01*
X224807782Y-66326858D01*
X224956452Y-66048715D01*
X225049943Y-65740516D01*
X225081511Y-65420000D01*
X225049943Y-65099484D01*
X224956452Y-64791285D01*
X224804631Y-64507248D01*
X224600314Y-64258286D01*
X224351352Y-64053969D01*
X224067315Y-63902148D01*
X223759116Y-63808657D01*
X223518922Y-63785000D01*
X222858278Y-63785000D01*
X222618084Y-63808657D01*
X222309885Y-63902148D01*
X222025848Y-64053969D01*
X221776886Y-64258286D01*
X221572569Y-64507248D01*
X221491990Y-64658000D01*
X219805210Y-64658000D01*
X219724631Y-64507248D01*
X219520314Y-64258286D01*
X219271352Y-64053969D01*
X218987315Y-63902148D01*
X218679116Y-63808657D01*
X218438922Y-63785000D01*
X217778278Y-63785000D01*
X217571587Y-63805357D01*
X216983007Y-63216777D01*
X232100200Y-63216777D01*
X232100200Y-63775223D01*
X232209148Y-64322939D01*
X232422856Y-64838876D01*
X232733112Y-65303207D01*
X233127993Y-65698088D01*
X233592324Y-66008344D01*
X234108261Y-66222052D01*
X234655977Y-66331000D01*
X235214423Y-66331000D01*
X235762139Y-66222052D01*
X236278076Y-66008344D01*
X236742407Y-65698088D01*
X237137288Y-65303207D01*
X237447544Y-64838876D01*
X237661252Y-64322939D01*
X237770200Y-63775223D01*
X237770200Y-63216777D01*
X237661252Y-62669061D01*
X237447544Y-62153124D01*
X237137288Y-61688793D01*
X236742407Y-61293912D01*
X236278076Y-60983656D01*
X235762139Y-60769948D01*
X235214423Y-60661000D01*
X234655977Y-60661000D01*
X234108261Y-60769948D01*
X233592324Y-60983656D01*
X233127993Y-61293912D01*
X232733112Y-61688793D01*
X232422856Y-62153124D01*
X232209148Y-62669061D01*
X232100200Y-63216777D01*
X216983007Y-63216777D01*
X213173884Y-59407654D01*
X213150022Y-59378578D01*
X213033992Y-59283355D01*
X212901615Y-59212598D01*
X212757978Y-59169026D01*
X212646026Y-59158000D01*
X212646023Y-59158000D01*
X212608600Y-59154314D01*
X212571177Y-59158000D01*
X205836410Y-59158000D01*
X205755831Y-59007248D01*
X205551514Y-58758286D01*
X205302552Y-58553969D01*
X205018515Y-58402148D01*
X204710316Y-58308657D01*
X204470122Y-58285000D01*
X203809478Y-58285000D01*
X203569284Y-58308657D01*
X203261085Y-58402148D01*
X202977048Y-58553969D01*
X202728086Y-58758286D01*
X202523769Y-59007248D01*
X202443190Y-59158000D01*
X200756410Y-59158000D01*
X200675831Y-59007248D01*
X200471514Y-58758286D01*
X200222552Y-58553969D01*
X199938515Y-58402148D01*
X199630316Y-58308657D01*
X199390122Y-58285000D01*
X198729478Y-58285000D01*
X198489284Y-58308657D01*
X198181085Y-58402148D01*
X197897048Y-58553969D01*
X197648086Y-58758286D01*
X197443769Y-59007248D01*
X197363190Y-59158000D01*
X191128422Y-59158000D01*
X191090999Y-59154314D01*
X191053576Y-59158000D01*
X191053574Y-59158000D01*
X190941622Y-59169026D01*
X190797985Y-59212598D01*
X190665608Y-59283355D01*
X190549578Y-59378578D01*
X190525721Y-59407648D01*
X185628013Y-64305357D01*
X185421322Y-64285000D01*
X184760678Y-64285000D01*
X184520484Y-64308657D01*
X184212285Y-64402148D01*
X183928248Y-64553969D01*
X183679286Y-64758286D01*
X183474969Y-65007248D01*
X183394390Y-65158000D01*
X181707610Y-65158000D01*
X181627031Y-65007248D01*
X181422714Y-64758286D01*
X181173752Y-64553969D01*
X180889715Y-64402148D01*
X180581516Y-64308657D01*
X180341322Y-64285000D01*
X179680678Y-64285000D01*
X179440484Y-64308657D01*
X179132285Y-64402148D01*
X178848248Y-64553969D01*
X178599286Y-64758286D01*
X178394969Y-65007248D01*
X178314390Y-65158000D01*
X178079622Y-65158000D01*
X178042199Y-65154314D01*
X178004776Y-65158000D01*
X178004774Y-65158000D01*
X177892822Y-65169026D01*
X177749185Y-65212598D01*
X177616808Y-65283355D01*
X177500778Y-65378578D01*
X177476921Y-65407648D01*
X171075004Y-71809566D01*
X171074998Y-71809571D01*
X171074994Y-71809575D01*
X171045929Y-71833428D01*
X171022076Y-71862493D01*
X166579213Y-76305357D01*
X166372522Y-76285000D01*
X165711878Y-76285000D01*
X165471684Y-76308657D01*
X165163485Y-76402148D01*
X164879448Y-76553969D01*
X164630486Y-76758286D01*
X164426169Y-77007248D01*
X164345590Y-77158000D01*
X162658810Y-77158000D01*
X162578231Y-77007248D01*
X162373914Y-76758286D01*
X162124952Y-76553969D01*
X161840915Y-76402148D01*
X161532716Y-76308657D01*
X161292522Y-76285000D01*
X160631878Y-76285000D01*
X160391684Y-76308657D01*
X160083485Y-76402148D01*
X159799448Y-76553969D01*
X159550486Y-76758286D01*
X159346169Y-77007248D01*
X159265590Y-77158000D01*
X157804085Y-77158000D01*
X157766662Y-77154314D01*
X157729239Y-77158000D01*
X157729237Y-77158000D01*
X157617285Y-77169026D01*
X157473648Y-77212598D01*
X157341271Y-77283355D01*
X157225241Y-77378578D01*
X157201384Y-77407648D01*
X153465449Y-81143584D01*
X153436379Y-81167441D01*
X153412522Y-81196511D01*
X153412521Y-81196512D01*
X153341155Y-81283471D01*
X153270399Y-81415848D01*
X153226827Y-81559485D01*
X153212114Y-81708863D01*
X153215801Y-81746296D01*
X153215800Y-86475877D01*
X153212114Y-86513300D01*
X153215800Y-86550723D01*
X153215800Y-86550725D01*
X153226826Y-86662677D01*
X153270398Y-86806314D01*
X153270399Y-86806315D01*
X153341155Y-86938692D01*
X153380783Y-86986978D01*
X153436378Y-87054722D01*
X153465454Y-87078584D01*
X155793620Y-89406751D01*
X155817478Y-89435822D01*
X155846548Y-89459679D01*
X155933507Y-89531045D01*
X155986556Y-89559400D01*
X156065885Y-89601802D01*
X156209522Y-89645374D01*
X156321474Y-89656400D01*
X156321477Y-89656400D01*
X156358900Y-89660086D01*
X156396323Y-89656400D01*
X161802597Y-89656400D01*
X161886169Y-89812752D01*
X162090486Y-90061714D01*
X162339448Y-90266031D01*
X162623485Y-90417852D01*
X162740201Y-90453257D01*
X162740200Y-91753569D01*
X161079549Y-93414221D01*
X161050479Y-93438078D01*
X161026622Y-93467148D01*
X161026621Y-93467149D01*
X160955255Y-93554108D01*
X160884499Y-93686485D01*
X160840927Y-93830122D01*
X160826214Y-93979500D01*
X160829901Y-94016933D01*
X160829900Y-99539595D01*
X160701365Y-99625480D01*
X160506780Y-99820065D01*
X160353895Y-100048873D01*
X160321900Y-100126115D01*
X160289905Y-100048873D01*
X160137020Y-99820065D01*
X159942435Y-99625480D01*
X159713627Y-99472595D01*
X159459390Y-99367286D01*
X159189492Y-99313600D01*
X158914308Y-99313600D01*
X158644410Y-99367286D01*
X158390173Y-99472595D01*
X158161365Y-99625480D01*
X157966780Y-99820065D01*
X157813895Y-100048873D01*
X157781900Y-100126115D01*
X157749905Y-100048873D01*
X157597020Y-99820065D01*
X157402435Y-99625480D01*
X157173627Y-99472595D01*
X156919390Y-99367286D01*
X156649492Y-99313600D01*
X156374308Y-99313600D01*
X156104410Y-99367286D01*
X155850173Y-99472595D01*
X155621365Y-99625480D01*
X155426780Y-99820065D01*
X155273895Y-100048873D01*
X155241900Y-100126115D01*
X155209905Y-100048873D01*
X155057020Y-99820065D01*
X154862435Y-99625480D01*
X154633627Y-99472595D01*
X154379390Y-99367286D01*
X154109492Y-99313600D01*
X153834308Y-99313600D01*
X153564410Y-99367286D01*
X153310173Y-99472595D01*
X153081365Y-99625480D01*
X152886780Y-99820065D01*
X152733895Y-100048873D01*
X152701900Y-100126115D01*
X152669905Y-100048873D01*
X152517020Y-99820065D01*
X152322435Y-99625480D01*
X152093627Y-99472595D01*
X151839390Y-99367286D01*
X151569492Y-99313600D01*
X151294308Y-99313600D01*
X151024410Y-99367286D01*
X150770173Y-99472595D01*
X150541365Y-99625480D01*
X150346780Y-99820065D01*
X150193895Y-100048873D01*
X150161900Y-100126115D01*
X150129905Y-100048873D01*
X149977020Y-99820065D01*
X149782435Y-99625480D01*
X149553627Y-99472595D01*
X149299390Y-99367286D01*
X149029492Y-99313600D01*
X148754308Y-99313600D01*
X148484410Y-99367286D01*
X148230173Y-99472595D01*
X148001365Y-99625480D01*
X147806780Y-99820065D01*
X147653895Y-100048873D01*
X147621900Y-100126115D01*
X147589905Y-100048873D01*
X147437020Y-99820065D01*
X147242435Y-99625480D01*
X147013627Y-99472595D01*
X146759390Y-99367286D01*
X146489492Y-99313600D01*
X146214308Y-99313600D01*
X145944410Y-99367286D01*
X145690173Y-99472595D01*
X145461365Y-99625480D01*
X145266780Y-99820065D01*
X145113895Y-100048873D01*
X145081900Y-100126115D01*
X145049905Y-100048873D01*
X144897020Y-99820065D01*
X144702435Y-99625480D01*
X144473627Y-99472595D01*
X144219390Y-99367286D01*
X143949492Y-99313600D01*
X143674308Y-99313600D01*
X143404410Y-99367286D01*
X143150173Y-99472595D01*
X142921365Y-99625480D01*
X142726780Y-99820065D01*
X142573895Y-100048873D01*
X142544208Y-100120543D01*
X142539536Y-100107577D01*
X142477556Y-99991620D01*
X142237465Y-99924640D01*
X141451505Y-100710600D01*
X141465648Y-100724743D01*
X141286043Y-100904348D01*
X141271900Y-100890205D01*
X141257758Y-100904348D01*
X141078153Y-100724743D01*
X141092295Y-100710600D01*
X140306335Y-99924640D01*
X140066244Y-99991620D01*
X140004821Y-100122244D01*
X139999536Y-100107577D01*
X139937556Y-99991620D01*
X139697465Y-99924640D01*
X138911505Y-100710600D01*
X138925648Y-100724743D01*
X138746043Y-100904348D01*
X138731900Y-100890205D01*
X138388738Y-101233367D01*
X138353210Y-101223455D01*
X137567250Y-102009415D01*
X138353210Y-102795375D01*
X138593301Y-102728395D01*
X138657130Y-102592655D01*
X138689640Y-102671142D01*
X138842525Y-102899950D01*
X139037110Y-103094535D01*
X139265918Y-103247420D01*
X139520155Y-103352729D01*
X139790053Y-103406415D01*
X140065237Y-103406415D01*
X140335135Y-103352729D01*
X140589372Y-103247420D01*
X140818180Y-103094535D01*
X141012765Y-102899950D01*
X141165650Y-102671142D01*
X141197645Y-102593900D01*
X141229640Y-102671142D01*
X141382525Y-102899950D01*
X141577110Y-103094535D01*
X141805918Y-103247420D01*
X142060155Y-103352729D01*
X142330053Y-103406415D01*
X142605237Y-103406415D01*
X142875135Y-103352729D01*
X143129372Y-103247420D01*
X143358180Y-103094535D01*
X143552765Y-102899950D01*
X143705650Y-102671142D01*
X143737645Y-102593900D01*
X143769640Y-102671142D01*
X143922525Y-102899950D01*
X144117110Y-103094535D01*
X144245646Y-103180420D01*
X144245645Y-107073324D01*
X143299549Y-108019421D01*
X143270479Y-108043278D01*
X143246622Y-108072348D01*
X143246621Y-108072349D01*
X143175255Y-108159308D01*
X143104499Y-108291685D01*
X143060927Y-108435322D01*
X143046214Y-108584700D01*
X143049901Y-108622133D01*
X143049900Y-114779595D01*
X142921365Y-114865480D01*
X142726780Y-115060065D01*
X142573895Y-115288873D01*
X142541900Y-115366115D01*
X142509905Y-115288873D01*
X142357020Y-115060065D01*
X142162435Y-114865480D01*
X141933627Y-114712595D01*
X141679390Y-114607286D01*
X141409492Y-114553600D01*
X141134308Y-114553600D01*
X140864410Y-114607286D01*
X140610173Y-114712595D01*
X140381365Y-114865480D01*
X140186780Y-115060065D01*
X140033895Y-115288873D01*
X140001900Y-115366115D01*
X139969905Y-115288873D01*
X139817020Y-115060065D01*
X139622435Y-114865480D01*
X139393627Y-114712595D01*
X139139390Y-114607286D01*
X138869492Y-114553600D01*
X138594308Y-114553600D01*
X138324410Y-114607286D01*
X138070173Y-114712595D01*
X137841365Y-114865480D01*
X137646780Y-115060065D01*
X137493895Y-115288873D01*
X137464208Y-115360543D01*
X137459536Y-115347577D01*
X137397556Y-115231620D01*
X137157465Y-115164640D01*
X136371505Y-115950600D01*
X136385648Y-115964743D01*
X136206043Y-116144348D01*
X136191900Y-116130205D01*
X136177758Y-116144348D01*
X135998153Y-115964743D01*
X136012295Y-115950600D01*
X135226335Y-115164640D01*
X134986244Y-115231620D01*
X134922415Y-115367360D01*
X134889905Y-115288873D01*
X134737020Y-115060065D01*
X134661990Y-114985035D01*
X135405940Y-114985035D01*
X136191900Y-115770995D01*
X136977860Y-114985035D01*
X136910880Y-114744944D01*
X136661852Y-114627844D01*
X136394765Y-114561577D01*
X136119883Y-114548690D01*
X135847767Y-114589678D01*
X135588877Y-114682964D01*
X135472920Y-114744944D01*
X135405940Y-114985035D01*
X134661990Y-114985035D01*
X134542435Y-114865480D01*
X134413900Y-114779595D01*
X134413900Y-109535930D01*
X135359998Y-108589833D01*
X135389067Y-108565977D01*
X135436338Y-108508377D01*
X135484290Y-108449948D01*
X135555046Y-108317571D01*
X135555047Y-108317570D01*
X135598619Y-108173933D01*
X135609645Y-108061981D01*
X135609645Y-108061978D01*
X135613331Y-108024555D01*
X135609645Y-107987132D01*
X135609645Y-103180420D01*
X135738180Y-103094535D01*
X135857735Y-102974980D01*
X136601685Y-102974980D01*
X136668665Y-103215071D01*
X136917693Y-103332171D01*
X137184780Y-103398438D01*
X137459662Y-103411325D01*
X137731778Y-103370337D01*
X137990668Y-103277051D01*
X138106625Y-103215071D01*
X138173605Y-102974980D01*
X137387645Y-102189020D01*
X136601685Y-102974980D01*
X135857735Y-102974980D01*
X135932765Y-102899950D01*
X136085650Y-102671142D01*
X136115337Y-102599472D01*
X136120009Y-102612438D01*
X136181989Y-102728395D01*
X136422080Y-102795375D01*
X137208040Y-102009415D01*
X137193898Y-101995273D01*
X137373503Y-101815668D01*
X137387645Y-101829810D01*
X137730807Y-101486648D01*
X137766335Y-101496560D01*
X138552295Y-100710600D01*
X137766335Y-99924640D01*
X137526244Y-99991620D01*
X137462415Y-100127360D01*
X137429905Y-100048873D01*
X137277020Y-99820065D01*
X137201990Y-99745035D01*
X137945940Y-99745035D01*
X138731900Y-100530995D01*
X139517860Y-99745035D01*
X140485940Y-99745035D01*
X141271900Y-100530995D01*
X142057860Y-99745035D01*
X141990880Y-99504944D01*
X141741852Y-99387844D01*
X141474765Y-99321577D01*
X141199883Y-99308690D01*
X140927767Y-99349678D01*
X140668877Y-99442964D01*
X140552920Y-99504944D01*
X140485940Y-99745035D01*
X139517860Y-99745035D01*
X139450880Y-99504944D01*
X139201852Y-99387844D01*
X138934765Y-99321577D01*
X138659883Y-99308690D01*
X138387767Y-99349678D01*
X138128877Y-99442964D01*
X138012920Y-99504944D01*
X137945940Y-99745035D01*
X137201990Y-99745035D01*
X137082435Y-99625480D01*
X136853627Y-99472595D01*
X136599390Y-99367286D01*
X136329492Y-99313600D01*
X136054308Y-99313600D01*
X135784410Y-99367286D01*
X135530173Y-99472595D01*
X135301365Y-99625480D01*
X135106780Y-99820065D01*
X134953895Y-100048873D01*
X134921900Y-100126115D01*
X134889905Y-100048873D01*
X134737020Y-99820065D01*
X134542435Y-99625480D01*
X134313627Y-99472595D01*
X134059390Y-99367286D01*
X133789492Y-99313600D01*
X133514308Y-99313600D01*
X133244410Y-99367286D01*
X132990173Y-99472595D01*
X132761365Y-99625480D01*
X132566780Y-99820065D01*
X132413895Y-100048873D01*
X132308586Y-100303110D01*
X132254900Y-100573008D01*
X131664181Y-100573008D01*
X131569928Y-90600500D01*
X133615928Y-90600500D01*
X133615928Y-91950500D01*
X133628188Y-92074982D01*
X133664498Y-92194680D01*
X133723463Y-92304994D01*
X133802815Y-92401685D01*
X133899506Y-92481037D01*
X134009820Y-92540002D01*
X134129518Y-92576312D01*
X134254000Y-92588572D01*
X135604000Y-92588572D01*
X135728482Y-92576312D01*
X135848180Y-92540002D01*
X135958494Y-92481037D01*
X136055185Y-92401685D01*
X136134537Y-92304994D01*
X136193502Y-92194680D01*
X136229812Y-92074982D01*
X136242072Y-91950500D01*
X136242072Y-90600500D01*
X136229812Y-90476018D01*
X136193502Y-90356320D01*
X136134537Y-90246006D01*
X136055185Y-90149315D01*
X135968303Y-90078013D01*
X136089907Y-89896018D01*
X136188658Y-89657613D01*
X136239000Y-89404524D01*
X136239000Y-89146476D01*
X136188658Y-88893387D01*
X136089907Y-88654982D01*
X136063311Y-88615177D01*
X144793200Y-88615177D01*
X144793200Y-89173623D01*
X144902148Y-89721339D01*
X145115856Y-90237276D01*
X145426112Y-90701607D01*
X145820993Y-91096488D01*
X146285324Y-91406744D01*
X146801261Y-91620452D01*
X147348977Y-91729400D01*
X147907423Y-91729400D01*
X148455139Y-91620452D01*
X148971076Y-91406744D01*
X149435407Y-91096488D01*
X149830288Y-90701607D01*
X150140544Y-90237276D01*
X150354252Y-89721339D01*
X150463200Y-89173623D01*
X150463200Y-88615177D01*
X150354252Y-88067461D01*
X150140544Y-87551524D01*
X149830288Y-87087193D01*
X149435407Y-86692312D01*
X148971076Y-86382056D01*
X148455139Y-86168348D01*
X147907423Y-86059400D01*
X147348977Y-86059400D01*
X146801261Y-86168348D01*
X146285324Y-86382056D01*
X145820993Y-86692312D01*
X145426112Y-87087193D01*
X145115856Y-87551524D01*
X144902148Y-88067461D01*
X144793200Y-88615177D01*
X136063311Y-88615177D01*
X135946544Y-88440423D01*
X135774940Y-88268819D01*
X135907303Y-88146727D01*
X136058473Y-87939129D01*
X136166238Y-87706028D01*
X136196910Y-87604900D01*
X136073224Y-87402500D01*
X135056000Y-87402500D01*
X135056000Y-87422500D01*
X134802000Y-87422500D01*
X134802000Y-87402500D01*
X133784776Y-87402500D01*
X133661090Y-87604900D01*
X133691762Y-87706028D01*
X133799527Y-87939129D01*
X133950697Y-88146727D01*
X134083060Y-88268819D01*
X133911456Y-88440423D01*
X133768093Y-88654982D01*
X133669342Y-88893387D01*
X133619000Y-89146476D01*
X133619000Y-89404524D01*
X133669342Y-89657613D01*
X133768093Y-89896018D01*
X133889697Y-90078013D01*
X133802815Y-90149315D01*
X133723463Y-90246006D01*
X133664498Y-90356320D01*
X133628188Y-90476018D01*
X133615928Y-90600500D01*
X131569928Y-90600500D01*
X131535389Y-86946100D01*
X133661090Y-86946100D01*
X133784776Y-87148500D01*
X134802000Y-87148500D01*
X134802000Y-86130415D01*
X135056000Y-86130415D01*
X135056000Y-87148500D01*
X136073224Y-87148500D01*
X136196910Y-86946100D01*
X136166238Y-86844972D01*
X136058473Y-86611871D01*
X135907303Y-86404273D01*
X135718537Y-86230156D01*
X135499430Y-86096211D01*
X135258401Y-86007585D01*
X135056000Y-86130415D01*
X134802000Y-86130415D01*
X134599599Y-86007585D01*
X134358570Y-86096211D01*
X134139463Y-86230156D01*
X133950697Y-86404273D01*
X133799527Y-86611871D01*
X133691762Y-86844972D01*
X133661090Y-86946100D01*
X131535389Y-86946100D01*
X131517325Y-85034924D01*
X134473821Y-82384414D01*
X137741202Y-79654748D01*
X141101882Y-77040756D01*
X144551715Y-74545663D01*
X148086557Y-72172464D01*
X151702024Y-69924104D01*
X155393803Y-67803264D01*
X159157333Y-65812565D01*
X162988027Y-63954432D01*
X166881270Y-62231107D01*
X170832226Y-60644726D01*
X174836191Y-59197179D01*
X178888214Y-57890258D01*
X182983400Y-56725540D01*
X187116709Y-55704459D01*
X191283151Y-54828248D01*
X195477629Y-54097978D01*
X199695060Y-53514534D01*
X203930268Y-53078634D01*
X208178099Y-52790807D01*
X212433406Y-52651402D01*
X216690944Y-52660589D01*
G36*
X222047588Y-92443682D02*
G01*
X222083898Y-92563380D01*
X222142863Y-92673694D01*
X222222215Y-92770385D01*
X222318906Y-92849737D01*
X222429220Y-92908702D01*
X222548918Y-92945012D01*
X222673400Y-92957272D01*
X223673400Y-92957272D01*
X223797882Y-92945012D01*
X223823400Y-92937271D01*
X223848918Y-92945012D01*
X223973400Y-92957272D01*
X224973400Y-92957272D01*
X225097882Y-92945012D01*
X225217580Y-92908702D01*
X225327894Y-92849737D01*
X225424585Y-92770385D01*
X225503937Y-92673694D01*
X225562902Y-92563380D01*
X225599212Y-92443682D01*
X225610290Y-92331200D01*
X230917574Y-92331200D01*
X230912157Y-92386200D01*
X230939864Y-92667509D01*
X231021918Y-92938008D01*
X231155168Y-93187301D01*
X231334492Y-93405808D01*
X231552999Y-93585132D01*
X231685958Y-93656200D01*
X231552999Y-93727268D01*
X231334492Y-93906592D01*
X231272606Y-93982000D01*
X225610290Y-93982000D01*
X225599212Y-93869518D01*
X225562902Y-93749820D01*
X225503937Y-93639506D01*
X225424585Y-93542815D01*
X225327894Y-93463463D01*
X225217580Y-93404498D01*
X225097882Y-93368188D01*
X224973400Y-93355928D01*
X223973400Y-93355928D01*
X223848918Y-93368188D01*
X223823400Y-93375929D01*
X223797882Y-93368188D01*
X223673400Y-93355928D01*
X222673400Y-93355928D01*
X222548918Y-93368188D01*
X222429220Y-93404498D01*
X222318906Y-93463463D01*
X222222215Y-93542815D01*
X222142863Y-93639506D01*
X222083898Y-93749820D01*
X222047588Y-93869518D01*
X222036510Y-93982000D01*
X214480123Y-93982000D01*
X214442700Y-93978314D01*
X214405277Y-93982000D01*
X214405274Y-93982000D01*
X214293322Y-93993026D01*
X214149685Y-94036598D01*
X214114640Y-94055330D01*
X214017307Y-94107355D01*
X213934955Y-94174940D01*
X213901278Y-94202578D01*
X213877421Y-94231648D01*
X210903420Y-97205650D01*
X210844111Y-97205650D01*
X210644152Y-97245424D01*
X210455794Y-97323445D01*
X210286276Y-97436713D01*
X210142113Y-97580876D01*
X210028845Y-97750394D01*
X209950824Y-97938752D01*
X209911050Y-98138711D01*
X209911050Y-98198019D01*
X188905153Y-119203917D01*
X187885613Y-119203917D01*
X204639081Y-102450450D01*
X204698389Y-102450450D01*
X204898348Y-102410676D01*
X205086706Y-102332655D01*
X205256224Y-102219387D01*
X205400387Y-102075224D01*
X205513655Y-101905706D01*
X205591676Y-101717348D01*
X205631450Y-101517389D01*
X205631450Y-101458080D01*
X214758331Y-92331200D01*
X222036510Y-92331200D01*
X222047588Y-92443682D01*
G37*
X222047588Y-92443682D02*
X222083898Y-92563380D01*
X222142863Y-92673694D01*
X222222215Y-92770385D01*
X222318906Y-92849737D01*
X222429220Y-92908702D01*
X222548918Y-92945012D01*
X222673400Y-92957272D01*
X223673400Y-92957272D01*
X223797882Y-92945012D01*
X223823400Y-92937271D01*
X223848918Y-92945012D01*
X223973400Y-92957272D01*
X224973400Y-92957272D01*
X225097882Y-92945012D01*
X225217580Y-92908702D01*
X225327894Y-92849737D01*
X225424585Y-92770385D01*
X225503937Y-92673694D01*
X225562902Y-92563380D01*
X225599212Y-92443682D01*
X225610290Y-92331200D01*
X230917574Y-92331200D01*
X230912157Y-92386200D01*
X230939864Y-92667509D01*
X231021918Y-92938008D01*
X231155168Y-93187301D01*
X231334492Y-93405808D01*
X231552999Y-93585132D01*
X231685958Y-93656200D01*
X231552999Y-93727268D01*
X231334492Y-93906592D01*
X231272606Y-93982000D01*
X225610290Y-93982000D01*
X225599212Y-93869518D01*
X225562902Y-93749820D01*
X225503937Y-93639506D01*
X225424585Y-93542815D01*
X225327894Y-93463463D01*
X225217580Y-93404498D01*
X225097882Y-93368188D01*
X224973400Y-93355928D01*
X223973400Y-93355928D01*
X223848918Y-93368188D01*
X223823400Y-93375929D01*
X223797882Y-93368188D01*
X223673400Y-93355928D01*
X222673400Y-93355928D01*
X222548918Y-93368188D01*
X222429220Y-93404498D01*
X222318906Y-93463463D01*
X222222215Y-93542815D01*
X222142863Y-93639506D01*
X222083898Y-93749820D01*
X222047588Y-93869518D01*
X222036510Y-93982000D01*
X214480123Y-93982000D01*
X214442700Y-93978314D01*
X214405277Y-93982000D01*
X214405274Y-93982000D01*
X214293322Y-93993026D01*
X214149685Y-94036598D01*
X214114640Y-94055330D01*
X214017307Y-94107355D01*
X213934955Y-94174940D01*
X213901278Y-94202578D01*
X213877421Y-94231648D01*
X210903420Y-97205650D01*
X210844111Y-97205650D01*
X210644152Y-97245424D01*
X210455794Y-97323445D01*
X210286276Y-97436713D01*
X210142113Y-97580876D01*
X210028845Y-97750394D01*
X209950824Y-97938752D01*
X209911050Y-98138711D01*
X209911050Y-98198019D01*
X188905153Y-119203917D01*
X187885613Y-119203917D01*
X204639081Y-102450450D01*
X204698389Y-102450450D01*
X204898348Y-102410676D01*
X205086706Y-102332655D01*
X205256224Y-102219387D01*
X205400387Y-102075224D01*
X205513655Y-101905706D01*
X205591676Y-101717348D01*
X205631450Y-101517389D01*
X205631450Y-101458080D01*
X214758331Y-92331200D01*
X222036510Y-92331200D01*
X222047588Y-92443682D01*
%TD*%
M02*
