%TF.GenerationSoftware,KiCad,Pcbnew,5.1.6*%
%TF.CreationDate,2020-10-16T15:45:10+02:00*%
%TF.ProjectId,prominny_kicad,70726f6d-696e-46e7-995f-6b696361642e,rev?*%
%TF.SameCoordinates,Original*%
%TF.FileFunction,Soldermask,Top*%
%TF.FilePolarity,Negative*%
%FSLAX46Y46*%
G04 Gerber Fmt 4.6, Leading zero omitted, Abs format (unit mm)*
G04 Created by KiCad (PCBNEW 5.1.6) date 2020-10-16 15:45:10*
%MOMM*%
%LPD*%
G01*
G04 APERTURE LIST*
%ADD10C,0.800000*%
%ADD11C,4.500000*%
%ADD12O,2.100000X1.700000*%
%ADD13O,1.450000X1.450000*%
%ADD14R,1.450000X1.450000*%
%ADD15C,4.100000*%
%ADD16C,2.200000*%
%ADD17C,2.000000*%
%ADD18O,2.600000X2.100000*%
%ADD19R,1.800000X1.100000*%
%ADD20C,1.624000*%
%ADD21C,1.600000*%
%ADD22R,1.100000X1.600000*%
G04 APERTURE END LIST*
D10*
%TO.C, *%
X233720826Y-132968574D03*
X232554100Y-132485300D03*
X231387374Y-132968574D03*
X230904100Y-134135300D03*
X231387374Y-135302026D03*
X232554100Y-135785300D03*
X233720826Y-135302026D03*
X234204100Y-134135300D03*
D11*
X232554100Y-134135300D03*
%TD*%
%TO.C, *%
X234935200Y-63496000D03*
D10*
X236585200Y-63496000D03*
X236101926Y-64662726D03*
X234935200Y-65146000D03*
X233768474Y-64662726D03*
X233285200Y-63496000D03*
X233768474Y-62329274D03*
X234935200Y-61846000D03*
X236101926Y-62329274D03*
%TD*%
%TO.C, *%
X148794926Y-87727674D03*
X147628200Y-87244400D03*
X146461474Y-87727674D03*
X145978200Y-88894400D03*
X146461474Y-90061126D03*
X147628200Y-90544400D03*
X148794926Y-90061126D03*
X149278200Y-88894400D03*
D11*
X147628200Y-88894400D03*
%TD*%
D12*
%TO.C,Brd1*%
X232554100Y-97466200D03*
X232554100Y-100006200D03*
X232554100Y-94926200D03*
X232554100Y-92386200D03*
%TD*%
D13*
%TO.C,J1*%
X134929000Y-87275500D03*
X134929000Y-89275500D03*
D14*
X134929000Y-91275500D03*
%TD*%
%TO.C,SW7*%
G36*
G01*
X245213097Y-129777499D02*
X245213097Y-129777499D01*
G75*
G02*
X246647424Y-129393172I909327J-525000D01*
G01*
X247080436Y-129643172D01*
G75*
G02*
X247464763Y-131077499I-525000J-909327D01*
G01*
X247464763Y-131077499D01*
G75*
G02*
X246030436Y-131461826I-909327J525000D01*
G01*
X245597424Y-131211826D01*
G75*
G02*
X245213097Y-129777499I525000J909327D01*
G01*
G37*
G36*
G01*
X239796367Y-128959550D02*
X239796367Y-128959550D01*
G75*
G02*
X241230694Y-128575223I909327J-525000D01*
G01*
X241663706Y-128825223D01*
G75*
G02*
X242048033Y-130259550I-525000J-909327D01*
G01*
X242048033Y-130259550D01*
G75*
G02*
X240613706Y-130643877I-909327J525000D01*
G01*
X240180694Y-130393877D01*
G75*
G02*
X239796367Y-128959550I525000J909327D01*
G01*
G37*
G36*
G01*
X247315924Y-123555295D02*
X247315924Y-123555295D01*
G75*
G02*
X248750251Y-123170968I909327J-525000D01*
G01*
X249183263Y-123420968D01*
G75*
G02*
X249567590Y-124855295I-525000J-909327D01*
G01*
X249567590Y-124855295D01*
G75*
G02*
X248133263Y-125239622I-909327J525000D01*
G01*
X247700251Y-124989622D01*
G75*
G02*
X247315924Y-123555295I525000J909327D01*
G01*
G37*
G36*
G01*
X243086662Y-118180591D02*
X243086662Y-118180591D01*
G75*
G02*
X244520989Y-117796264I909327J-525000D01*
G01*
X244954001Y-118046264D01*
G75*
G02*
X245338328Y-119480591I-525000J-909327D01*
G01*
X245338328Y-119480591D01*
G75*
G02*
X243904001Y-119864918I-909327J525000D01*
G01*
X243470989Y-119614918D01*
G75*
G02*
X243086662Y-118180591I525000J909327D01*
G01*
G37*
D15*
X243872200Y-124500000D03*
D16*
X239109060Y-121750000D03*
X248635340Y-127250000D03*
D17*
X248271609Y-127040000D03*
X239472791Y-121960000D03*
%TD*%
D18*
%TO.C,SW5*%
X206699800Y-68900000D03*
X201599800Y-70900000D03*
X205409800Y-62460000D03*
X199059800Y-59920000D03*
D15*
X201599800Y-65000000D03*
D16*
X196099800Y-65000000D03*
X207099800Y-65000000D03*
D17*
X206679800Y-65000000D03*
X196519800Y-65000000D03*
%TD*%
D18*
%TO.C,SW4*%
X187651000Y-74900000D03*
X182551000Y-76900000D03*
X186361000Y-68460000D03*
X180011000Y-65920000D03*
D15*
X182551000Y-71000000D03*
D16*
X177051000Y-71000000D03*
X188051000Y-71000000D03*
D17*
X187631000Y-71000000D03*
X177471000Y-71000000D03*
%TD*%
D18*
%TO.C,SW3*%
X168602200Y-86900000D03*
X163502200Y-88900000D03*
X167312200Y-80460000D03*
X160962200Y-77920000D03*
D15*
X163502200Y-83000000D03*
D16*
X158002200Y-83000000D03*
X169002200Y-83000000D03*
D17*
X168582200Y-83000000D03*
X158422200Y-83000000D03*
%TD*%
D18*
%TO.C,SW6*%
X225748600Y-74400000D03*
X220648600Y-76400000D03*
X224458600Y-67960000D03*
X218108600Y-65420000D03*
D15*
X220648600Y-70500000D03*
D16*
X215148600Y-70500000D03*
X226148600Y-70500000D03*
D17*
X225728600Y-70500000D03*
X215568600Y-70500000D03*
%TD*%
D19*
%TO.C,SW1*%
X220673400Y-115861300D03*
X226973400Y-115861300D03*
X220673400Y-119661300D03*
X226973400Y-119661300D03*
%TD*%
D20*
%TO.C,U2*%
X139927645Y-102009415D03*
X157707645Y-117249415D03*
X150087645Y-102009415D03*
X147547645Y-117249415D03*
X142467645Y-117249415D03*
X160247645Y-102009415D03*
X139927645Y-117249415D03*
X134847645Y-117249415D03*
X155167645Y-102009415D03*
X162787645Y-117249415D03*
X147547645Y-102009415D03*
X137387645Y-102009415D03*
X142467645Y-102009415D03*
X145007645Y-102009415D03*
X157707645Y-102009415D03*
X152627645Y-102009415D03*
X155167645Y-117249415D03*
X152627645Y-117249415D03*
X162787645Y-102009415D03*
X160247645Y-117249415D03*
X137387645Y-117249415D03*
X134847645Y-102009415D03*
X150087645Y-117249415D03*
X145007645Y-117249415D03*
X133651900Y-100710600D03*
X136191900Y-100710600D03*
X138731900Y-100710600D03*
X141271900Y-100710600D03*
X143811900Y-100710600D03*
X146351900Y-100710600D03*
X148891900Y-100710600D03*
X151431900Y-100710600D03*
X153971900Y-100710600D03*
X156511900Y-100710600D03*
X159051900Y-100710600D03*
X161591900Y-100710600D03*
X161591900Y-115950600D03*
X159051900Y-115950600D03*
X156511900Y-115950600D03*
X153971900Y-115950600D03*
X151431900Y-115950600D03*
X148891900Y-115950600D03*
X146351900Y-115950600D03*
X143811900Y-115950600D03*
X141271900Y-115950600D03*
X138731900Y-115950600D03*
X136191900Y-115950600D03*
X133651900Y-115950600D03*
%TD*%
%TO.C,U1*%
G36*
G01*
X246901114Y-68909068D02*
X247392606Y-68564922D01*
G75*
G02*
X248576425Y-68773661I487540J-696279D01*
G01*
X248576425Y-68773661D01*
G75*
G02*
X248367686Y-69957480I-696279J-487540D01*
G01*
X247876194Y-70301626D01*
G75*
G02*
X246692375Y-70092887I-487540J696279D01*
G01*
X246692375Y-70092887D01*
G75*
G02*
X246901114Y-68909068I696279J487540D01*
G01*
G37*
D21*
X250083274Y-64910773D03*
X244349210Y-68925808D03*
G36*
G01*
X249358570Y-67188339D02*
X249850062Y-66844193D01*
G75*
G02*
X251033881Y-67052932I487540J-696279D01*
G01*
X251033881Y-67052932D01*
G75*
G02*
X250825142Y-68236751I-696279J-487540D01*
G01*
X250333650Y-68580897D01*
G75*
G02*
X249149831Y-68372158I-487540J696279D01*
G01*
X249149831Y-68372158D01*
G75*
G02*
X249358570Y-67188339I696279J487540D01*
G01*
G37*
G36*
G01*
X243624506Y-71203374D02*
X244115998Y-70859228D01*
G75*
G02*
X245299817Y-71067967I487540J-696279D01*
G01*
X245299817Y-71067967D01*
G75*
G02*
X245091078Y-72251786I-696279J-487540D01*
G01*
X244599586Y-72595932D01*
G75*
G02*
X243415767Y-72387193I-487540J696279D01*
G01*
X243415767Y-72387193D01*
G75*
G02*
X243624506Y-71203374I696279J487540D01*
G01*
G37*
G36*
G01*
X240084987Y-68066208D02*
X240576479Y-67722062D01*
G75*
G02*
X241760298Y-67930801I487540J-696279D01*
G01*
X241760298Y-67930801D01*
G75*
G02*
X241551559Y-69114620I-696279J-487540D01*
G01*
X241060067Y-69458766D01*
G75*
G02*
X239876248Y-69250027I-487540J696279D01*
G01*
X239876248Y-69250027D01*
G75*
G02*
X240084987Y-68066208I696279J487540D01*
G01*
G37*
G36*
G01*
X245361891Y-75602407D02*
X245853383Y-75258261D01*
G75*
G02*
X247037202Y-75467000I487540J-696279D01*
G01*
X247037202Y-75467000D01*
G75*
G02*
X246828463Y-76650819I-696279J-487540D01*
G01*
X246336971Y-76994965D01*
G75*
G02*
X245153152Y-76786226I-487540J696279D01*
G01*
X245153152Y-76786226D01*
G75*
G02*
X245361891Y-75602407I696279J487540D01*
G01*
G37*
X252721726Y-68678872D03*
X246987661Y-72693907D03*
%TD*%
D22*
%TO.C,JP4*%
X223173400Y-101381100D03*
X224473400Y-101381100D03*
%TD*%
%TO.C,JP3*%
X223173400Y-97918800D03*
X224473400Y-97918800D03*
%TD*%
%TO.C,JP2*%
X223173400Y-94744000D03*
X224473400Y-94744000D03*
%TD*%
%TO.C,JP1*%
X223173400Y-91569200D03*
X224473400Y-91569200D03*
%TD*%
M02*
