M48
; DRILL file {KiCad 5.1.6} date Fri Oct 16 15:45:15 2020
; FORMAT={-:-/ absolute / inch / decimal}
; #@! TF.CreationDate,2020-10-16T15:45:15+02:00
; #@! TF.GenerationSoftware,Kicad,Pcbnew,5.1.6
; #@! TF.FileFunction,NonPlated,1,2,NPTH
FMAT,2
INCH
T1C0.0591
T2C0.0669
T3C0.0748
T4C0.1575
%
G90
G05
T1
X9.62Y-2.7136
X9.7239Y-2.862
X9.8458Y-2.5555
X9.9497Y-2.7039
T2
X9.4281Y-4.8016
X9.7745Y-5.0016
X6.2371Y-3.2677
X6.6371Y-3.2677
X6.987Y-2.7953
X7.387Y-2.7953
X7.737Y-2.5591
X8.137Y-2.5591
X8.487Y-2.7756
X8.887Y-2.7756
T3
X9.4137Y-4.7933
X9.7888Y-5.0098
X6.2206Y-3.2677
X6.6536Y-3.2677
X6.9705Y-2.7953
X7.4036Y-2.7953
X7.7205Y-2.5591
X8.1535Y-2.5591
X8.4704Y-2.7756
X8.9035Y-2.7756
T4
X8.687Y-2.7756
X9.6013Y-4.9016
X6.4371Y-3.2677
X7.187Y-2.7953
X7.937Y-2.5591
T0
M30
